<svg width="95" height="125" viewBox="0 0 95 125" fill="none" xmlns="http://www.w3.org/2000/svg">
<path d="M3.64823 30.0887C-6.07021 13.0544 12.6325 -6.04527 29.8671 3.31329L84.3268 32.8853C93.7825 38.0198 97.2855 49.8475 92.151 59.3032L62.0456 114.745C52.7294 131.902 26.7754 126.216 25.4848 106.736L22.9047 67.7945C22.7096 64.8511 21.8488 61.9904 20.387 59.4281L3.64823 30.0887Z" fill="#FFBF44"/>
<path d="M3.64823 30.0887C-6.07021 13.0544 12.6325 -6.04527 29.8671 3.31329L84.3268 32.8853C93.7825 38.0198 97.2855 49.8475 92.151 59.3032L62.0456 114.745C52.7294 131.902 26.7754 126.216 25.4848 106.736L22.9047 67.7945C22.7096 64.8511 21.8488 61.9904 20.387 59.4281L3.64823 30.0887Z" fill="url(#paint0_linear_140_41)"/>
<defs>
<linearGradient id="paint0_linear_140_41" x1="57.0818" y1="18.0911" x2="8.36604" y2="107.806" gradientUnits="userSpaceOnUse">
<stop stop-color="#FFBF44"/>
<stop offset="1" stop-color="#FFA844"/>
</linearGradient>
</defs>
</svg>
