<svg width="126" height="126" viewBox="0 0 126 126" fill="none" xmlns="http://www.w3.org/2000/svg">
<path d="M109.386 21.1497C132.63 46.6376 130.811 86.1423 105.323 109.386C79.8352 132.63 40.3304 130.811 17.0866 105.323C-6.15718 79.8351 -4.33804 40.3303 21.1498 17.0866C46.6376 -6.15721 86.1424 -4.33807 109.386 21.1497ZM40.1615 84.2796C51.7834 97.0235 71.5358 97.9331 84.2797 86.3112C97.0236 74.6893 97.9332 54.9369 86.3113 42.193C74.6894 29.4491 54.937 28.5396 42.1931 40.1614C29.4492 51.7833 28.5396 71.5357 40.1615 84.2796Z" fill="#63CEAD"/>
<path d="M109.386 21.1497C132.63 46.6376 130.811 86.1423 105.323 109.386C79.8352 132.63 40.3304 130.811 17.0866 105.323C-6.15718 79.8351 -4.33804 40.3303 21.1498 17.0866C46.6376 -6.15721 86.1424 -4.33807 109.386 21.1497ZM40.1615 84.2796C51.7834 97.0235 71.5358 97.9331 84.2797 86.3112C97.0236 74.6893 97.9332 54.9369 86.3113 42.193C74.6894 29.4491 54.937 28.5396 42.1931 40.1614C29.4492 51.7833 28.5396 71.5357 40.1615 84.2796Z" fill="url(#paint0_linear_140_55)"/>
<defs>
<linearGradient id="paint0_linear_140_55" x1="21.1498" y1="17.0866" x2="105.323" y2="109.386" gradientUnits="userSpaceOnUse">
<stop stop-color="#00C978"/>
<stop offset="1" stop-color="#00C9A8"/>
</linearGradient>
</defs>
</svg>
