<svg width="119" height="119" viewBox="0 0 119 119" fill="none" xmlns="http://www.w3.org/2000/svg">
<path d="M79.9735 1.48401C69.2949 -2.28699 57.5813 3.31269 53.8102 13.9912L46.9822 33.3265L27.647 26.4985C16.9684 22.7275 5.25476 28.3272 1.48376 39.0057C-2.28724 49.6843 3.31244 61.398 13.991 65.169L33.3262 71.997L26.4982 91.3322C22.7272 102.011 28.3269 113.724 39.0055 117.495C49.684 121.266 61.3977 115.667 65.1687 104.988L71.9967 85.653L91.332 92.481C102.011 96.252 113.724 90.6523 117.495 79.9737C121.266 69.2952 115.667 57.5815 104.988 53.8105L85.6527 46.9825L92.4807 27.6473C96.2517 16.9687 90.652 5.25501 79.9735 1.48401Z" fill="url(#paint0_linear_140_54)"/>
<path d="M79.9735 1.48401C69.2949 -2.28699 57.5813 3.31269 53.8102 13.9912L46.9822 33.3265L27.647 26.4985C16.9684 22.7275 5.25476 28.3272 1.48376 39.0057C-2.28724 49.6843 3.31244 61.398 13.991 65.169L33.3262 71.997L26.4982 91.3322C22.7272 102.011 28.3269 113.724 39.0055 117.495C49.684 121.266 61.3977 115.667 65.1687 104.988L71.9967 85.653L91.332 92.481C102.011 96.252 113.724 90.6523 117.495 79.9737C121.266 69.2952 115.667 57.5815 104.988 53.8105L85.6527 46.9825L92.4807 27.6473C96.2517 16.9687 90.652 5.25501 79.9735 1.48401Z" fill="url(#paint1_linear_140_54)"/>
<defs>
<linearGradient id="paint0_linear_140_54" x1="79.9735" y1="1.48401" x2="39.0055" y2="117.495" gradientUnits="userSpaceOnUse">
<stop stop-color="#FF5E19"/>
<stop offset="1" stop-color="#FFB06A"/>
</linearGradient>
<linearGradient id="paint1_linear_140_54" x1="79.9735" y1="1.48401" x2="39.0055" y2="117.495" gradientUnits="userSpaceOnUse">
<stop stop-color="#827EFC"/>
<stop offset="1" stop-color="#AEAAFC"/>
</linearGradient>
</defs>
</svg>
