<svg width="205" height="209" viewBox="0 0 205 209" fill="none" xmlns="http://www.w3.org/2000/svg">
<path fill-rule="evenodd" clip-rule="evenodd" d="M84.8449 2.36017C93.3022 0.868169 97.5308 0.122166 101.452 1.08139C102.81 1.41346 104.127 1.89276 105.381 2.51079C109.002 4.29605 111.747 7.56744 117.238 14.1102C122.729 20.653 125.475 23.9244 129.096 25.7097C130.349 26.3277 131.666 26.807 133.024 27.139C136.945 28.0983 141.151 27.3563 149.563 25.8723C157.975 24.3883 162.181 23.6463 166.102 24.6056C167.46 24.9376 168.777 25.4169 170.03 26.035C173.651 27.8202 176.412 31.1093 181.933 37.6875C187.541 44.3707 190.346 47.7122 191.468 51.6587C191.828 52.9219 192.056 54.2185 192.151 55.5283C192.447 59.6207 190.957 63.7147 187.978 71.9027C185.02 80.0316 183.541 84.096 183.823 88.1608C183.915 89.4879 184.145 90.8018 184.508 92.0814C185.622 96.0006 188.382 99.3087 193.9 105.925C199.419 112.541 202.178 115.849 203.292 119.769C203.656 121.048 203.886 122.362 203.978 123.689C204.26 127.754 202.775 131.835 199.805 139.996C196.835 148.158 195.351 152.239 192.522 155.172C191.599 156.129 190.578 156.988 189.477 157.735C186.105 160.022 181.865 160.783 173.385 162.306C164.905 163.828 160.665 164.589 157.293 166.876C156.192 167.623 155.171 168.482 154.248 169.439C151.42 172.372 149.941 176.437 146.983 184.566C144.003 192.754 142.514 196.848 139.657 199.793C138.743 200.736 137.735 201.582 136.648 202.319C133.251 204.621 128.955 205.379 120.363 206.895C111.906 208.387 107.677 209.133 103.755 208.174C102.398 207.842 101.081 207.363 99.8272 206.745C96.2062 204.959 93.4607 201.688 87.9697 195.145C82.4787 188.602 79.7331 185.331 76.1122 183.546C74.8587 182.928 73.5414 182.448 72.1839 182.116C68.2623 181.157 64.0565 181.899 55.6448 183.383C47.233 184.867 43.0272 185.609 39.1056 184.65C37.7481 184.318 36.4308 183.838 35.1773 183.22C31.5564 181.435 28.796 178.146 23.2753 171.568C17.6664 164.885 14.862 161.543 13.7394 157.597C13.3801 156.333 13.1514 155.037 13.0567 153.727C12.7611 149.635 14.2449 145.557 17.2123 137.402C20.1798 129.246 21.6635 125.169 21.3679 121.077C21.2733 119.767 21.0445 118.47 20.6852 117.207C19.5626 113.26 16.7732 109.937 11.1944 103.289C5.61558 96.6418 2.82617 93.3181 1.70359 89.3716C1.3443 88.1085 1.11555 86.8118 1.02093 85.502C0.725336 81.4096 2.20906 77.332 5.17652 69.1767C8.14395 61.0215 9.62766 56.9439 12.4841 53.9985C13.3984 53.0557 14.407 52.2093 15.4941 51.4724C18.8904 49.1702 23.1635 48.4164 31.7097 46.9087C40.2559 45.401 44.5291 44.6471 47.9253 42.3449C49.0125 41.608 50.0211 40.7615 50.9354 39.8187C53.7918 36.8733 55.2755 32.7957 58.2429 24.6405C61.2103 16.4853 62.694 12.4076 65.5505 9.46217C66.4647 8.51942 67.4733 7.67297 68.5604 6.9361C71.9567 4.63389 76.2528 3.87599 84.8449 2.36017ZM76.2076 126.871C81.6658 133.375 84.3949 136.627 87.9757 138.409C89.2874 139.062 90.6695 139.563 92.095 139.901C95.9865 140.825 100.154 140.077 108.488 138.58C116.766 137.094 120.905 136.35 124.218 134.151C125.431 133.346 126.549 132.405 127.55 131.346C130.281 128.457 131.719 124.505 134.595 116.602L134.809 116.013C137.685 108.109 139.123 104.157 138.887 100.189C138.801 98.7346 138.549 97.2951 138.137 95.898C137.012 92.0846 134.319 88.855 128.932 82.396C123.508 75.8934 120.796 72.6421 117.221 70.8491C115.911 70.1923 114.531 69.6876 113.106 69.3448C109.218 68.409 105.037 69.1465 96.6752 70.6217C88.2746 72.1037 84.0743 72.8447 80.7279 75.0731C79.5469 75.8596 78.4567 76.7745 77.4773 77.8012C74.7022 80.7103 73.2278 84.7621 70.2792 92.8658C67.3306 100.969 65.8563 105.021 66.113 109.033C66.2036 110.449 66.4508 111.851 66.8502 113.212C67.982 117.07 70.7239 120.337 76.2076 126.871Z" fill="#64C6FF"/>
<path fill-rule="evenodd" clip-rule="evenodd" d="M84.8449 2.36017C93.3022 0.868169 97.5308 0.122166 101.452 1.08139C102.81 1.41346 104.127 1.89276 105.381 2.51079C109.002 4.29605 111.747 7.56744 117.238 14.1102C122.729 20.653 125.475 23.9244 129.096 25.7097C130.349 26.3277 131.666 26.807 133.024 27.139C136.945 28.0983 141.151 27.3563 149.563 25.8723C157.975 24.3883 162.181 23.6463 166.102 24.6056C167.46 24.9376 168.777 25.4169 170.03 26.035C173.651 27.8202 176.412 31.1093 181.933 37.6875C187.541 44.3707 190.346 47.7122 191.468 51.6587C191.828 52.9219 192.056 54.2185 192.151 55.5283C192.447 59.6207 190.957 63.7147 187.978 71.9027C185.02 80.0316 183.541 84.096 183.823 88.1608C183.915 89.4879 184.145 90.8018 184.508 92.0814C185.622 96.0006 188.382 99.3087 193.9 105.925C199.419 112.541 202.178 115.849 203.292 119.769C203.656 121.048 203.886 122.362 203.978 123.689C204.26 127.754 202.775 131.835 199.805 139.996C196.835 148.158 195.351 152.239 192.522 155.172C191.599 156.129 190.578 156.988 189.477 157.735C186.105 160.022 181.865 160.783 173.385 162.306C164.905 163.828 160.665 164.589 157.293 166.876C156.192 167.623 155.171 168.482 154.248 169.439C151.42 172.372 149.941 176.437 146.983 184.566C144.003 192.754 142.514 196.848 139.657 199.793C138.743 200.736 137.735 201.582 136.648 202.319C133.251 204.621 128.955 205.379 120.363 206.895C111.906 208.387 107.677 209.133 103.755 208.174C102.398 207.842 101.081 207.363 99.8272 206.745C96.2062 204.959 93.4607 201.688 87.9697 195.145C82.4787 188.602 79.7331 185.331 76.1122 183.546C74.8587 182.928 73.5414 182.448 72.1839 182.116C68.2623 181.157 64.0565 181.899 55.6448 183.383C47.233 184.867 43.0272 185.609 39.1056 184.65C37.7481 184.318 36.4308 183.838 35.1773 183.22C31.5564 181.435 28.796 178.146 23.2753 171.568C17.6664 164.885 14.862 161.543 13.7394 157.597C13.3801 156.333 13.1514 155.037 13.0567 153.727C12.7611 149.635 14.2449 145.557 17.2123 137.402C20.1798 129.246 21.6635 125.169 21.3679 121.077C21.2733 119.767 21.0445 118.47 20.6852 117.207C19.5626 113.26 16.7732 109.937 11.1944 103.289C5.61558 96.6418 2.82617 93.3181 1.70359 89.3716C1.3443 88.1085 1.11555 86.8118 1.02093 85.502C0.725336 81.4096 2.20906 77.332 5.17652 69.1767C8.14395 61.0215 9.62766 56.9439 12.4841 53.9985C13.3984 53.0557 14.407 52.2093 15.4941 51.4724C18.8904 49.1702 23.1635 48.4164 31.7097 46.9087C40.2559 45.401 44.5291 44.6471 47.9253 42.3449C49.0125 41.608 50.0211 40.7615 50.9354 39.8187C53.7918 36.8733 55.2755 32.7957 58.2429 24.6405C61.2103 16.4853 62.694 12.4076 65.5505 9.46217C66.4647 8.51942 67.4733 7.67297 68.5604 6.9361C71.9567 4.63389 76.2528 3.87599 84.8449 2.36017ZM76.2076 126.871C81.6658 133.375 84.3949 136.627 87.9757 138.409C89.2874 139.062 90.6695 139.563 92.095 139.901C95.9865 140.825 100.154 140.077 108.488 138.58C116.766 137.094 120.905 136.35 124.218 134.151C125.431 133.346 126.549 132.405 127.55 131.346C130.281 128.457 131.719 124.505 134.595 116.602L134.809 116.013C137.685 108.109 139.123 104.157 138.887 100.189C138.801 98.7346 138.549 97.2951 138.137 95.898C137.012 92.0846 134.319 88.855 128.932 82.396C123.508 75.8934 120.796 72.6421 117.221 70.8491C115.911 70.1923 114.531 69.6876 113.106 69.3448C109.218 68.409 105.037 69.1465 96.6752 70.6217C88.2746 72.1037 84.0743 72.8447 80.7279 75.0731C79.5469 75.8596 78.4567 76.7745 77.4773 77.8012C74.7022 80.7103 73.2278 84.7621 70.2792 92.8658C67.3306 100.969 65.8563 105.021 66.113 109.033C66.2036 110.449 66.4508 111.851 66.8502 113.212C67.982 117.07 70.7239 120.337 76.2076 126.871Z" fill="url(#paint0_linear_1_4)"/>
<defs>
<linearGradient id="paint0_linear_1_4" x1="135.667" y1="13.4098" x2="69.3143" y2="195.763" gradientUnits="userSpaceOnUse">
<stop stop-color="#B5E5FF"/>
<stop offset="1" stop-color="#85C9FF"/>
</linearGradient>
</defs>
</svg>
