<svg width="57" height="57" viewBox="0 0 57 57" fill="none" xmlns="http://www.w3.org/2000/svg">
<path d="M18.6198 12.8364C20.0292 5.57778 20.7338 1.94847 22.6695 0.983405C23.4599 0.589344 24.3509 0.44315 25.2257 0.563967C27.3683 0.859851 29.1958 4.07367 32.8509 10.5013C34.4484 13.3107 35.2472 14.7154 36.4079 15.752C36.9102 16.2007 37.4589 16.5947 38.0446 16.9273C39.3978 17.6959 40.9841 18.0039 44.1567 18.6199C51.4153 20.0292 55.0446 20.7339 56.0097 22.6695C56.4037 23.4599 56.5499 24.3509 56.4291 25.2258C56.1332 27.3683 52.9194 29.1959 46.4918 32.8509C43.6824 34.4484 42.2777 35.2472 41.241 36.4079C40.7924 36.9103 40.3984 37.4589 40.0658 38.0446C39.2972 39.3978 38.9892 40.9841 38.3732 44.1567C36.9639 51.4153 36.2592 55.0446 34.3235 56.0097C33.5332 56.4038 32.6422 56.5499 31.7673 56.4291C29.6247 56.1332 27.7972 52.9194 24.1422 46.4918C22.5446 43.6824 21.7459 42.2777 20.5852 41.2411C20.0828 40.7924 19.5342 40.3984 18.9485 40.0658C17.5953 39.2972 16.009 38.9892 12.8364 38.3732C5.57776 36.9639 1.94845 36.2592 0.983385 34.3236C0.589324 33.5332 0.44313 32.6422 0.563947 31.7673C0.859831 29.6248 4.07365 27.7972 10.5013 24.1422C13.3107 22.5447 14.7153 21.7459 15.752 20.5852C16.2007 20.0828 16.5947 19.5342 16.9273 18.9485C17.6959 17.5953 18.0039 16.009 18.6198 12.8364Z" fill="#406DA2"/>
</svg>
