<svg width="35" height="35" viewBox="0 0 35 35" fill="none" xmlns="http://www.w3.org/2000/svg">
<path d="M11.8135 8.28169C12.6742 3.84898 13.1045 1.63262 14.2866 1.04327C14.7693 0.802628 15.3134 0.713351 15.8476 0.787131C17.1561 0.967822 18.2721 2.93044 20.5042 6.85568C21.4797 8.57131 21.9675 9.42913 22.6764 10.0622C22.9831 10.3362 23.3182 10.5768 23.6759 10.7799C24.5023 11.2493 25.471 11.4374 27.4084 11.8135C31.8411 12.6742 34.0575 13.1045 34.6468 14.2866C34.8875 14.7693 34.9767 15.3134 34.903 15.8476C34.7223 17.1561 32.7596 18.2721 28.8344 20.5042C27.1188 21.4798 26.261 21.9675 25.6279 22.6764C25.3539 22.9832 25.1133 23.3182 24.9102 23.6759C24.4408 24.5023 24.2527 25.471 23.8766 27.4084C23.0159 31.8411 22.5856 34.0575 21.4035 34.6468C20.9208 34.8875 20.3767 34.9767 19.8425 34.903C18.534 34.7223 17.418 32.7597 15.1859 28.8344C14.2103 27.1188 13.7225 26.261 13.0137 25.6279C12.7069 25.3539 12.3719 25.1133 12.0142 24.9102C11.1878 24.4408 10.2191 24.2527 8.28168 23.8766C3.84897 23.0159 1.63261 22.5856 1.04326 21.4035C0.802617 20.9208 0.713339 20.3767 0.78712 19.8425C0.96781 18.534 2.93043 17.418 6.85567 15.1859C8.5713 14.2103 9.42912 13.7226 10.0622 13.0137C10.3362 12.7069 10.5768 12.3719 10.7799 12.0142C11.2493 11.1878 11.4374 10.2191 11.8135 8.28169Z" fill="#406DA2"/>
</svg>
