<svg width="360" height="520" viewBox="0 0 360 520" fill="none" xmlns="http://www.w3.org/2000/svg">
<path d="M-4.75023 8.80002C-26.5669 1.3518 -37.4752 -2.37231 -46.5666 2.09139C-55.658 6.55508 -59.3821 17.4634 -66.8303 39.28L-76.5535 67.7601C-84.0017 89.5767 -87.7258 100.485 -83.2621 109.576C-78.7984 118.668 -67.8901 122.392 -46.0735 129.84L-21.1534 138.348C-9.40602 142.358 -3.53232 144.364 -1.12879 149.259C1.27474 154.155 -0.730561 160.028 -4.74114 171.776L-21.7566 221.616C-29.2048 243.432 -32.9289 254.341 -28.4652 263.432C-24.0015 272.524 -13.0932 276.248 8.72339 283.696L30.0834 290.988C41.8308 294.999 47.7045 297.004 50.1081 301.899C52.5116 306.795 50.5063 312.669 46.4957 324.416L29.4803 374.256C22.0321 396.073 18.3079 406.981 22.7716 416.072C27.2353 425.164 38.1436 428.888 59.9603 436.336L278.901 511.083C300.717 518.531 311.625 522.255 320.717 517.791C329.808 513.327 333.532 502.419 340.981 480.603L350.704 452.123C358.152 430.306 361.876 419.398 357.412 410.306C352.949 401.215 342.04 397.491 320.224 390.042L298.864 382.75C287.116 378.739 281.243 376.734 278.839 371.839C276.436 366.943 278.441 361.07 282.451 349.322L299.467 299.482C306.915 277.666 310.639 266.757 306.176 257.666C301.712 248.574 290.804 244.85 268.987 237.402L244.067 228.894C232.319 224.884 226.446 222.879 224.042 217.983C221.639 213.088 223.644 207.214 227.655 195.467L244.67 145.627C252.118 123.81 255.842 112.902 251.379 103.81C246.915 94.7188 236.007 90.9947 214.19 83.5465L-4.75023 8.80002Z" fill="#64C6FF" fill-opacity="0.1"/>
</svg>
