<svg width="164" height="209" viewBox="0 0 164 209" fill="none" xmlns="http://www.w3.org/2000/svg">
<path fill-rule="evenodd" clip-rule="evenodd" d="M43.8445 2.36018C52.3017 0.868169 56.5303 0.122166 60.4518 1.08139C61.8094 1.41346 63.1266 1.89276 64.3801 2.51079C68.0011 4.29605 70.7466 7.56744 76.2376 14.1102C81.7287 20.653 84.4742 23.9244 88.0951 25.7097C89.3486 26.3277 90.6659 26.807 92.0234 27.1391C95.945 28.0983 100.151 27.3563 108.563 25.8723C116.974 24.3883 121.18 23.6463 125.102 24.6056C126.459 24.9376 127.776 25.4169 129.03 26.035C132.651 27.8202 135.411 31.1093 140.932 37.6875C146.541 44.3707 149.345 47.7122 150.468 51.6587C150.827 52.9219 151.056 54.2185 151.151 55.5283C151.446 59.6207 149.957 63.7147 146.977 71.9027C144.019 80.0316 142.54 84.096 142.822 88.1608C142.914 89.4879 143.144 90.8018 143.508 92.0814C144.622 96.0006 147.381 99.3087 152.9 105.925C158.418 112.541 161.178 115.849 162.292 119.769C162.656 121.048 162.885 122.362 162.977 123.689C163.259 127.754 161.774 131.835 158.805 139.996C155.835 148.158 154.35 152.239 151.522 155.172C150.598 156.129 149.578 156.988 148.477 157.735C145.105 160.022 140.865 160.783 132.385 162.306C123.905 163.828 119.665 164.589 116.292 166.876C115.191 167.623 114.171 168.482 113.247 169.439C110.419 172.372 108.94 176.437 105.982 184.566C103.003 192.754 101.513 196.848 98.6568 199.793C97.7426 200.736 96.734 201.582 95.647 202.319C92.2507 204.621 87.9546 205.379 79.3624 206.895C70.9052 208.387 66.6765 209.133 62.755 208.174C61.3974 207.842 60.0802 207.363 58.8267 206.745C55.2057 204.959 52.4602 201.688 46.9692 195.145C41.4782 188.602 38.7326 185.331 35.1117 183.546C33.8582 182.928 32.5409 182.448 31.1834 182.116C27.2619 181.157 23.056 181.899 14.6443 183.383C6.23253 184.867 2.02667 185.609 -1.89485 184.65C-3.25241 184.318 -4.56967 183.838 -5.82318 183.22C-9.44413 181.435 -12.2045 178.146 -17.7252 171.568C-23.3341 164.885 -26.1385 161.543 -27.2611 157.597C-27.6204 156.333 -27.8491 155.037 -27.9437 153.727C-28.2394 149.635 -26.7556 145.557 -23.7882 137.402C-20.8207 129.247 -19.337 125.169 -19.6326 121.077C-19.7272 119.767 -19.956 118.47 -20.3153 117.207C-21.4379 113.26 -24.2273 109.937 -29.8061 103.289C-35.3849 96.6418 -38.1743 93.3181 -39.2969 89.3716C-39.6562 88.1085 -39.8849 86.8118 -39.9796 85.502C-40.2752 81.4096 -38.7914 77.332 -35.824 69.1767C-32.8565 61.0215 -31.3728 56.9439 -28.5164 53.9985C-27.6021 53.0557 -26.5935 52.2093 -25.5064 51.4724C-22.1101 49.1702 -17.837 48.4164 -9.2908 46.9087C-0.744551 45.401 3.52858 44.6471 6.92485 42.3449C8.01197 41.608 9.0206 40.7615 9.9349 39.8187C12.7913 36.8733 14.275 32.7957 17.2424 24.6405C20.2098 16.4853 21.6935 12.4076 24.55 9.46217C25.4642 8.51942 26.4728 7.67297 27.5599 6.9361C30.9562 4.63389 35.2523 3.87599 43.8445 2.36018ZM35.2071 126.871C40.6653 133.375 43.3944 136.627 46.9752 138.409C48.2869 139.062 49.669 139.563 51.0945 139.901C54.986 140.825 59.1531 140.077 67.4873 138.58C75.7657 137.094 79.9049 136.35 83.2173 134.151C84.4308 133.346 85.5487 132.405 86.5495 131.346C89.2809 128.457 90.7189 124.505 93.5948 116.602L93.8089 116.013C96.6849 108.109 98.1229 104.157 97.8868 100.189C97.8003 98.7346 97.5486 97.2951 97.1366 95.898C96.012 92.0846 93.3183 88.8551 87.931 82.396C82.5075 75.8934 79.7957 72.6421 76.2204 70.8491C74.9107 70.1923 73.5302 69.6876 72.1057 69.3448C68.217 68.409 64.0363 69.1465 55.6748 70.6217C47.2741 72.1037 43.0738 72.8447 39.7274 75.0731C38.5464 75.8596 37.4562 76.7745 36.4768 77.8012C33.7017 80.7103 32.2274 84.7621 29.2787 92.8658C26.3301 100.969 24.8558 105.021 25.1125 109.033C25.2031 110.449 25.4503 111.851 25.8497 113.212C26.9815 117.07 29.7234 120.337 35.2071 126.871Z" fill="#64C6FF"/>
<path fill-rule="evenodd" clip-rule="evenodd" d="M43.8445 2.36018C52.3017 0.868169 56.5303 0.122166 60.4518 1.08139C61.8094 1.41346 63.1266 1.89276 64.3801 2.51079C68.0011 4.29605 70.7466 7.56744 76.2376 14.1102C81.7287 20.653 84.4742 23.9244 88.0951 25.7097C89.3486 26.3277 90.6659 26.807 92.0234 27.1391C95.945 28.0983 100.151 27.3563 108.563 25.8723C116.974 24.3883 121.18 23.6463 125.102 24.6056C126.459 24.9376 127.776 25.4169 129.03 26.035C132.651 27.8202 135.411 31.1093 140.932 37.6875C146.541 44.3707 149.345 47.7122 150.468 51.6587C150.827 52.9219 151.056 54.2185 151.151 55.5283C151.446 59.6207 149.957 63.7147 146.977 71.9027C144.019 80.0316 142.54 84.096 142.822 88.1608C142.914 89.4879 143.144 90.8018 143.508 92.0814C144.622 96.0006 147.381 99.3087 152.9 105.925C158.418 112.541 161.178 115.849 162.292 119.769C162.656 121.048 162.885 122.362 162.977 123.689C163.259 127.754 161.774 131.835 158.805 139.996C155.835 148.158 154.35 152.239 151.522 155.172C150.598 156.129 149.578 156.988 148.477 157.735C145.105 160.022 140.865 160.783 132.385 162.306C123.905 163.828 119.665 164.589 116.292 166.876C115.191 167.623 114.171 168.482 113.247 169.439C110.419 172.372 108.94 176.437 105.982 184.566C103.003 192.754 101.513 196.848 98.6568 199.793C97.7426 200.736 96.734 201.582 95.647 202.319C92.2507 204.621 87.9546 205.379 79.3624 206.895C70.9052 208.387 66.6765 209.133 62.755 208.174C61.3974 207.842 60.0802 207.363 58.8267 206.745C55.2057 204.959 52.4602 201.688 46.9692 195.145C41.4782 188.602 38.7326 185.331 35.1117 183.546C33.8582 182.928 32.5409 182.448 31.1834 182.116C27.2619 181.157 23.056 181.899 14.6443 183.383C6.23253 184.867 2.02667 185.609 -1.89485 184.65C-3.25241 184.318 -4.56967 183.838 -5.82318 183.22C-9.44413 181.435 -12.2045 178.146 -17.7252 171.568C-23.3341 164.885 -26.1385 161.543 -27.2611 157.597C-27.6204 156.333 -27.8491 155.037 -27.9437 153.727C-28.2394 149.635 -26.7556 145.557 -23.7882 137.402C-20.8207 129.247 -19.337 125.169 -19.6326 121.077C-19.7272 119.767 -19.956 118.47 -20.3153 117.207C-21.4379 113.26 -24.2273 109.937 -29.8061 103.289C-35.3849 96.6418 -38.1743 93.3181 -39.2969 89.3716C-39.6562 88.1085 -39.8849 86.8118 -39.9796 85.502C-40.2752 81.4096 -38.7914 77.332 -35.824 69.1767C-32.8565 61.0215 -31.3728 56.9439 -28.5164 53.9985C-27.6021 53.0557 -26.5935 52.2093 -25.5064 51.4724C-22.1101 49.1702 -17.837 48.4164 -9.2908 46.9087C-0.744551 45.401 3.52858 44.6471 6.92485 42.3449C8.01197 41.608 9.0206 40.7615 9.9349 39.8187C12.7913 36.8733 14.275 32.7957 17.2424 24.6405C20.2098 16.4853 21.6935 12.4076 24.55 9.46217C25.4642 8.51942 26.4728 7.67297 27.5599 6.9361C30.9562 4.63389 35.2523 3.87599 43.8445 2.36018ZM35.2071 126.871C40.6653 133.375 43.3944 136.627 46.9752 138.409C48.2869 139.062 49.669 139.563 51.0945 139.901C54.986 140.825 59.1531 140.077 67.4873 138.58C75.7657 137.094 79.9049 136.35 83.2173 134.151C84.4308 133.346 85.5487 132.405 86.5495 131.346C89.2809 128.457 90.7189 124.505 93.5948 116.602L93.8089 116.013C96.6849 108.109 98.1229 104.157 97.8868 100.189C97.8003 98.7346 97.5486 97.2951 97.1366 95.898C96.012 92.0846 93.3183 88.8551 87.931 82.396C82.5075 75.8934 79.7957 72.6421 76.2204 70.8491C74.9107 70.1923 73.5302 69.6876 72.1057 69.3448C68.217 68.409 64.0363 69.1465 55.6748 70.6217C47.2741 72.1037 43.0738 72.8447 39.7274 75.0731C38.5464 75.8596 37.4562 76.7745 36.4768 77.8012C33.7017 80.7103 32.2274 84.7621 29.2787 92.8658C26.3301 100.969 24.8558 105.021 25.1125 109.033C25.2031 110.449 25.4503 111.851 25.8497 113.212C26.9815 117.07 29.7234 120.337 35.2071 126.871Z" fill="url(#paint0_linear_140_40)"/>
<defs>
<linearGradient id="paint0_linear_140_40" x1="94.6669" y1="13.4098" x2="28.3138" y2="195.763" gradientUnits="userSpaceOnUse">
<stop stop-color="#B5E5FF"/>
<stop offset="1" stop-color="#85C9FF"/>
</linearGradient>
</defs>
</svg>
