<svg width="446" height="520" viewBox="0 0 446 520" fill="none" xmlns="http://www.w3.org/2000/svg">
<path d="M81.2498 8.80003C59.4331 1.35181 48.5248 -2.37229 39.4334 2.0914C30.342 6.55509 26.6179 17.4634 19.1697 39.28L9.44654 67.7601C1.99832 89.5767 -1.72579 100.485 2.7379 109.576C7.20159 118.668 18.1099 122.392 39.9265 129.84L64.8466 138.348C76.594 142.358 82.4677 144.364 84.8712 149.259C87.2747 154.155 85.2694 160.028 81.2589 171.776L64.2434 221.616C56.7952 243.432 53.0711 254.341 57.5348 263.432C61.9985 272.524 72.9068 276.248 94.7234 283.696L116.083 290.988C127.831 294.999 133.705 297.004 136.108 301.899C138.512 306.795 136.506 312.669 132.496 324.416L115.48 374.256C108.032 396.073 104.308 406.981 108.772 416.072C113.235 425.164 124.144 428.888 145.96 436.336L364.901 511.083C386.717 518.531 397.625 522.255 406.717 517.791C415.808 513.327 419.532 502.419 426.981 480.603L436.704 452.123C444.152 430.306 447.876 419.398 443.412 410.306C438.949 401.215 428.04 397.491 406.224 390.042L384.864 382.75C373.116 378.739 367.243 376.734 364.839 371.839C362.436 366.943 364.441 361.07 368.451 349.322L385.467 299.482C392.915 277.666 396.639 266.757 392.176 257.666C387.712 248.574 376.804 244.85 354.987 237.402L330.067 228.894C318.319 224.884 312.446 222.879 310.042 217.983C307.639 213.088 309.644 207.214 313.655 195.467L330.67 145.627C338.118 123.81 341.842 112.902 337.379 103.81C332.915 94.7188 322.007 90.9947 300.19 83.5465L81.2498 8.80003Z" fill="#64C6FF" fill-opacity="0.1"/>
</svg>
