<svg width="21" height="20" viewBox="0 0 21 20" fill="none" xmlns="http://www.w3.org/2000/svg">
<path d="M18.2093 6.80439C17.5568 7.20388 17.0163 7.76238 16.6384 8.42764C16.2605 9.0929 16.0576 9.84316 16.0486 10.6082C16.0512 11.4692 16.3063 12.3106 16.7823 13.0281C17.2584 13.7456 17.9344 14.3077 18.7268 14.6447C18.4144 15.6527 17.952 16.6078 17.3553 17.4781C16.5015 18.7072 15.6087 19.9363 14.2503 19.9363C12.8918 19.9363 12.5425 19.1471 10.977 19.1471C9.45031 19.1471 8.90689 19.9622 7.66484 19.9622C6.42279 19.9622 5.55606 18.8236 4.55979 17.4264C3.24379 15.4689 2.52054 13.1734 2.47681 10.8151C2.47681 6.93379 4.99973 4.87674 7.4837 4.87674C8.80341 4.87674 9.90316 5.74348 10.7312 5.74348C11.5204 5.74348 12.7495 4.82488 14.2503 4.82488C15.0219 4.80497 15.7865 4.9751 16.4769 5.3203C17.1673 5.66549 17.7622 6.17515 18.2093 6.80439ZM13.5387 3.18184C14.2003 2.40362 14.5748 1.42197 14.5996 0.400862C14.6008 0.26625 14.5877 0.131893 14.5608 0C13.4244 0.111006 12.3736 0.652622 11.6239 1.51376C10.9559 2.26097 10.5673 3.21641 10.5241 4.2177C10.5246 4.33947 10.5376 4.46087 10.5629 4.57998C10.6525 4.59691 10.7435 4.60559 10.8347 4.60591C11.3584 4.56423 11.8682 4.4165 12.333 4.1717C12.7979 3.92689 13.2081 3.59012 13.5387 3.18184Z" fill="black"/>
</svg>
