<svg width="17" height="16" viewBox="0 0 17 16" fill="none" xmlns="http://www.w3.org/2000/svg">
<path d="M0.5 1C0.5 0.447715 0.947715 0 1.5 0H9.5C10.0523 0 10.5 0.447715 10.5 1V3C10.5 3.55228 10.0523 4 9.5 4H5C4.72386 4 4.5 4.22386 4.5 4.5V9C4.5 9.55228 4.05228 10 3.5 10H1.5C0.947715 10 0.5 9.55228 0.5 9V1Z" fill="#DAEEFE" fill-opacity="0.3"/>
<path d="M16.5 7C16.5 6.44772 16.0523 6 15.5 6H7.5C6.94772 6 6.5 6.44772 6.5 7V15C6.5 15.5523 6.94772 16 7.5 16H15.5C16.0523 16 16.5 15.5523 16.5 15V7Z" fill="#DAEEFE" fill-opacity="0.3"/>
</svg>
