<svg width="87" height="24" viewBox="0 0 87 24" fill="none" xmlns="http://www.w3.org/2000/svg">
<path d="M2.20833e-06 2.9505C2.20833e-06 1.86675 2.41933e-06 1.32487 0.234553 0.922003C0.38496 0.663663 0.599841 0.448781 0.858181 0.298374C1.26105 0.0638239 1.80293 0.0638237 2.88668 0.0638237H4.7407C6.90004 0.0638237 7.97971 0.0638241 8.38563 0.303114C9.21547 0.792301 9.48477 1.86577 8.98411 2.68874C8.7392 3.0913 7.78739 3.60094 5.88375 4.62021C5.70466 4.71609 5.61512 4.76404 5.53318 4.82094C5.37045 4.93394 5.22837 5.0741 5.11317 5.23529C5.05516 5.31644 5.00544 5.40636 4.90598 5.5862C3.60085 7.94616 2.94829 9.12613 2.39487 9.35809C1.67984 9.65778 0.852726 9.4443 0.372043 8.83601C2.16195e-06 8.36519 2.20833e-06 7.0335 2.20833e-06 4.37013V2.9505Z" fill="white"/>
<path d="M20.3431 2.9505C20.3431 1.86675 20.3431 1.32487 20.1086 0.922003C19.9582 0.663663 19.7433 0.448781 19.485 0.298374C19.0821 0.0638239 18.5402 0.0638237 17.4565 0.0638237H15.6024C13.4431 0.0638237 12.3634 0.0638241 11.9575 0.303114C11.1277 0.792301 10.8584 1.86577 11.359 2.68874C11.6039 3.0913 12.5558 3.60094 14.4594 4.62021C14.6385 4.71609 14.728 4.76404 14.81 4.82094C14.9727 4.93394 15.1148 5.0741 15.23 5.23529C15.288 5.31644 15.3377 5.40636 15.4372 5.5862C16.7423 7.94616 17.3948 9.12613 17.9483 9.35809C18.6633 9.65778 19.4904 9.4443 19.9711 8.83601C20.3431 8.36519 20.3431 7.0335 20.3431 4.37013V2.9505Z" fill="white"/>
<path d="M9.23599 14.3942C9.23599 13.3105 9.23599 12.7686 9.00144 12.3657C8.85103 12.1074 8.63615 11.8925 8.37781 11.7421C7.97494 11.5075 7.43306 11.5075 6.34931 11.5075H4.49529C2.33595 11.5075 1.25628 11.5075 0.850362 11.7468C0.0205236 12.236 -0.248776 13.3095 0.251885 14.1325C0.496788 14.535 1.44861 15.0447 3.35224 16.0639C3.53133 16.1598 3.62087 16.2078 3.70281 16.2647C3.86554 16.3777 4.00762 16.5178 4.12282 16.679C4.18083 16.7602 4.23056 16.8501 4.33001 17.0299C5.63514 19.3899 6.2877 20.5699 6.84112 20.8018C7.55615 21.1015 8.38327 20.888 8.86395 20.2797C9.23599 19.8089 9.23599 18.4772 9.23599 15.8138V14.3942Z" fill="white"/>
<path d="M20.3431 18.0495C20.3431 19.1332 20.3431 19.6751 20.1086 20.078C19.9582 20.3363 19.7433 20.5512 19.485 20.7016C19.0821 20.9362 18.5402 20.9362 17.4565 20.9362H15.6024C13.4431 20.9362 12.3634 20.9362 11.9575 20.6969C11.1277 20.2077 10.8584 19.1342 11.359 18.3113C11.6039 17.9087 12.5558 17.3991 14.4594 16.3798C14.6385 16.2839 14.728 16.236 14.81 16.1791C14.9727 16.0661 15.1148 15.9259 15.23 15.7647C15.288 15.6836 15.3377 15.5936 15.4372 15.4138C16.7423 13.0538 17.3948 11.8739 17.9483 11.6419C18.6633 11.3422 19.4904 11.5557 19.9711 12.164C20.3431 12.6348 20.3431 13.9665 20.3431 16.6299V18.0495Z" fill="white"/>
<path d="M30.0512 5.91276C28.8276 5.91276 28.014 5.16535 28.014 4.10045H29.0789C29.0789 4.62298 29.4427 4.99338 30.0446 4.99338C30.4811 4.99338 30.8185 4.79495 30.8185 4.39809C30.8185 3.96817 30.4216 3.80943 29.8594 3.57793C28.8937 3.18107 28.1265 2.90989 28.1265 1.96405C28.1265 0.998364 28.9599 0.475837 29.9123 0.475837C31.0037 0.475837 31.6585 1.17034 31.6585 2.14263H30.6333C30.6333 1.69948 30.3356 1.40183 29.8925 1.40183C29.4824 1.40183 29.1914 1.65979 29.1914 1.96405C29.1914 2.3609 29.6676 2.48657 30.4018 2.76437C31.2682 3.08847 31.89 3.44564 31.89 4.3518C31.89 5.35055 31.1095 5.91276 30.0512 5.91276ZM34.6019 5.91276C33.2725 5.91276 32.3465 5.01984 32.3465 3.69037C32.3465 2.36752 33.2725 1.46798 34.6019 1.46798C35.9314 1.46798 36.8574 2.36752 36.8574 3.69037C36.8574 5.01984 35.9314 5.91276 34.6019 5.91276ZM33.4047 3.69037C33.4047 4.46424 33.9008 4.98015 34.6019 4.98015C35.3097 4.98015 35.8057 4.46424 35.8057 3.69037C35.8057 2.92311 35.3097 2.40059 34.6019 2.40059C33.9008 2.40059 33.4047 2.92311 33.4047 3.69037ZM37.5765 5.84V0.548595H38.6083V5.84H37.5765ZM41.389 5.91276C40.2249 5.91276 39.332 5.01322 39.332 3.68375C39.332 2.3609 40.2249 1.46798 41.389 1.46798C41.9644 1.46798 42.4407 1.69286 42.7648 2.07649V1.54073H43.7834V5.84H42.7648V5.29763C42.4407 5.68788 41.9644 5.91276 41.389 5.91276ZM40.3836 3.68375C40.3836 4.45762 40.8797 4.97354 41.5808 4.97354C42.2819 4.97354 42.778 4.45762 42.778 3.68375C42.778 2.9165 42.2819 2.4072 41.5808 2.4072C40.8797 2.4072 40.3836 2.9165 40.3836 3.68375ZM44.7687 5.84V1.54073H45.7939V2.08972C45.8997 1.83176 46.2966 1.46798 46.9778 1.46798C47.9567 1.46798 48.7108 2.222 48.7108 3.33981V5.84H47.6789V3.35966C47.6789 2.7776 47.3019 2.38736 46.7397 2.38736C46.1775 2.38736 45.8005 2.7776 45.8005 3.35966V5.84H44.7687ZM51.3586 5.91276C50.1945 5.91276 49.3016 5.01322 49.3016 3.68375C49.3016 2.3609 50.1945 1.46798 51.3586 1.46798C51.9341 1.46798 52.4103 1.69286 52.7344 2.07649V1.54073H53.753V5.84H52.7344V5.29763C52.4103 5.68788 51.9341 5.91276 51.3586 5.91276ZM50.3533 3.68375C50.3533 4.45762 50.8493 4.97354 51.5505 4.97354C52.2516 4.97354 52.7476 4.45762 52.7476 3.68375C52.7476 2.9165 52.2516 2.4072 51.5505 2.4072C50.8493 2.4072 50.3533 2.9165 50.3533 3.68375Z" fill="white"/>
<path d="M33.0011 20.3246C30.3678 20.3246 28.3479 18.2897 28.3479 15.2824C28.3479 12.2899 30.3678 10.2701 33.0011 10.2701C34.3028 10.2701 35.3801 10.7788 36.1133 11.6466V10.4346H38.4174V20.16H36.1133V18.9331C35.3801 19.8159 34.3028 20.3246 33.0011 20.3246ZM30.7269 15.2824C30.7269 17.0329 31.8491 18.2 33.435 18.2C35.021 18.2 36.1432 17.0329 36.1432 15.2824C36.1432 13.5468 35.021 12.3947 33.435 12.3947C31.8491 12.3947 30.7269 13.5468 30.7269 15.2824ZM40.6463 23.1524V10.4346H42.9355V11.6466C43.6686 10.7788 44.7459 10.2701 46.0476 10.2701C48.6809 10.2701 50.7008 12.3049 50.7008 15.2973C50.7008 18.3047 48.6809 20.3246 46.0476 20.3246C44.7609 20.3246 43.6986 19.8308 42.9654 18.978V23.1524H40.6463ZM42.9056 15.2973C42.9056 17.0479 44.0277 18.2 45.6137 18.2C47.1997 18.2 48.3219 17.0479 48.3219 15.2973C48.3219 13.5617 47.1997 12.3947 45.6137 12.3947C44.0277 12.3947 42.9056 13.5617 42.9056 15.2973ZM52.3316 23.1524V10.4346H54.6208V11.6466C55.3539 10.7788 56.4312 10.2701 57.7329 10.2701C60.3662 10.2701 62.3861 12.3049 62.3861 15.2973C62.3861 18.3047 60.3662 20.3246 57.7329 20.3246C56.4462 20.3246 55.3838 19.8308 54.6507 18.978V23.1524H52.3316ZM54.5909 15.2973C54.5909 17.0479 55.713 18.2 57.299 18.2C58.885 18.2 60.0071 17.0479 60.0071 15.2973C60.0071 13.5617 58.885 12.3947 57.299 12.3947C55.713 12.3947 54.5909 13.5617 54.5909 15.2973ZM67.1525 20.16V8.19033H69.4865V14.2799L72.853 10.4346H75.7557L71.671 15.043L76.0549 20.16H73.1373L69.4865 15.8808V20.16H67.1525ZM77.0844 20.16V11.7214H79.4184V20.16H77.0844ZM77.0844 10.285V8.19033H79.4184V10.285H77.0844ZM82.5516 20.16V12.5293H80.7562V10.4346H82.5516V8.19033H84.8857V10.4346H86.6662V12.5293H84.8857V20.16H82.5516Z" fill="white"/>
</svg>
