<svg width="430" height="284" viewBox="0 0 430 284" fill="none" xmlns="http://www.w3.org/2000/svg">
<g clip-path="url(#clip0_140_154)">
<rect x="0.284668" y="0.42041" width="429.715" height="282.643" rx="24" fill="url(#paint0_linear_140_154)"/>
<path fill-rule="evenodd" clip-rule="evenodd" d="M-382.663 114.624C-377.62 103.851 -364.799 99.2062 -354.026 104.249L-313.512 123.214C-302.74 128.257 -298.094 141.078 -303.137 151.851L-324.811 198.152C-329.854 208.925 -342.675 213.57 -353.448 208.527C-359.772 205.567 -363.984 199.927 -365.365 193.594C-371.028 200.492 -375.109 208.389 -376.87 217.407C-381.601 241.638 -371.246 261.941 -361.259 271.425C-352.634 279.616 -352.281 293.248 -360.472 301.873C-368.663 310.499 -382.295 310.851 -390.92 302.66C-410.231 284.322 -427.04 249.582 -419.146 209.152C-413.57 180.595 -396.077 160.34 -378.307 146.87C-376.514 145.511 -374.706 144.211 -372.891 142.968C-383.232 137.736 -387.611 125.194 -382.663 114.624ZM-282.306 191.217C-290.932 183.026 -291.284 169.394 -283.093 160.769C-274.902 152.144 -261.27 151.791 -252.645 159.982C-233.334 178.32 -216.525 213.06 -224.419 253.49C-229.995 282.047 -247.488 302.303 -265.258 315.772C-267.051 317.131 -268.86 318.431 -270.675 319.674C-260.333 324.906 -255.954 337.448 -260.902 348.018C-265.945 358.791 -278.766 363.436 -289.539 358.393L-330.053 339.428C-340.826 334.386 -345.471 321.564 -340.428 310.791L-318.754 264.49C-313.711 253.717 -300.89 249.072 -290.117 254.115C-283.793 257.075 -279.581 262.715 -278.2 269.049C-272.537 262.15 -268.456 254.253 -266.695 245.235C-261.964 221.004 -272.319 200.701 -282.306 191.217ZM-135.503 -74.6363C-147.264 -70.0617 -153.144 -67.7744 -157.339 -63.5793C-158.791 -62.127 -160.08 -60.5205 -161.183 -58.7884C-164.37 -53.7849 -165.325 -47.5821 -167.233 -35.1765C-169.142 -22.7709 -170.096 -16.5681 -173.283 -11.5646C-174.386 -9.83244 -175.676 -8.22596 -177.128 -6.77369C-181.322 -2.57857 -187.171 -0.303582 -198.869 4.24635C-210.567 8.7963 -216.416 11.0713 -220.61 15.2664C-222.062 16.7187 -223.351 18.3252 -224.455 20.0573C-227.642 25.0608 -228.601 31.2972 -230.52 43.7699C-232.47 56.4417 -233.444 62.7776 -231.845 68.5908C-231.334 70.4515 -230.632 72.2546 -229.752 73.9721C-227.003 79.3381 -222.01 83.3448 -212.024 91.3582C-202.11 99.3138 -197.153 103.292 -194.408 108.613C-193.512 110.35 -192.799 112.175 -192.28 114.06C-190.691 119.833 -191.634 126.092 -193.522 138.611C-195.409 151.13 -196.352 157.389 -194.763 163.162C-194.244 165.046 -193.531 166.872 -192.635 168.609C-189.89 173.93 -184.913 177.924 -174.959 185.912C-165.005 193.899 -160.028 197.893 -154.239 199.421C-152.349 199.92 -150.412 200.221 -148.46 200.319C-142.48 200.62 -136.574 198.343 -124.761 193.79C-112.948 189.236 -107.041 186.959 -101.062 187.26C-99.1092 187.359 -97.1725 187.66 -95.2824 188.158C-89.4932 189.686 -84.5363 193.664 -74.6224 201.619C-64.6366 209.633 -59.6436 213.64 -53.8095 215.161C-51.9423 215.648 -50.03 215.943 -48.1027 216.039C-42.081 216.341 -36.1066 214.018 -24.1578 209.37C-12.3967 204.796 -6.51614 202.508 -2.32158 198.313C-0.86953 196.861 0.419647 195.254 1.52299 193.522C4.7101 188.519 5.66439 182.316 7.5729 169.91C9.48143 157.505 10.4357 151.302 13.6228 146.298C14.7261 144.566 16.0153 142.96 17.4674 141.508C21.662 137.312 27.5109 135.037 39.2087 130.487C50.9065 125.938 56.7554 123.663 60.95 119.467C62.402 118.015 63.6912 116.409 64.7945 114.677C67.9816 109.673 68.9411 103.437 70.8599 90.9639C72.8094 78.2922 73.7841 71.9563 72.185 66.143C71.6732 64.2824 70.9718 62.4792 70.0919 60.7617C67.3428 55.3957 62.3698 51.405 52.4237 43.4236C42.4778 35.4422 37.5049 31.4516 34.7557 26.0856C33.8758 24.3682 33.1744 22.565 32.6626 20.7043C31.0635 14.891 32.033 8.58901 33.972 -4.01499C35.911 -16.619 36.8805 -22.921 35.2814 -28.7343C34.7695 -30.5949 34.0681 -32.3981 33.1882 -34.1156C30.4391 -39.4816 25.4661 -43.4722 15.5201 -51.4536C5.57419 -59.435 0.60123 -63.4256 -5.23269 -64.9474C-7.10009 -65.4345 -9.01252 -65.7287 -10.94 -65.8255C-16.9615 -66.1276 -22.9039 -63.8162 -34.7888 -59.1935C-46.6737 -54.5708 -52.6161 -52.2594 -58.6377 -52.5616C-60.5652 -52.6583 -62.4776 -52.9525 -64.345 -53.4396C-70.179 -54.9614 -75.1519 -58.9521 -85.0977 -66.9335C-95.0437 -74.9149 -100.017 -78.9056 -105.851 -80.4274C-107.718 -80.9145 -109.63 -81.2087 -111.558 -81.3055C-117.579 -81.6076 -123.554 -79.2838 -135.503 -74.6363ZM-29.7117 75.1806C-31.6088 87.5122 -32.5574 93.678 -35.6963 98.6469C-36.8462 100.467 -38.2007 102.15 -39.7333 103.662C-43.9168 107.79 -49.7215 110.027 -61.3304 114.502L-61.3312 114.502L-61.332 114.502C-72.8643 118.947 -78.6304 121.17 -84.4679 120.934C-86.6066 120.847 -88.7284 120.517 -90.7926 119.951C-96.4265 118.404 -101.246 114.537 -110.886 106.801L-111.603 106.226C-121.242 98.4904 -126.062 94.6227 -128.792 89.4573C-129.792 87.5649 -130.573 85.5648 -131.121 83.4957C-132.616 77.848 -131.695 71.7373 -129.853 59.516C-127.999 47.2123 -127.071 41.0605 -123.948 36.0821C-122.803 34.2584 -121.454 32.5717 -119.926 31.055C-115.755 26.9143 -109.941 24.6529 -98.3129 20.1301C-86.6305 15.5862 -80.7893 13.3142 -74.8865 13.5617C-72.8034 13.6491 -70.7363 13.9671 -68.7233 14.5099C-63.019 16.0481 -58.0775 20.0136 -48.1945 27.9445C-38.3117 35.8753 -33.3702 39.8407 -30.6332 45.0764C-29.6673 46.9241 -28.9092 48.8731 -28.3728 50.8878C-26.8528 56.5969 -27.8058 62.7915 -29.7117 75.1806ZM34.2968 239.151C45.7426 237.897 55.9629 246.098 76.4035 262.501L87.8815 271.712C108.322 288.115 118.542 296.317 119.797 307.763C121.051 319.208 112.85 329.429 96.4465 349.869L87.2357 361.347C70.8327 381.788 62.6312 392.008 51.1854 393.262C39.7395 394.517 29.5192 386.315 9.07865 369.912L-2.39929 360.701C-22.8399 344.298 -33.0602 336.097 -34.3145 324.651C-35.5688 313.205 -27.3673 302.985 -10.9643 282.544L-1.75354 271.066C14.6494 250.626 22.851 240.406 34.2968 239.151ZM76.6908 226.727C78.8461 236.159 87.5256 243.124 104.885 257.054C122.243 270.984 130.923 277.949 140.598 278.011C142.741 278.024 144.878 277.79 146.967 277.313C156.4 275.157 163.365 266.478 177.295 249.119C191.225 231.76 198.19 223.081 198.251 213.405C198.265 211.263 198.031 209.125 197.553 207.036C195.398 197.604 186.719 190.639 169.36 176.709C152.001 162.779 143.321 155.814 133.646 155.752C131.503 155.739 129.366 155.973 127.277 156.45C117.844 158.606 110.879 167.285 96.9494 184.644C83.0193 202.003 76.0542 210.682 75.9928 220.358C75.9792 222.501 76.2134 224.638 76.6908 226.727ZM171.809 300.319C173.063 311.764 183.284 319.966 203.724 336.369L215.202 345.58C235.643 361.983 245.863 370.184 257.309 368.93C268.755 367.675 276.956 357.455 293.359 337.015L302.57 325.537C318.973 305.096 327.175 294.876 325.92 283.43C324.666 271.984 314.446 263.783 294.005 247.38L282.527 238.169C262.087 221.766 251.866 213.564 240.42 214.819C228.975 216.073 220.773 226.293 204.37 246.734L195.159 258.212C178.756 278.652 170.555 288.873 171.809 300.319ZM116.574 388.889C118.759 391.892 122.169 394.628 128.989 400.101C135.808 405.574 139.218 408.311 142.624 409.793C151.66 413.727 162.103 412.582 170.072 406.785C173.076 404.6 175.812 401.19 181.285 394.37L181.285 394.37C186.758 387.55 189.494 384.14 190.977 380.735C194.91 371.699 193.766 361.256 187.969 353.287C185.784 350.283 182.374 347.547 175.554 342.074C168.734 336.601 165.324 333.865 161.919 332.382C152.883 328.449 142.44 329.593 134.47 335.39C131.467 337.575 128.73 340.985 123.258 347.805C117.785 354.625 115.048 358.035 113.566 361.44C109.632 370.476 110.777 380.919 116.574 388.889ZM-79.0586 282.484C-75.1609 250.527 -115.599 233.487 -135.748 258.596L-199.416 337.936C-210.47 351.711 -208.265 371.84 -194.489 382.895L-113.718 447.712C-88.7229 467.769 -53.0426 442.686 -63.4556 412.377L-84.2719 351.788C-85.8453 347.209 -86.3582 342.332 -85.772 337.525L-79.0586 282.484ZM140.132 95.93C144.7 100.312 151.902 100.162 166.307 99.8622L310.863 96.8542C325.267 96.5545 332.469 96.4046 336.851 91.8366C341.233 87.2686 341.083 80.0663 340.783 65.6618L340.099 32.7547C339.937 24.9984 339.857 21.1203 342.216 18.6606C344.576 16.2009 348.454 16.1201 356.21 15.9587L372.664 15.6164C387.068 15.3167 394.27 15.1668 398.652 10.5988C403.034 6.03071 402.884 -1.17155 402.584 -15.576L401.899 -48.4832C401.738 -56.2394 401.657 -60.1176 404.017 -62.5773C406.376 -65.037 410.254 -65.1177 418.011 -65.2791L432.114 -65.5725C446.518 -65.8723 453.72 -66.0221 458.102 -70.5902C462.484 -75.1582 462.334 -82.3604 462.034 -96.765L461.643 -115.569C461.343 -129.974 461.194 -137.176 456.626 -141.558C452.058 -145.939 444.855 -145.79 430.451 -145.49L285.895 -142.482C271.49 -142.182 264.288 -142.032 259.906 -137.464C255.524 -132.896 255.674 -125.694 255.974 -111.289L256.659 -78.3823C256.82 -70.626 256.901 -66.7479 254.541 -64.2881C252.182 -61.8284 248.304 -61.7477 240.547 -61.5863L226.444 -61.2929C212.04 -60.9931 204.838 -60.8433 200.456 -56.2753C196.074 -51.7072 196.224 -44.505 196.524 -30.1005L197.208 2.80665L197.208 2.80697C197.37 10.563 197.45 14.4411 195.091 16.9008C192.732 19.3605 188.853 19.4412 181.097 19.6026L164.644 19.9449C150.239 20.2447 143.037 20.3946 138.655 24.9626C134.273 29.5306 134.423 36.7329 134.723 51.1374L135.114 69.9414C135.414 84.3459 135.564 91.5482 140.132 95.93Z" fill="url(#paint1_linear_140_154)" fill-opacity="0.1"/>
<path d="M295.596 39.6484C289.266 39.2055 283.806 38.8235 279.318 38.9652C274.558 39.1155 269.834 39.8589 265.382 42.4034C262.097 44.281 259.214 46.7873 256.897 49.7791C253.758 53.8336 252.364 58.4083 251.553 63.1004C250.788 67.5255 250.407 72.9849 249.964 79.3156L249.899 80.2461C249.456 86.5767 249.074 92.036 249.216 96.5246C249.366 101.284 250.11 106.008 252.654 110.46C254.532 113.745 257.038 116.628 260.03 118.945C264.084 122.084 268.659 123.478 273.351 124.289C277.776 125.054 283.236 125.436 289.566 125.878L290.497 125.943C296.827 126.386 302.287 126.768 306.775 126.626C311.535 126.476 316.259 125.732 320.711 123.188C323.996 121.31 326.879 118.804 329.196 115.812C332.335 111.758 333.729 107.183 334.54 102.491C335.305 98.0659 335.686 92.6065 336.129 86.2758L336.194 85.3454C336.637 79.0147 337.019 73.5554 336.877 69.0669C336.727 64.3075 335.983 59.5834 333.439 55.1314C331.561 51.8463 329.055 48.9632 326.063 46.6466C322.009 43.5073 317.434 42.1136 312.742 41.3024C308.317 40.5374 302.858 40.1559 296.527 39.7135L295.596 39.6484Z" fill="url(#paint2_linear_140_154)"/>
<path d="M373.09 223.184C372.658 229.357 377.313 234.711 383.486 235.143C389.66 235.575 395.014 230.92 395.446 224.747L397.009 202.391L419.365 203.954C425.538 204.386 430.893 199.731 431.325 193.558C431.756 187.385 427.102 182.03 420.928 181.599L398.572 180.035L400.136 157.679C400.567 151.506 395.913 146.152 389.739 145.72C383.566 145.288 378.212 149.943 377.78 156.116L376.217 178.472L353.861 176.909C347.687 176.477 342.333 181.132 341.901 187.305C341.47 193.478 346.124 198.833 352.298 199.265L374.653 200.828L373.09 223.184Z" fill="url(#paint3_linear_140_154)"/>
<path d="M288.561 140.25C282.231 139.807 276.771 139.425 272.283 139.566C267.524 139.717 262.799 140.46 258.347 143.005C255.062 144.882 252.179 147.388 249.863 150.38C246.723 154.435 245.33 159.009 244.518 163.702C243.753 168.127 243.372 173.586 242.929 179.917L242.864 180.847C242.421 187.178 242.039 192.637 242.181 197.126C242.331 201.885 243.075 206.609 245.619 211.061C247.497 214.346 250.003 217.229 252.995 219.546C257.05 222.685 261.624 224.079 266.316 224.89C270.742 225.655 276.201 226.037 282.532 226.479L283.462 226.544C289.793 226.987 295.252 227.369 299.741 227.227C304.5 227.077 309.224 226.334 313.676 223.789C316.961 221.912 319.844 219.405 322.161 216.413C325.3 212.359 326.694 207.784 327.505 203.092C328.27 198.667 328.652 193.208 329.094 186.877L329.159 185.946C329.602 179.616 329.984 174.157 329.842 169.668C329.692 164.909 328.949 160.184 326.404 155.733C324.526 152.447 322.02 149.564 319.028 147.248C314.974 144.108 310.399 142.715 305.707 141.904C301.282 141.139 295.823 140.757 289.493 140.315L288.561 140.25Z" fill="url(#paint4_linear_140_154)"/>
<path d="M396.197 46.6831C389.867 46.2402 384.407 45.8582 379.919 45.9999C375.159 46.1502 370.435 46.8936 365.983 49.4381C362.698 51.3157 359.815 53.822 357.499 56.8138C354.359 60.8683 352.965 65.443 352.154 70.1352C351.389 74.5602 351.008 80.0195 350.565 86.3501L350.5 87.2808C350.057 93.6113 349.675 99.0708 349.817 103.559C349.967 108.319 350.711 113.043 353.255 117.495C355.133 120.78 357.639 123.663 360.631 125.979C364.685 129.119 369.26 130.513 373.952 131.324C378.377 132.089 383.837 132.47 390.167 132.913L391.098 132.978C397.429 133.421 402.888 133.803 407.376 133.661C412.136 133.511 416.86 132.767 421.312 130.223C424.597 128.345 427.48 125.839 429.797 122.847C432.936 118.793 434.33 114.218 435.141 109.526C435.906 105.101 436.287 99.6412 436.73 93.3105L436.795 92.3801C437.238 86.0494 437.62 80.5901 437.478 76.1016C437.328 71.3422 436.584 66.6181 434.04 62.1661C432.162 58.881 429.656 55.9979 426.664 53.6814C422.61 50.542 418.035 49.1483 413.343 48.3371C408.918 47.5721 403.459 47.1906 397.128 46.7482L396.197 46.6831Z" fill="url(#paint5_linear_140_154)"/>
<path d="M25.7193 202.282V189.299C25.7193 188.795 25.9963 188.518 26.5006 188.518H31.1739C34.519 188.518 36.3017 190.556 36.3017 193.333C36.3017 196.132 34.4977 198.149 31.1384 198.149H28.3543V202.282C28.3543 202.786 28.0773 203.063 27.573 203.063H26.5006C25.9963 203.063 25.7193 202.786 25.7193 202.282ZM28.3543 195.983H30.7832C32.7435 195.983 33.6171 194.882 33.6171 193.333C33.6171 191.785 32.7435 190.72 30.769 190.72H28.3543V195.983ZM45.2099 198.475V192.936C45.2099 192.431 45.4869 192.154 45.9912 192.154H46.9997C47.5039 192.154 47.7809 192.431 47.7809 192.936V202.282C47.7809 202.786 47.5039 203.063 46.9997 203.063H46.0693C45.565 203.063 45.288 202.786 45.288 202.282V201.125H45.1744C44.6772 202.346 43.5267 203.206 41.8931 203.206C39.7483 203.206 38.2568 201.721 38.2568 199.1V192.936C38.2568 192.431 38.5338 192.154 39.038 192.154H40.0466C40.5508 192.154 40.8278 192.431 40.8278 192.936V198.703C40.8278 200.088 41.6517 200.961 42.8875 200.961C44.0238 200.961 45.2099 200.137 45.2099 198.475ZM50.3184 202.282V189.299C50.3184 188.795 50.5954 188.518 51.0996 188.518H52.1082C52.6124 188.518 52.8894 188.795 52.8894 189.299V193.958H52.9959C53.3866 193.17 54.1891 192.012 56.1138 192.012C58.6351 192.012 60.6167 193.987 60.6167 197.623C60.6167 201.217 58.692 203.255 56.1209 203.255C54.2459 203.255 53.4008 202.14 52.9959 201.345H52.8468V202.282C52.8468 202.786 52.5698 203.063 52.0655 203.063H51.0996C50.5954 203.063 50.3184 202.786 50.3184 202.282ZM52.8397 197.609C52.8397 199.725 53.763 201.146 55.4036 201.146C57.1011 201.146 57.9959 199.654 57.9959 197.609C57.9959 195.578 57.1153 194.122 55.4036 194.122C53.7488 194.122 52.8397 195.492 52.8397 197.609ZM65.1534 189.299V202.282C65.1534 202.786 64.8764 203.063 64.3722 203.063H63.3637C62.8594 203.063 62.5824 202.786 62.5824 202.282V189.299C62.5824 188.795 62.8594 188.518 63.3637 188.518H64.3722C64.8764 188.518 65.1534 188.795 65.1534 189.299ZM68.8699 190.606C68.046 190.606 67.3784 189.981 67.3784 189.214C67.3784 188.44 68.046 187.815 68.8699 187.815C69.6866 187.815 70.3542 188.44 70.3542 189.214C70.3542 189.981 69.6866 190.606 68.8699 190.606ZM67.5772 202.282V192.936C67.5772 192.431 67.8542 192.154 68.3585 192.154H69.367C69.8713 192.154 70.1483 192.431 70.1483 192.936V202.282C70.1483 202.786 69.8713 203.063 69.367 203.063H68.3585C67.8542 203.063 67.5772 202.786 67.5772 202.282ZM80.3349 195.13L79.5181 195.223C79.0707 195.272 78.8292 195.073 78.5664 194.697C78.2397 194.257 77.6786 193.93 76.8406 193.93C75.7681 193.93 74.9514 194.441 74.9585 195.18C74.9514 195.812 75.3917 196.196 76.4997 196.444L78.3604 196.842C80.4201 197.289 81.4215 198.241 81.4286 199.796C81.4215 201.863 79.4968 203.277 76.7695 203.277C74.4826 203.277 72.9201 202.41 72.3164 200.904C72.1104 200.4 72.4087 200.052 72.9414 200.002L73.9144 199.91C74.369 199.867 74.6033 200.073 74.8519 200.471C75.2141 201.046 75.8676 201.338 76.7624 201.338C77.984 201.338 78.7937 200.777 78.7937 200.031C78.7937 199.413 78.3249 199.008 77.3235 198.788L75.4627 198.397C73.3676 197.964 72.3874 196.913 72.3945 195.322C72.3874 193.305 74.1772 192.012 76.8051 192.012C78.957 192.012 80.3491 192.85 80.9457 194.214C81.1587 194.718 80.8747 195.073 80.3349 195.13ZM85.8997 196.671V202.282C85.8997 202.786 85.6227 203.063 85.1184 203.063H84.1099C83.6056 203.063 83.3287 202.786 83.3287 202.282V189.299C83.3287 188.795 83.6056 188.518 84.1099 188.518H85.0616C85.5659 188.518 85.8429 188.795 85.8429 189.299V194.008H85.9707C86.475 192.772 87.5403 192.012 89.2164 192.012C91.4821 192.012 92.9735 193.483 92.9735 196.117V202.282C92.9735 202.786 92.6966 203.063 92.1923 203.063H91.1838C90.6795 203.063 90.4025 202.786 90.4025 202.282V196.515C90.4025 195.045 89.6071 194.186 88.2576 194.186C86.8798 194.186 85.8997 195.095 85.8997 196.671ZM105.563 192.936V193.362C105.563 193.866 105.286 194.143 104.781 194.143H103.411V199.782C103.411 200.819 103.929 201.046 104.575 201.046H104.59C104.838 201.046 105.378 201.196 105.485 201.679L105.598 202.204C105.705 202.694 105.513 203.056 105.016 203.142C104.796 203.177 104.54 203.206 104.249 203.213C102.317 203.269 100.825 202.261 100.84 200.208V194.143H100.073C99.5683 194.143 99.2914 193.866 99.2914 193.362V192.936C99.2914 192.431 99.5683 192.154 100.065 192.154H100.84V190.322C100.84 189.818 101.117 189.541 101.621 189.541H102.629C103.134 189.541 103.411 189.818 103.411 190.322V192.154H104.781C105.286 192.154 105.563 192.431 105.563 192.936ZM112.134 203.277C108.938 203.277 106.907 201.025 106.907 197.652C106.907 194.271 108.938 192.012 112.134 192.012C115.33 192.012 117.361 194.271 117.361 197.652C117.361 201.025 115.33 203.277 112.134 203.277ZM112.148 201.217C113.888 201.217 114.755 199.64 114.755 197.644C114.755 195.649 113.888 194.051 112.148 194.051C110.38 194.051 109.513 195.649 109.513 197.644C109.513 199.64 110.38 201.217 112.148 201.217ZM133.788 192.517H132.772C132.31 192.517 132.097 192.289 131.906 191.856C131.529 191.025 130.606 190.549 129.342 190.549C127.694 190.549 126.714 191.352 126.707 192.446C126.692 193.66 127.985 194.164 129.178 194.448L130.542 194.789C132.729 195.308 134.81 196.458 134.817 198.98C134.81 201.544 132.786 203.284 129.299 203.284C126.245 203.284 124.2 201.963 123.745 199.59C123.646 199.065 123.958 198.767 124.484 198.767H125.542C126.011 198.767 126.224 199.008 126.387 199.456C126.785 200.514 127.9 201.032 129.278 201.032C130.996 201.032 132.175 200.201 132.182 198.958C132.175 197.829 131.138 197.339 129.569 196.941L127.914 196.515C125.521 195.897 124.036 194.697 124.036 192.609C124.029 190.038 126.323 188.319 129.377 188.319C132.119 188.319 134.072 189.683 134.519 191.693C134.633 192.211 134.313 192.517 133.788 192.517ZM141.591 203.277C138.395 203.277 136.364 201.025 136.364 197.652C136.364 194.271 138.395 192.012 141.591 192.012C144.787 192.012 146.819 194.271 146.819 197.652C146.819 201.025 144.787 203.277 141.591 203.277ZM141.606 201.217C143.346 201.217 144.212 199.64 144.212 197.644C144.212 195.649 143.346 194.051 141.606 194.051C139.837 194.051 138.971 195.649 138.971 197.644C138.971 199.64 139.837 201.217 141.606 201.217ZM151.352 189.299V202.282C151.352 202.786 151.075 203.063 150.571 203.063H149.562C149.058 203.063 148.781 202.786 148.781 202.282V189.299C148.781 188.795 149.058 188.518 149.562 188.518H150.571C151.075 188.518 151.352 188.795 151.352 189.299ZM156.915 203.284C154.834 203.284 153.264 202.147 153.264 200.002C153.264 197.545 155.288 196.913 157.405 196.686C159.33 196.48 160.104 196.444 160.104 195.706V195.663C160.104 194.59 159.45 193.98 158.257 193.98C157.341 193.98 156.709 194.321 156.332 194.789C156.056 195.152 155.807 195.336 155.359 195.272L154.5 195.152C153.953 195.073 153.69 194.697 153.953 194.2C154.727 192.751 156.29 192.012 158.243 192.012C160.324 192.012 162.675 192.879 162.675 195.762V202.282C162.675 202.786 162.398 203.063 161.894 203.063H160.984C160.48 203.063 160.203 202.794 160.203 202.311V201.565H160.118C159.649 202.481 158.627 203.284 156.915 203.284ZM157.582 201.394C159.131 201.394 160.111 200.365 160.111 199.15V197.865C159.777 198.134 158.428 198.305 157.753 198.397C156.602 198.561 155.743 198.973 155.743 199.96C155.743 200.904 156.51 201.394 157.582 201.394ZM167.611 196.671V202.282C167.611 202.786 167.334 203.063 166.83 203.063H165.821C165.317 203.063 165.04 202.786 165.04 202.282V192.936C165.04 192.431 165.317 192.154 165.821 192.154H166.716C167.22 192.154 167.497 192.431 167.497 192.936V194.008H167.625C168.122 192.794 169.245 192.012 170.878 192.012C173.13 192.012 174.621 193.504 174.614 196.117V202.282C174.614 202.786 174.337 203.063 173.833 203.063H172.824C172.32 203.063 172.043 202.786 172.043 202.282V196.515C172.043 195.059 171.247 194.186 169.919 194.186C168.563 194.186 167.611 195.095 167.611 196.671ZM180.147 203.284C178.066 203.284 176.496 202.147 176.496 200.002C176.496 197.545 178.52 196.913 180.637 196.686C182.562 196.48 183.336 196.444 183.336 195.706V195.663C183.336 194.59 182.682 193.98 181.489 193.98C180.573 193.98 179.941 194.321 179.564 194.789C179.287 195.152 179.039 195.336 178.591 195.272L177.732 195.152C177.185 195.073 176.922 194.697 177.185 194.2C177.959 192.751 179.522 192.012 181.475 192.012C183.556 192.012 185.907 192.879 185.907 195.762V202.282C185.907 202.786 185.63 203.063 185.125 203.063H184.216C183.712 203.063 183.435 202.794 183.435 202.311V201.565H183.35C182.881 202.481 181.858 203.284 180.147 203.284ZM180.814 201.394C182.363 201.394 183.343 200.365 183.343 199.15V197.865C183.009 198.134 181.66 198.305 180.985 198.397C179.834 198.561 178.975 198.973 178.975 199.96C178.975 200.904 179.742 201.394 180.814 201.394ZM26.5006 218.518H28.2903C28.7378 218.518 29.0219 218.703 29.1923 219.122L33.2619 229.058H33.4324L37.502 219.122C37.6725 218.703 37.9565 218.518 38.404 218.518H40.1938C40.698 218.518 40.975 218.795 40.975 219.299V232.282C40.975 232.786 40.698 233.063 40.1938 233.063H39.2278C38.7236 233.063 38.4466 232.786 38.4466 232.282V223.071H38.3117L34.5403 232.41C34.3699 232.822 34.0858 233.021 33.6384 233.021H33.056C32.6085 233.021 32.3173 232.822 32.154 232.41L28.3827 223.049H28.2477V232.282C28.2477 232.786 27.9707 233.063 27.4665 233.063H26.5006C25.9963 233.063 25.7193 232.786 25.7193 232.282V219.299C25.7193 218.795 25.9963 218.518 26.5006 218.518ZM48.2692 233.277C45.0732 233.277 43.0419 231.025 43.0419 227.652C43.0419 224.271 45.0732 222.012 48.2692 222.012C51.4652 222.012 53.4965 224.271 53.4965 227.652C53.4965 231.025 51.4652 233.277 48.2692 233.277ZM48.2834 231.217C50.0235 231.217 50.89 229.64 50.89 227.644C50.89 225.649 50.0235 224.051 48.2834 224.051C46.515 224.051 45.6485 225.649 45.6485 227.644C45.6485 229.64 46.515 231.217 48.2834 231.217ZM55.5723 232.282V219.299C55.5723 218.795 55.8493 218.518 56.3535 218.518H57.3621C57.8663 218.518 58.1433 218.795 58.1433 219.299V223.958H58.2499C58.6405 223.17 59.443 222.012 61.3677 222.012C63.8891 222.012 65.8706 223.987 65.8706 227.623C65.8706 231.217 63.9459 233.255 61.3749 233.255C59.4999 233.255 58.6547 232.14 58.2499 231.345H58.1007V232.282C58.1007 232.786 57.8237 233.063 57.3195 233.063H56.3535C55.8493 233.063 55.5723 232.786 55.5723 232.282ZM58.0936 227.609C58.0936 229.725 59.0169 231.146 60.6575 231.146C62.355 231.146 63.2499 229.654 63.2499 227.609C63.2499 225.578 62.3692 224.122 60.6575 224.122C59.0027 224.122 58.0936 225.492 58.0936 227.609ZM69.1289 220.606C68.3051 220.606 67.6374 219.981 67.6374 219.214C67.6374 218.44 68.3051 217.815 69.1289 217.815C69.9457 217.815 70.6133 218.44 70.6133 219.214C70.6133 219.981 69.9457 220.606 69.1289 220.606ZM67.8363 232.282V222.936C67.8363 222.431 68.1133 222.154 68.6176 222.154H69.6261C70.1303 222.154 70.4073 222.431 70.4073 222.936V232.282C70.4073 232.786 70.1303 233.063 69.6261 233.063H68.6176C68.1133 233.063 67.8363 232.786 67.8363 232.282ZM75.4022 219.299V232.282C75.4022 232.786 75.1252 233.063 74.6209 233.063H73.6124C73.1081 233.063 72.8312 232.786 72.8312 232.282V219.299C72.8312 218.795 73.1081 218.518 73.6124 218.518H74.6209C75.1252 218.518 75.4022 218.795 75.4022 219.299ZM82.6555 233.277C79.3672 233.277 77.3573 231.096 77.3573 227.673C77.3573 224.306 79.3956 222.012 82.5206 222.012C85.2053 222.012 87.5064 223.696 87.5064 227.524V227.531C87.5064 228.035 87.2294 228.312 86.7251 228.312H79.907C79.9283 230.18 81.0291 231.274 82.6911 231.274C83.5433 231.274 84.2465 230.99 84.6797 230.436C84.9567 230.073 85.2124 229.889 85.6527 229.938L86.5192 230.038C87.0661 230.102 87.3501 230.4 87.1726 230.805C86.505 232.318 84.8857 233.277 82.6555 233.277ZM79.9141 226.579H85.0419C85.0277 225.095 84.0334 224.015 82.5561 224.015C81.022 224.015 79.9922 225.187 79.9141 226.579ZM98.2507 233.255C95.6797 233.255 93.755 231.217 93.755 227.623C93.755 223.987 95.7365 222.012 98.2578 222.012C100.183 222.012 100.985 223.17 101.376 223.958H101.482V219.299C101.482 218.795 101.759 218.518 102.263 218.518H103.279C103.783 218.518 104.06 218.795 104.06 219.299V232.282C104.06 232.786 103.783 233.063 103.279 233.063H102.313C101.809 233.063 101.532 232.786 101.532 232.282V231.345H101.376C100.971 232.14 100.126 233.255 98.2507 233.255ZM98.968 231.146C100.609 231.146 101.532 229.725 101.532 227.609C101.532 225.492 100.623 224.122 98.968 224.122C97.2564 224.122 96.3757 225.578 96.3757 227.609C96.3757 229.654 97.2706 231.146 98.968 231.146ZM107.887 233.063H106.701C106.126 233.063 105.87 232.708 106.062 232.169L110.65 219.15C110.799 218.717 111.083 218.518 111.537 218.518H113.455C113.91 218.518 114.194 218.717 114.343 219.15L118.938 232.169C119.13 232.708 118.874 233.063 118.299 233.063H117.113C116.658 233.063 116.367 232.858 116.225 232.424L115.231 229.477H109.762L108.775 232.424C108.633 232.858 108.341 233.063 107.887 233.063ZM110.472 227.36H114.52L112.553 221.501H112.439L110.472 227.36ZM120.833 236.373V222.936C120.833 222.431 121.11 222.154 121.614 222.154H122.58C123.084 222.154 123.361 222.431 123.361 222.936V223.958H123.51C123.901 223.17 124.703 222.012 126.628 222.012C129.149 222.012 131.131 223.987 131.131 227.623C131.131 231.217 129.206 233.255 126.635 233.255C124.76 233.255 123.915 232.14 123.51 231.345H123.404V236.373C123.404 236.877 123.127 237.154 122.622 237.154H121.614C121.11 237.154 120.833 236.877 120.833 236.373ZM123.354 227.609C123.354 229.725 124.277 231.146 125.918 231.146C127.615 231.146 128.51 229.654 128.51 227.609C128.51 225.578 127.63 224.122 125.918 224.122C124.263 224.122 123.354 225.492 123.354 227.609ZM133.113 236.373V222.936C133.113 222.431 133.39 222.154 133.894 222.154H134.86C135.364 222.154 135.641 222.431 135.641 222.936V223.958H135.79C136.181 223.17 136.983 222.012 138.908 222.012C141.429 222.012 143.411 223.987 143.411 227.623C143.411 231.217 141.486 233.255 138.915 233.255C137.04 233.255 136.195 232.14 135.79 231.345H135.684V236.373C135.684 236.877 135.407 237.154 134.902 237.154H133.894C133.39 237.154 133.113 236.877 133.113 236.373ZM135.634 227.609C135.634 229.725 136.557 231.146 138.198 231.146C139.895 231.146 140.79 229.654 140.79 227.609C140.79 225.578 139.91 224.122 138.198 224.122C136.543 224.122 135.634 225.492 135.634 227.609ZM157.896 225.13L157.08 225.223C156.632 225.272 156.391 225.073 156.128 224.697C155.801 224.257 155.24 223.93 154.402 223.93C153.33 223.93 152.513 224.441 152.52 225.18C152.513 225.812 152.953 226.196 154.061 226.444L155.922 226.842C157.982 227.289 158.983 228.241 158.99 229.796C158.983 231.863 157.058 233.277 154.331 233.277C152.044 233.277 150.482 232.41 149.878 230.904C149.672 230.4 149.97 230.052 150.503 230.002L151.476 229.91C151.931 229.867 152.165 230.073 152.413 230.471C152.776 231.046 153.429 231.338 154.324 231.338C155.546 231.338 156.355 230.777 156.355 230.031C156.355 229.413 155.886 229.008 154.885 228.788L153.024 228.397C150.929 227.964 149.949 226.913 149.956 225.322C149.949 223.305 151.739 222.012 154.367 222.012C156.519 222.012 157.911 222.85 158.507 224.214C158.72 224.718 158.436 225.073 157.896 225.13ZM166.338 222.936V223.362C166.338 223.866 166.061 224.143 165.556 224.143H164.186V229.782C164.186 230.819 164.704 231.046 165.35 231.046H165.365C165.613 231.046 166.153 231.196 166.26 231.679L166.373 232.204C166.48 232.694 166.288 233.056 165.791 233.142C165.571 233.177 165.315 233.206 165.024 233.213C163.092 233.269 161.6 232.261 161.615 230.208V224.143H160.848C160.343 224.143 160.066 223.866 160.066 223.362V222.936C160.066 222.431 160.343 222.154 160.84 222.154H161.615V220.322C161.615 219.818 161.892 219.541 162.396 219.541H163.404C163.909 219.541 164.186 219.818 164.186 220.322V222.154H165.556C166.061 222.154 166.338 222.431 166.338 222.936ZM172.909 233.277C169.713 233.277 167.682 231.025 167.682 227.652C167.682 224.271 169.713 222.012 172.909 222.012C176.105 222.012 178.136 224.271 178.136 227.652C178.136 231.025 176.105 233.277 172.909 233.277ZM172.923 231.217C174.663 231.217 175.53 229.64 175.53 227.644C175.53 225.649 174.663 224.051 172.923 224.051C171.155 224.051 170.288 225.649 170.288 227.644C170.288 229.64 171.155 231.217 172.923 231.217ZM180.099 232.282V222.936C180.099 222.431 180.376 222.154 180.88 222.154H181.81C182.315 222.154 182.592 222.431 182.592 222.936V223.973H182.705C183.103 222.708 184.147 221.998 185.397 221.998H185.582C186.072 222.019 186.32 222.325 186.32 222.815V223.596C186.32 224.129 186.107 224.37 185.731 224.321C185.532 224.299 185.319 224.285 185.127 224.285C183.714 224.285 182.67 225.265 182.67 226.65V232.282C182.67 232.786 182.393 233.063 181.888 233.063H180.88C180.376 233.063 180.099 232.786 180.099 232.282ZM192.189 233.277C188.9 233.277 186.89 231.096 186.89 227.673C186.89 224.306 188.929 222.012 192.054 222.012C194.738 222.012 197.04 223.696 197.04 227.524V227.531C197.04 228.035 196.763 228.312 196.258 228.312H189.44C189.461 230.18 190.562 231.274 192.224 231.274C193.076 231.274 193.78 230.99 194.213 230.436C194.49 230.073 194.745 229.889 195.186 229.938L196.052 230.038C196.599 230.102 196.883 230.4 196.706 230.805C196.038 232.318 194.419 233.277 192.189 233.277ZM189.447 226.579H194.575C194.561 225.095 193.567 224.015 192.089 224.015C190.555 224.015 189.525 225.187 189.447 226.579Z" fill="#4E5666"/>
</g>
<rect x="1.28467" y="1.42041" width="427.715" height="280.643" rx="23" stroke="url(#paint6_linear_140_154)" stroke-opacity="0.5" stroke-width="2"/>
<defs>
<linearGradient id="paint0_linear_140_154" x1="215.142" y1="0.42041" x2="215.142" y2="283.063" gradientUnits="userSpaceOnUse">
<stop stop-color="#B5E5FF"/>
<stop offset="1" stop-color="#98D8FF"/>
</linearGradient>
<linearGradient id="paint1_linear_140_154" x1="-140" y1="459.778" x2="221.001" y2="-72.2224" gradientUnits="userSpaceOnUse">
<stop stop-color="#1582DC" stop-opacity="0"/>
<stop offset="1" stop-color="#1582DC"/>
</linearGradient>
<linearGradient id="paint2_linear_140_154" x1="347.16" y1="43.2541" x2="333.984" y2="231.682" gradientUnits="userSpaceOnUse">
<stop stop-color="#51B6FF"/>
<stop offset="1" stop-color="#8ED7FF"/>
</linearGradient>
<linearGradient id="paint3_linear_140_154" x1="347.16" y1="43.2541" x2="333.984" y2="231.682" gradientUnits="userSpaceOnUse">
<stop stop-color="#51B6FF"/>
<stop offset="1" stop-color="#8ED7FF"/>
</linearGradient>
<linearGradient id="paint4_linear_140_154" x1="347.16" y1="43.2541" x2="333.984" y2="231.682" gradientUnits="userSpaceOnUse">
<stop stop-color="#51B6FF"/>
<stop offset="1" stop-color="#8ED7FF"/>
</linearGradient>
<linearGradient id="paint5_linear_140_154" x1="347.16" y1="43.2541" x2="333.984" y2="231.682" gradientUnits="userSpaceOnUse">
<stop stop-color="#51B6FF"/>
<stop offset="1" stop-color="#8ED7FF"/>
</linearGradient>
<linearGradient id="paint6_linear_140_154" x1="-19.4995" y1="-89.5796" x2="430" y2="393.42" gradientUnits="userSpaceOnUse">
<stop stop-color="white"/>
<stop offset="0.5" stop-color="white" stop-opacity="0"/>
<stop offset="1" stop-color="white"/>
</linearGradient>
<clipPath id="clip0_140_154">
<rect x="0.284668" y="0.42041" width="429.715" height="282.643" rx="24" fill="white"/>
</clipPath>
</defs>
</svg>
