<svg width="430" height="284" viewBox="0 0 430 284" fill="none" xmlns="http://www.w3.org/2000/svg">
<path fill-rule="evenodd" clip-rule="evenodd" d="M-382.663 114.624C-377.62 103.851 -364.799 99.2062 -354.026 104.249L-313.512 123.214C-302.74 128.257 -298.094 141.078 -303.137 151.851L-324.811 198.152C-329.854 208.925 -342.675 213.57 -353.448 208.527C-359.772 205.567 -363.984 199.927 -365.365 193.594C-371.028 200.492 -375.109 208.389 -376.87 217.407C-381.601 241.638 -371.246 261.941 -361.259 271.425C-352.634 279.616 -352.281 293.248 -360.472 301.873C-368.663 310.499 -382.295 310.851 -390.92 302.66C-410.231 284.322 -427.04 249.582 -419.146 209.152C-413.57 180.595 -396.077 160.34 -378.307 146.87C-376.514 145.511 -374.706 144.211 -372.891 142.968C-383.232 137.736 -387.611 125.194 -382.663 114.624ZM-282.306 191.217C-290.932 183.026 -291.284 169.394 -283.093 160.769C-274.902 152.144 -261.27 151.791 -252.645 159.982C-233.334 178.32 -216.525 213.06 -224.419 253.49C-229.995 282.047 -247.488 302.303 -265.258 315.772C-267.051 317.131 -268.86 318.431 -270.675 319.674C-260.333 324.906 -255.954 337.448 -260.902 348.018C-265.945 358.791 -278.766 363.436 -289.539 358.393L-330.053 339.428C-340.826 334.386 -345.471 321.564 -340.428 310.791L-318.754 264.49C-313.711 253.717 -300.89 249.072 -290.117 254.115C-283.793 257.075 -279.581 262.715 -278.2 269.049C-272.537 262.15 -268.456 254.253 -266.695 245.235C-261.964 221.004 -272.319 200.701 -282.306 191.217ZM-135.503 -74.6363C-147.264 -70.0617 -153.144 -67.7744 -157.339 -63.5793C-158.791 -62.127 -160.08 -60.5205 -161.183 -58.7884C-164.37 -53.7849 -165.325 -47.5821 -167.233 -35.1765C-169.142 -22.7709 -170.096 -16.5681 -173.283 -11.5646C-174.386 -9.83244 -175.676 -8.22596 -177.128 -6.77369C-181.322 -2.57857 -187.171 -0.303582 -198.869 4.24635C-210.567 8.7963 -216.416 11.0713 -220.61 15.2664C-222.062 16.7187 -223.351 18.3252 -224.455 20.0573C-227.642 25.0608 -228.601 31.2972 -230.52 43.7699C-232.47 56.4417 -233.444 62.7776 -231.845 68.5908C-231.334 70.4515 -230.632 72.2546 -229.752 73.9721C-227.003 79.3381 -222.01 83.3448 -212.024 91.3582C-202.11 99.3138 -197.153 103.292 -194.408 108.613C-193.512 110.35 -192.799 112.175 -192.28 114.06C-190.691 119.833 -191.634 126.092 -193.522 138.611C-195.409 151.13 -196.352 157.389 -194.763 163.162C-194.244 165.046 -193.531 166.872 -192.635 168.609C-189.89 173.93 -184.913 177.924 -174.959 185.912C-165.005 193.899 -160.028 197.893 -154.239 199.421C-152.349 199.92 -150.412 200.221 -148.46 200.319C-142.48 200.62 -136.574 198.343 -124.761 193.79C-112.948 189.236 -107.041 186.959 -101.062 187.26C-99.1092 187.359 -97.1725 187.66 -95.2824 188.158C-89.4932 189.686 -84.5363 193.664 -74.6224 201.619C-64.6366 209.633 -59.6436 213.64 -53.8095 215.161C-51.9423 215.648 -50.03 215.943 -48.1027 216.039C-42.081 216.341 -36.1066 214.018 -24.1578 209.37C-12.3967 204.796 -6.51614 202.508 -2.32158 198.313C-0.86953 196.861 0.419647 195.254 1.52299 193.522C4.7101 188.519 5.66439 182.316 7.5729 169.91C9.48143 157.505 10.4357 151.302 13.6228 146.298C14.7261 144.566 16.0153 142.96 17.4674 141.508C21.662 137.312 27.5109 135.037 39.2087 130.487C50.9065 125.938 56.7554 123.663 60.95 119.467C62.402 118.015 63.6912 116.409 64.7945 114.677C67.9816 109.673 68.9411 103.437 70.8599 90.9639C72.8094 78.2922 73.7841 71.9563 72.185 66.143C71.6732 64.2824 70.9718 62.4792 70.0919 60.7617C67.3428 55.3957 62.3698 51.405 52.4237 43.4236C42.4778 35.4422 37.5049 31.4516 34.7557 26.0856C33.8758 24.3682 33.1744 22.565 32.6626 20.7043C31.0635 14.891 32.033 8.58901 33.972 -4.01499C35.911 -16.619 36.8805 -22.921 35.2814 -28.7343C34.7695 -30.5949 34.0681 -32.3981 33.1882 -34.1156C30.4391 -39.4816 25.4661 -43.4722 15.5201 -51.4536C5.57419 -59.435 0.60123 -63.4256 -5.23269 -64.9474C-7.10009 -65.4345 -9.01252 -65.7287 -10.94 -65.8255C-16.9615 -66.1276 -22.9039 -63.8162 -34.7888 -59.1935C-46.6737 -54.5708 -52.6161 -52.2594 -58.6377 -52.5616C-60.5652 -52.6583 -62.4776 -52.9525 -64.345 -53.4396C-70.179 -54.9614 -75.1519 -58.9521 -85.0977 -66.9335C-95.0437 -74.9149 -100.017 -78.9056 -105.851 -80.4274C-107.718 -80.9145 -109.63 -81.2087 -111.558 -81.3055C-117.579 -81.6076 -123.554 -79.2838 -135.503 -74.6363ZM-29.7117 75.1806C-31.6088 87.5122 -32.5574 93.678 -35.6963 98.6469C-36.8462 100.467 -38.2007 102.15 -39.7333 103.662C-43.9168 107.79 -49.7215 110.027 -61.3304 114.502L-61.3312 114.502L-61.332 114.502C-72.8643 118.947 -78.6304 121.17 -84.4679 120.934C-86.6066 120.847 -88.7284 120.517 -90.7926 119.951C-96.4265 118.404 -101.246 114.537 -110.886 106.801L-111.603 106.226C-121.242 98.4904 -126.062 94.6227 -128.792 89.4573C-129.792 87.5649 -130.573 85.5648 -131.121 83.4957C-132.616 77.848 -131.695 71.7373 -129.853 59.516C-127.999 47.2123 -127.071 41.0605 -123.948 36.0821C-122.803 34.2584 -121.454 32.5717 -119.926 31.055C-115.755 26.9143 -109.941 24.6529 -98.3129 20.1301C-86.6305 15.5862 -80.7893 13.3142 -74.8865 13.5617C-72.8034 13.6491 -70.7363 13.9671 -68.7233 14.5099C-63.019 16.0481 -58.0775 20.0136 -48.1945 27.9445C-38.3117 35.8753 -33.3702 39.8407 -30.6332 45.0764C-29.6673 46.9241 -28.9092 48.8731 -28.3728 50.8878C-26.8528 56.5969 -27.8058 62.7915 -29.7117 75.1806ZM34.2968 239.151C45.7426 237.897 55.9629 246.098 76.4035 262.501L87.8815 271.712C108.322 288.115 118.542 296.317 119.797 307.763C121.051 319.208 112.85 329.429 96.4465 349.869L87.2357 361.347C70.8327 381.788 62.6312 392.008 51.1854 393.262C39.7395 394.517 29.5192 386.315 9.07865 369.912L-2.39929 360.701C-22.8399 344.298 -33.0602 336.097 -34.3145 324.651C-35.5688 313.205 -27.3673 302.985 -10.9643 282.544L-1.75354 271.066C14.6494 250.626 22.851 240.406 34.2968 239.151ZM76.6908 226.727C78.8461 236.159 87.5256 243.124 104.885 257.054C122.243 270.984 130.923 277.949 140.598 278.011C142.741 278.024 144.878 277.79 146.967 277.313C156.4 275.157 163.365 266.478 177.295 249.119C191.225 231.76 198.19 223.081 198.251 213.405C198.265 211.263 198.031 209.125 197.553 207.036C195.398 197.604 186.719 190.639 169.36 176.709C152.001 162.779 143.321 155.814 133.646 155.752C131.503 155.739 129.366 155.973 127.277 156.45C117.844 158.606 110.879 167.285 96.9494 184.644C83.0193 202.003 76.0542 210.682 75.9928 220.358C75.9792 222.501 76.2134 224.638 76.6908 226.727ZM171.809 300.319C173.063 311.764 183.284 319.966 203.724 336.369L215.202 345.58C235.643 361.983 245.863 370.184 257.309 368.93C268.755 367.675 276.956 357.455 293.359 337.015L302.57 325.537C318.973 305.096 327.175 294.876 325.92 283.43C324.666 271.984 314.446 263.783 294.005 247.38L282.527 238.169C262.087 221.766 251.866 213.564 240.42 214.819C228.975 216.073 220.773 226.293 204.37 246.734L195.159 258.212C178.756 278.652 170.555 288.873 171.809 300.319ZM116.574 388.889C118.759 391.892 122.169 394.628 128.989 400.101C135.808 405.574 139.218 408.311 142.624 409.793C151.66 413.727 162.103 412.582 170.072 406.785C173.076 404.6 175.812 401.19 181.285 394.37L181.285 394.37C186.758 387.55 189.494 384.14 190.977 380.735C194.91 371.699 193.766 361.256 187.969 353.287C185.784 350.283 182.374 347.547 175.554 342.074C168.734 336.601 165.324 333.865 161.919 332.382C152.883 328.449 142.44 329.593 134.47 335.39C131.467 337.575 128.73 340.985 123.258 347.805C117.785 354.625 115.048 358.035 113.566 361.44C109.632 370.476 110.777 380.919 116.574 388.889ZM-79.0586 282.484C-75.1609 250.527 -115.599 233.487 -135.748 258.596L-199.416 337.936C-210.47 351.711 -208.265 371.84 -194.489 382.895L-113.718 447.712C-88.7229 467.769 -53.0426 442.686 -63.4556 412.377L-84.2719 351.788C-85.8453 347.209 -86.3582 342.332 -85.772 337.525L-79.0586 282.484ZM140.132 95.93C144.7 100.312 151.902 100.162 166.307 99.8622L310.863 96.8542C325.267 96.5545 332.469 96.4046 336.851 91.8366C341.233 87.2686 341.083 80.0663 340.783 65.6618L340.099 32.7547C339.937 24.9984 339.857 21.1203 342.216 18.6606C344.576 16.2009 348.454 16.1201 356.21 15.9587L372.664 15.6164C387.068 15.3167 394.27 15.1668 398.652 10.5988C403.034 6.03071 402.884 -1.17155 402.584 -15.576L401.899 -48.4832C401.738 -56.2394 401.657 -60.1176 404.017 -62.5773C406.376 -65.037 410.254 -65.1177 418.011 -65.2791L432.114 -65.5725C446.518 -65.8723 453.72 -66.0221 458.102 -70.5902C462.484 -75.1582 462.334 -82.3604 462.034 -96.765L461.643 -115.569C461.343 -129.974 461.194 -137.176 456.626 -141.558C452.058 -145.939 444.855 -145.79 430.451 -145.49L285.895 -142.482C271.49 -142.182 264.288 -142.032 259.906 -137.464C255.524 -132.896 255.674 -125.694 255.974 -111.289L256.659 -78.3823C256.82 -70.626 256.901 -66.7479 254.541 -64.2881C252.182 -61.8284 248.304 -61.7477 240.547 -61.5863L226.444 -61.2929C212.04 -60.9931 204.838 -60.8433 200.456 -56.2753C196.074 -51.7072 196.224 -44.505 196.524 -30.1005L197.208 2.80665L197.208 2.80697C197.37 10.563 197.45 14.4411 195.091 16.9008C192.732 19.3605 188.853 19.4412 181.097 19.6026L164.644 19.9449C150.239 20.2447 143.037 20.3946 138.655 24.9626C134.273 29.5306 134.423 36.7329 134.723 51.1374L135.114 69.9414C135.414 84.3459 135.564 91.5482 140.132 95.93Z" fill="url(#paint0_linear_140_155)" fill-opacity="0.1"/>
<defs>
<linearGradient id="paint0_linear_140_155" x1="-140" y1="459.778" x2="221.001" y2="-72.2224" gradientUnits="userSpaceOnUse">
<stop stop-color="#1582DC" stop-opacity="0"/>
<stop offset="1" stop-color="#1582DC"/>
</linearGradient>
</defs>
</svg>
