<svg width="188" height="198" viewBox="0 0 188 198" fill="none" xmlns="http://www.w3.org/2000/svg">
<path d="M53.5961 1.64838C47.2657 1.20546 41.806 0.823458 37.3176 0.965183C32.5582 1.11547 27.8341 1.85892 23.3822 4.40342C20.097 6.28102 17.2139 8.78729 14.8974 11.7791C11.7581 15.8336 10.3644 20.4083 9.55317 25.1004C8.78814 29.5255 8.40661 34.9849 7.9642 41.3156L7.89913 42.2461C7.45618 48.5767 7.0742 54.036 7.21593 58.5246C7.36621 63.2839 8.10967 68.008 10.6542 72.46C12.5318 75.7451 15.038 78.6282 18.0299 80.9448C22.0844 84.0841 26.659 85.4778 31.3512 86.289C35.7763 87.054 41.2357 87.4355 47.5663 87.878L48.4968 87.943C54.8274 88.386 60.2868 88.768 64.7753 88.6262C69.5347 88.4759 74.2588 87.7325 78.7107 85.188C81.9959 83.3104 84.879 80.8041 87.1955 77.8123C90.3348 73.7578 91.7285 69.1831 92.5397 64.491C93.3048 60.0659 93.6863 54.6065 94.1287 48.2758L94.1938 47.3454C94.6367 41.0147 95.0187 35.5554 94.877 31.0669C94.7267 26.3075 93.9832 21.5834 91.4387 17.1314C89.5611 13.8463 87.0549 10.9632 84.063 8.64665C80.0085 5.50731 75.4339 4.11362 70.7417 3.30243C66.3167 2.53742 60.8576 2.15589 54.5271 1.71348L53.5961 1.64838Z" fill="url(#paint0_linear_140_165)"/>
<path d="M131.09 185.184C130.658 191.357 135.313 196.711 141.486 197.143C147.66 197.575 153.014 192.92 153.446 186.747L155.009 164.391L177.365 165.954C183.538 166.386 188.893 161.731 189.325 155.558C189.756 149.385 185.102 144.03 178.928 143.599L156.572 142.035L158.136 119.679C158.567 113.506 153.913 108.152 147.739 107.72C141.566 107.288 136.212 111.943 135.78 118.116L134.217 140.472L111.861 138.909C105.687 138.477 100.333 143.132 99.9013 149.305C99.4696 155.478 104.124 160.833 110.298 161.265L132.653 162.828L131.09 185.184Z" fill="url(#paint1_linear_140_165)"/>
<path d="M46.5614 102.25C40.2312 101.807 34.7712 101.425 30.2829 101.566C25.5235 101.717 20.7994 102.46 16.3474 105.005C13.0623 106.882 10.1792 109.388 7.86267 112.38C4.72334 116.435 3.32965 121.009 2.51845 125.702C1.75342 130.127 1.3719 135.586 0.92948 141.917L0.864417 142.847C0.421466 149.178 0.0394792 154.637 0.181209 159.126C0.33149 163.885 1.07495 168.609 3.61945 173.061C5.49705 176.346 8.00331 179.229 10.9951 181.546C15.0496 184.685 19.6243 186.079 24.3165 186.89C28.7416 187.655 34.201 188.037 40.5316 188.479L41.4621 188.544C47.7927 188.987 53.2521 189.369 57.7406 189.227C62.5 189.077 67.2241 188.334 71.676 185.789C74.9611 183.912 77.8443 181.405 80.1608 178.413C83.3001 174.359 84.6938 169.784 85.505 165.092C86.27 160.667 86.6516 155.208 87.094 148.877L87.159 147.946C87.602 141.616 87.984 136.157 87.8423 131.668C87.692 126.909 86.9485 122.184 84.404 117.733C82.5264 114.447 80.0202 111.564 77.0283 109.248C72.9738 106.108 68.3992 104.715 63.707 103.904C59.2821 103.139 53.8231 102.757 47.4928 102.315L46.5614 102.25Z" fill="url(#paint2_linear_140_165)"/>
<path d="M154.197 8.68309C147.867 8.24017 142.407 7.85817 137.919 7.9999C133.159 8.15018 128.435 8.89364 123.983 11.4381C120.698 13.3157 117.815 15.822 115.499 18.8138C112.359 22.8683 110.965 27.443 110.154 32.1352C109.389 36.5602 109.008 42.0195 108.565 48.3501L108.5 49.2808C108.057 55.6113 107.675 61.0708 107.817 65.5593C107.967 70.3187 108.711 75.0428 111.255 79.4947C113.133 82.7798 115.639 85.663 118.631 87.9795C122.685 91.1188 127.26 92.5125 131.952 93.3237C136.377 94.0887 141.837 94.4703 148.167 94.9127L149.098 94.9777C155.429 95.4207 160.888 95.8027 165.376 95.6609C170.136 95.5107 174.86 94.7672 179.312 92.2227C182.597 90.3451 185.48 87.8388 187.797 84.847C190.936 80.7925 192.33 76.2178 193.141 71.5257C193.906 67.1006 194.287 61.6412 194.73 55.3105L194.795 54.3801C195.238 48.0494 195.62 42.5901 195.478 38.1016C195.328 33.3422 194.584 28.6181 192.04 24.1661C190.162 20.881 187.656 17.9979 184.664 15.6814C180.61 12.542 176.035 11.1483 171.343 10.3371C166.918 9.57213 161.459 9.19061 155.128 8.7482L154.197 8.68309Z" fill="url(#paint3_linear_140_165)"/>
<defs>
<linearGradient id="paint0_linear_140_165" x1="105.16" y1="5.25409" x2="91.9842" y2="193.682" gradientUnits="userSpaceOnUse">
<stop stop-color="#51B6FF"/>
<stop offset="1" stop-color="#8ED7FF"/>
</linearGradient>
<linearGradient id="paint1_linear_140_165" x1="105.16" y1="5.25409" x2="91.9842" y2="193.682" gradientUnits="userSpaceOnUse">
<stop stop-color="#51B6FF"/>
<stop offset="1" stop-color="#8ED7FF"/>
</linearGradient>
<linearGradient id="paint2_linear_140_165" x1="105.16" y1="5.25409" x2="91.9842" y2="193.682" gradientUnits="userSpaceOnUse">
<stop stop-color="#51B6FF"/>
<stop offset="1" stop-color="#8ED7FF"/>
</linearGradient>
<linearGradient id="paint3_linear_140_165" x1="105.16" y1="5.25409" x2="91.9842" y2="193.682" gradientUnits="userSpaceOnUse">
<stop stop-color="#51B6FF"/>
<stop offset="1" stop-color="#8ED7FF"/>
</linearGradient>
</defs>
</svg>
