<svg width="342" height="284" viewBox="0 0 342 284" fill="none" xmlns="http://www.w3.org/2000/svg">
<path fill-rule="evenodd" clip-rule="evenodd" d="M-230.358 226.698C-225.873 233.062 -217.079 234.585 -210.716 230.1L-186.785 213.235C-180.422 208.75 -178.899 199.956 -183.383 193.593L-202.658 166.243C-207.143 159.88 -215.937 158.357 -222.3 162.841C-226.035 165.474 -228.103 169.591 -228.266 173.83C-232.707 170.035 -236.241 165.414 -238.41 159.805C-244.237 144.734 -239.893 130.465 -234.545 123.209C-229.926 116.942 -231.262 108.118 -237.529 103.499C-243.795 98.8801 -252.62 100.216 -257.238 106.483C-267.579 120.513 -274.427 144.826 -264.704 169.972C-257.837 187.733 -244.243 198.779 -231.249 205.421C-229.937 206.091 -228.623 206.721 -227.311 207.314C-233.375 211.872 -234.758 220.455 -230.358 226.698ZM-174.474 165.838C-179.093 172.105 -177.757 180.929 -171.49 185.548C-165.224 190.167 -156.399 188.831 -151.781 182.564C-141.44 168.534 -134.592 144.221 -144.315 119.075C-151.182 101.314 -164.776 90.2676 -177.771 83.6261C-179.082 82.9559 -180.396 82.3254 -181.708 81.7325C-175.644 77.1754 -174.261 68.5921 -178.661 62.3487C-183.146 55.9853 -191.94 54.4622 -198.303 58.9468L-222.234 75.8121C-228.597 80.2966 -230.12 89.0906 -225.636 95.454L-206.361 122.804C-201.877 129.167 -193.083 130.69 -186.719 126.205C-182.984 123.573 -180.916 119.455 -180.753 115.216C-176.312 119.012 -172.778 123.633 -170.609 129.242C-164.782 144.313 -169.127 158.582 -174.474 165.838ZM-49.3961 320.31C-57.499 318.711 -61.5504 317.911 -64.7341 315.689C-65.8363 314.92 -66.8512 314.033 -67.7607 313.043C-70.3881 310.184 -71.7142 306.297 -74.3664 298.522C-77.0185 290.747 -78.3446 286.86 -80.972 284.001C-81.8815 283.012 -82.8964 282.124 -83.9986 281.355C-87.1823 279.133 -91.212 278.338 -99.2712 276.747C-107.33 275.157 -111.36 274.361 -114.544 272.139C-115.646 271.37 -116.661 270.482 -117.57 269.493C-120.198 266.634 -121.531 262.726 -124.198 254.909C-126.907 246.967 -128.261 242.997 -127.897 239.067C-127.781 237.81 -127.536 236.567 -127.166 235.36C-126.009 231.587 -123.252 228.433 -117.736 222.124C-112.26 215.862 -109.522 212.73 -108.363 208.987C-107.985 207.765 -107.735 206.506 -107.617 205.233C-107.255 201.331 -108.58 197.406 -111.232 189.555C-113.883 181.705 -115.209 177.78 -114.847 173.878C-114.728 172.604 -114.478 171.346 -114.1 170.124C-112.941 166.381 -110.192 163.237 -104.694 156.949C-99.1963 150.66 -96.4473 147.516 -92.8922 145.868C-91.7315 145.33 -90.518 144.914 -89.2713 144.627C-85.4527 143.747 -81.3858 144.537 -73.2519 146.117C-65.118 147.696 -61.051 148.486 -57.2325 147.607C-55.9858 147.319 -54.7723 146.903 -53.6116 146.365C-50.0565 144.717 -47.3185 141.586 -41.8427 135.323C-36.327 129.014 -33.5692 125.86 -29.9844 124.21C-28.8371 123.683 -27.6387 123.274 -26.4079 122.99C-22.5624 122.105 -18.4463 122.918 -10.2142 124.542C-2.11132 126.141 1.94011 126.941 5.1239 129.163C6.22608 129.933 7.24096 130.82 8.15048 131.809C10.7778 134.668 12.1039 138.555 14.7561 146.33C17.4083 154.105 18.7344 157.992 21.3617 160.851C22.2713 161.841 23.2861 162.728 24.3883 163.497C27.5721 165.72 31.6017 166.515 39.661 168.105C47.7202 169.696 51.7498 170.491 54.9336 172.713C56.0358 173.483 57.0507 174.37 57.9602 175.36C60.5875 178.218 61.9208 182.127 64.5873 189.943C67.2964 197.885 68.651 201.856 68.2871 205.785C68.1706 207.043 67.9255 208.285 67.5554 209.492C66.3992 213.265 63.6524 216.407 58.1588 222.69C52.6652 228.973 49.9184 232.115 48.7622 235.888C48.3922 237.095 48.147 238.338 48.0305 239.595C47.6666 243.524 49.0139 247.474 51.7085 255.373C54.403 263.272 55.7503 267.222 55.3865 271.151C55.27 272.409 55.0248 273.651 54.6548 274.859C53.4986 278.631 50.7518 281.773 45.2581 288.056C39.7646 294.339 37.0178 297.481 33.4331 299.131C32.2857 299.659 31.0872 300.067 29.8563 300.351C26.0109 301.236 21.9169 300.428 13.7288 298.812C5.54063 297.196 1.44657 296.388 -2.39886 297.273C-3.62973 297.556 -4.8283 297.965 -5.97571 298.493C-9.56036 300.143 -12.3071 303.284 -17.8007 309.567C-23.2943 315.851 -26.0411 318.992 -29.6258 320.642C-30.7731 321.17 -31.9716 321.579 -33.2024 321.862C-37.0479 322.747 -41.164 321.935 -49.3961 320.31ZM1.5931 211.645C-1.04323 203.917 -2.36139 200.052 -4.95375 197.21C-5.9034 196.169 -6.96906 195.241 -8.12999 194.442C-11.2991 192.262 -15.2961 191.486 -23.2902 189.933C-31.2308 188.391 -35.201 187.62 -38.9353 188.442C-40.3035 188.743 -41.6329 189.199 -42.898 189.801C-46.3509 191.443 -49.0131 194.488 -54.3373 200.577L-54.7336 201.03C-60.0579 207.12 -62.7201 210.165 -63.8867 213.806C-64.3141 215.14 -64.5883 216.518 -64.704 217.914C-65.0199 221.725 -63.7258 225.557 -61.1376 233.221C-58.5319 240.936 -57.2291 244.794 -54.6454 247.643C-53.6989 248.687 -52.6361 249.619 -51.4777 250.421C-48.3152 252.611 -44.3096 253.402 -36.2985 254.983C-28.2499 256.571 -24.2256 257.365 -20.4504 256.529C-19.1182 256.234 -17.8227 255.792 -16.5878 255.211C-13.0887 253.566 -10.3594 250.445 -4.90102 244.202L-4.90087 244.202L-4.90072 244.201L-4.90057 244.201L-4.90042 244.201C0.558344 237.958 3.28771 234.836 4.451 231.148C4.86153 229.847 5.12652 228.504 5.24118 227.145C5.56602 223.292 4.24171 219.409 1.5931 211.645ZM24.0364 98.6498C31.5555 98.1456 37.2006 91.6891 48.4909 78.776L54.8307 71.525C66.1209 58.6119 71.7661 52.1554 71.2619 44.6364C70.7578 37.1174 64.3013 31.4722 51.3882 20.1819L44.1372 13.8422C31.2241 2.55188 24.7676 -3.09324 17.2486 -2.5891C9.72955 -2.08496 4.08442 4.37157 -7.20586 17.2846L-13.5457 24.5357C-24.8359 37.4487 -30.481 43.9052 -29.9769 51.4243C-29.4728 58.9433 -23.0163 64.5884 -10.1032 75.8787L-2.85215 82.2185C10.0609 93.5088 16.5174 99.1539 24.0364 98.6498ZM52.7776 101.795C53.0849 95.4701 57.8789 89.9869 67.4671 79.0207C77.0552 68.0544 81.8493 62.5712 88.0766 61.4223C89.4558 61.1679 90.8597 61.0737 92.2605 61.1418C98.5855 61.4491 104.069 66.2432 115.035 75.8313C126.001 85.4195 131.484 90.2135 132.633 96.4409C132.888 97.82 132.982 99.224 132.914 100.625C132.606 106.95 127.812 112.433 118.224 123.399C108.636 134.365 103.842 139.849 97.6147 140.997C96.2356 141.252 94.8316 141.346 93.4308 141.278C87.1059 140.971 81.6227 136.177 70.6564 126.588C59.6902 117 54.207 112.206 53.0581 105.979C52.8036 104.6 52.7095 103.196 52.7776 101.795ZM105.629 43.4695C105.124 35.9505 110.77 29.4939 122.06 16.5809L128.4 9.32985C139.69 -3.58321 145.335 -10.0397 152.854 -10.5439C160.373 -11.048 166.83 -5.40288 179.743 5.88739L186.994 12.2272C199.907 23.5174 206.363 29.1626 206.867 36.6816C207.372 44.2006 201.726 50.6572 190.436 63.5702L184.096 70.8212C172.806 83.7343 167.161 90.1908 159.642 90.695C152.123 91.1991 145.666 85.554 132.753 74.2637L125.502 67.9239C112.589 56.6336 106.133 50.9885 105.629 43.4695ZM59.8841 -7.26863C60.9475 -9.45449 62.831 -11.6087 66.5979 -15.9171C70.3649 -20.2255 72.2484 -22.3797 74.2727 -23.7254C79.6439 -27.2961 86.5042 -27.7561 92.304 -24.9344C94.4899 -23.8709 96.6441 -21.9875 100.952 -18.2205C105.261 -14.4535 107.415 -12.5701 108.761 -10.5457C112.331 -5.17452 112.791 1.68577 109.97 7.48558C108.906 9.67143 107.023 11.8256 103.256 16.134C99.4889 20.4424 97.6054 22.5966 95.5811 23.9424C90.2099 27.5131 83.3496 27.973 77.5498 25.1513C75.364 24.0879 73.2098 22.2044 68.9014 18.4374C64.593 14.6705 62.4388 12.787 61.093 10.7627C57.5223 5.39147 57.0624 -1.4688 59.8841 -7.26863ZM-53.976 83.7252C-47.8004 103.87 -71.9029 119.486 -87.7649 105.618L-137.887 61.7943C-146.59 54.1854 -147.476 40.9623 -139.867 32.2597L-95.2535 -18.7665C-81.4478 -34.5565 -55.5809 -22.4849 -58.8155 -1.76146L-65.2816 39.6661C-65.7703 42.7974 -65.5416 45.9989 -64.6127 49.0289L-53.976 83.7252ZM108.652 178.8C111.093 175.453 115.751 174.724 125.067 173.265L218.558 158.629C227.874 157.17 232.532 156.441 235.879 158.882C239.226 161.323 239.956 165.981 241.414 175.297L244.746 196.58C245.531 201.596 245.924 204.104 247.726 205.419C249.528 206.733 252.037 206.34 257.053 205.555L267.694 203.889C277.01 202.431 281.668 201.701 285.015 204.142C288.363 206.583 289.092 211.241 290.55 220.557L293.882 241.84C294.667 246.856 295.06 249.364 296.862 250.679C298.665 251.993 301.173 251.6 306.189 250.815L315.31 249.387C324.626 247.929 329.284 247.199 332.631 249.64C335.979 252.081 336.708 256.74 338.166 266.056L340.07 278.217C341.529 287.533 342.258 292.191 339.817 295.538C337.376 298.885 332.718 299.614 323.402 301.073L229.911 315.709C220.595 317.168 215.937 317.897 212.59 315.456C209.243 313.015 208.514 308.357 207.055 299.041L203.723 277.759C202.938 272.742 202.545 270.234 200.743 268.92C198.941 267.605 196.433 267.998 191.416 268.783L182.295 270.211C172.979 271.67 168.321 272.399 164.974 269.958C161.627 267.517 160.898 262.859 159.439 253.543L156.107 232.26L156.107 232.26C155.322 227.244 154.929 224.736 153.127 223.422C151.325 222.107 148.816 222.5 143.8 223.285L133.159 224.951C123.843 226.41 119.185 227.139 115.838 224.698C112.491 222.257 111.761 217.599 110.303 208.283L108.399 196.121C106.941 186.805 106.211 182.147 108.652 178.8Z" fill="#FFA435" fill-opacity="0.5"/>
</svg>
