<svg width="278" height="254" viewBox="0 0 278 254" fill="none" xmlns="http://www.w3.org/2000/svg">
<path fill-rule="evenodd" clip-rule="evenodd" d="M226.318 0.777588C198.097 0.777588 175.219 23.6556 175.219 51.877C175.219 70.7763 185.479 87.2792 200.733 96.1196C198.147 107.849 194.531 119.357 189.912 130.507C179.586 155.436 164.452 178.086 145.372 197.166C126.292 216.246 103.641 231.38 78.7128 241.706C53.784 252.032 27.0656 257.347 0.0828872 257.347L0.0828857 290.778C31.4558 290.778 62.5214 284.598 91.5062 272.592C120.491 260.586 146.827 242.989 169.011 220.805C191.195 198.621 208.792 172.285 220.798 143.3C226.28 130.067 230.547 116.399 233.566 102.466C258.355 98.9468 277.418 77.6381 277.418 51.877C277.418 23.6556 254.54 0.777588 226.318 0.777588Z" fill="url(#paint0_linear_140_136)"/>
<defs>
<linearGradient id="paint0_linear_140_136" x1="138.75" y1="0.777588" x2="138.75" y2="290.778" gradientUnits="userSpaceOnUse">
<stop stop-color="#FFE2AE"/>
<stop offset="1" stop-color="#FFBF45"/>
</linearGradient>
</defs>
</svg>
