<svg width="431" height="284" viewBox="0 0 431 284" fill="none" xmlns="http://www.w3.org/2000/svg">
<g clip-path="url(#clip0_140_121)">
<rect x="0.569214" y="0.42041" width="429.715" height="282.64" rx="24" fill="url(#paint0_linear_140_121)"/>
<path fill-rule="evenodd" clip-rule="evenodd" d="M-230.358 226.698C-225.873 233.062 -217.079 234.585 -210.716 230.1L-186.785 213.235C-180.422 208.75 -178.899 199.956 -183.383 193.593L-202.658 166.243C-207.143 159.88 -215.937 158.357 -222.3 162.841C-226.035 165.474 -228.103 169.591 -228.266 173.83C-232.707 170.035 -236.241 165.414 -238.41 159.805C-244.237 144.734 -239.893 130.465 -234.545 123.209C-229.926 116.942 -231.262 108.118 -237.529 103.499C-243.795 98.8801 -252.62 100.216 -257.238 106.483C-267.579 120.513 -274.427 144.826 -264.704 169.972C-257.837 187.733 -244.243 198.779 -231.249 205.421C-229.937 206.091 -228.623 206.721 -227.311 207.314C-233.375 211.872 -234.758 220.455 -230.358 226.698ZM-174.474 165.838C-179.093 172.105 -177.757 180.929 -171.49 185.548C-165.224 190.167 -156.399 188.831 -151.781 182.564C-141.44 168.534 -134.592 144.221 -144.315 119.075C-151.182 101.314 -164.776 90.2676 -177.771 83.6261C-179.082 82.9559 -180.396 82.3254 -181.708 81.7325C-175.644 77.1754 -174.261 68.5921 -178.661 62.3487C-183.146 55.9853 -191.94 54.4622 -198.303 58.9468L-222.234 75.8121C-228.597 80.2966 -230.12 89.0906 -225.636 95.454L-206.361 122.804C-201.877 129.167 -193.083 130.69 -186.719 126.205C-182.984 123.573 -180.916 119.455 -180.753 115.216C-176.312 119.012 -172.778 123.633 -170.609 129.242C-164.782 144.313 -169.127 158.582 -174.474 165.838ZM-49.3961 320.31C-57.499 318.711 -61.5504 317.911 -64.7341 315.689C-65.8363 314.92 -66.8512 314.033 -67.7607 313.043C-70.3881 310.184 -71.7142 306.297 -74.3664 298.522C-77.0185 290.747 -78.3446 286.86 -80.972 284.001C-81.8815 283.012 -82.8964 282.124 -83.9986 281.355C-87.1823 279.133 -91.212 278.338 -99.2712 276.747C-107.33 275.157 -111.36 274.361 -114.544 272.139C-115.646 271.37 -116.661 270.482 -117.57 269.493C-120.198 266.634 -121.531 262.726 -124.198 254.909C-126.907 246.967 -128.261 242.997 -127.897 239.067C-127.781 237.81 -127.536 236.567 -127.166 235.36C-126.009 231.587 -123.252 228.433 -117.736 222.124C-112.26 215.862 -109.522 212.73 -108.363 208.987C-107.985 207.765 -107.735 206.506 -107.617 205.233C-107.255 201.331 -108.58 197.406 -111.232 189.555C-113.883 181.705 -115.209 177.78 -114.847 173.878C-114.728 172.604 -114.478 171.346 -114.1 170.124C-112.941 166.381 -110.192 163.237 -104.694 156.949C-99.1963 150.66 -96.4473 147.516 -92.8922 145.868C-91.7315 145.33 -90.518 144.914 -89.2713 144.627C-85.4527 143.747 -81.3858 144.537 -73.2519 146.117C-65.118 147.696 -61.051 148.486 -57.2325 147.607C-55.9858 147.319 -54.7723 146.903 -53.6116 146.365C-50.0565 144.717 -47.3185 141.586 -41.8427 135.323C-36.327 129.014 -33.5692 125.86 -29.9844 124.21C-28.8371 123.683 -27.6387 123.274 -26.4079 122.99C-22.5624 122.105 -18.4463 122.918 -10.2142 124.542C-2.11132 126.141 1.94011 126.941 5.1239 129.163C6.22608 129.933 7.24096 130.82 8.15048 131.809C10.7778 134.668 12.1039 138.555 14.7561 146.33C17.4083 154.105 18.7344 157.992 21.3617 160.851C22.2713 161.841 23.2861 162.728 24.3883 163.497C27.5721 165.72 31.6017 166.515 39.661 168.105C47.7202 169.696 51.7498 170.491 54.9336 172.713C56.0358 173.483 57.0507 174.37 57.9602 175.36C60.5875 178.218 61.9208 182.127 64.5873 189.943C67.2964 197.885 68.651 201.856 68.2871 205.785C68.1706 207.043 67.9255 208.285 67.5554 209.492C66.3992 213.265 63.6524 216.407 58.1588 222.69C52.6652 228.973 49.9184 232.115 48.7622 235.888C48.3922 237.095 48.147 238.338 48.0305 239.595C47.6666 243.524 49.0139 247.474 51.7085 255.373C54.403 263.272 55.7503 267.222 55.3865 271.151C55.27 272.409 55.0248 273.651 54.6548 274.859C53.4986 278.631 50.7518 281.773 45.2581 288.056C39.7646 294.339 37.0178 297.481 33.4331 299.131C32.2857 299.659 31.0872 300.067 29.8563 300.351C26.0109 301.236 21.9169 300.428 13.7288 298.812C5.54063 297.196 1.44657 296.388 -2.39886 297.273C-3.62973 297.556 -4.8283 297.965 -5.97571 298.493C-9.56036 300.143 -12.3071 303.284 -17.8007 309.567C-23.2943 315.851 -26.0411 318.992 -29.6258 320.642C-30.7731 321.17 -31.9716 321.579 -33.2024 321.862C-37.0479 322.747 -41.164 321.935 -49.3961 320.31ZM1.5931 211.645C-1.04323 203.917 -2.36139 200.052 -4.95375 197.21C-5.9034 196.169 -6.96906 195.241 -8.12999 194.442C-11.2991 192.262 -15.2961 191.486 -23.2902 189.933C-31.2308 188.391 -35.201 187.62 -38.9353 188.442C-40.3035 188.743 -41.6329 189.199 -42.898 189.801C-46.3509 191.443 -49.0131 194.488 -54.3373 200.577L-54.7336 201.03C-60.0579 207.12 -62.7201 210.165 -63.8867 213.806C-64.3141 215.14 -64.5883 216.518 -64.704 217.914C-65.0199 221.725 -63.7258 225.557 -61.1376 233.221C-58.5319 240.936 -57.2291 244.794 -54.6454 247.643C-53.6989 248.687 -52.6361 249.619 -51.4777 250.421C-48.3152 252.611 -44.3096 253.402 -36.2985 254.983C-28.2499 256.571 -24.2256 257.365 -20.4504 256.529C-19.1182 256.234 -17.8227 255.792 -16.5878 255.211C-13.0887 253.566 -10.3594 250.445 -4.90102 244.202L-4.90087 244.202L-4.90072 244.201L-4.90057 244.201L-4.90042 244.201C0.558344 237.958 3.28771 234.836 4.451 231.148C4.86153 229.847 5.12652 228.504 5.24118 227.145C5.56602 223.292 4.24171 219.409 1.5931 211.645ZM24.0364 98.6498C31.5555 98.1456 37.2006 91.6891 48.4909 78.776L54.8307 71.525C66.1209 58.6119 71.7661 52.1554 71.2619 44.6364C70.7578 37.1174 64.3013 31.4722 51.3882 20.1819L44.1372 13.8422C31.2241 2.55188 24.7676 -3.09324 17.2486 -2.5891C9.72955 -2.08496 4.08442 4.37157 -7.20586 17.2846L-13.5457 24.5357C-24.8359 37.4487 -30.481 43.9052 -29.9769 51.4243C-29.4728 58.9433 -23.0163 64.5884 -10.1032 75.8787L-2.85215 82.2185C10.0609 93.5088 16.5174 99.1539 24.0364 98.6498ZM52.7776 101.795C53.0849 95.4701 57.8789 89.9869 67.4671 79.0207C77.0552 68.0544 81.8493 62.5712 88.0766 61.4223C89.4558 61.1679 90.8597 61.0737 92.2605 61.1418C98.5855 61.4491 104.069 66.2432 115.035 75.8313C126.001 85.4195 131.484 90.2135 132.633 96.4409C132.888 97.82 132.982 99.224 132.914 100.625C132.606 106.95 127.812 112.433 118.224 123.399C108.636 134.365 103.842 139.849 97.6147 140.997C96.2356 141.252 94.8316 141.346 93.4308 141.278C87.1059 140.971 81.6227 136.177 70.6564 126.588C59.6902 117 54.207 112.206 53.0581 105.979C52.8036 104.6 52.7095 103.196 52.7776 101.795ZM105.629 43.4695C105.124 35.9505 110.77 29.4939 122.06 16.5809L128.4 9.32985C139.69 -3.58321 145.335 -10.0397 152.854 -10.5439C160.373 -11.048 166.83 -5.40288 179.743 5.88739L186.994 12.2272C199.907 23.5174 206.363 29.1626 206.867 36.6816C207.372 44.2006 201.726 50.6572 190.436 63.5702L184.096 70.8212C172.806 83.7343 167.161 90.1908 159.642 90.695C152.123 91.1991 145.666 85.554 132.753 74.2637L125.502 67.9239C112.589 56.6336 106.133 50.9885 105.629 43.4695ZM59.8841 -7.26863C60.9475 -9.45449 62.831 -11.6087 66.5979 -15.9171C70.3649 -20.2255 72.2484 -22.3797 74.2727 -23.7254C79.6439 -27.2961 86.5042 -27.7561 92.304 -24.9344C94.4899 -23.8709 96.6441 -21.9875 100.952 -18.2205C105.261 -14.4535 107.415 -12.5701 108.761 -10.5457C112.331 -5.17452 112.791 1.68577 109.97 7.48558C108.906 9.67143 107.023 11.8256 103.256 16.134C99.4889 20.4424 97.6054 22.5966 95.5811 23.9424C90.2099 27.5131 83.3496 27.973 77.5498 25.1513C75.364 24.0879 73.2098 22.2044 68.9014 18.4374C64.593 14.6705 62.4388 12.787 61.093 10.7627C57.5223 5.39147 57.0624 -1.4688 59.8841 -7.26863ZM-53.976 83.7252C-47.8004 103.87 -71.9029 119.486 -87.7649 105.618L-137.887 61.7943C-146.59 54.1854 -147.476 40.9623 -139.867 32.2597L-95.2535 -18.7665C-81.4478 -34.5565 -55.5809 -22.4849 -58.8155 -1.76146L-65.2816 39.6661C-65.7703 42.7974 -65.5416 45.9989 -64.6127 49.0289L-53.976 83.7252ZM108.652 178.8C111.093 175.453 115.751 174.724 125.067 173.265L218.558 158.629C227.874 157.17 232.532 156.441 235.879 158.882C239.226 161.323 239.956 165.981 241.414 175.297L244.746 196.58C245.531 201.596 245.924 204.104 247.726 205.419C249.528 206.733 252.037 206.34 257.053 205.555L267.694 203.889C277.01 202.431 281.668 201.701 285.015 204.142C288.363 206.583 289.092 211.241 290.55 220.557L293.882 241.84C294.667 246.856 295.06 249.364 296.862 250.679C298.665 251.993 301.173 251.6 306.189 250.815L315.31 249.387C324.626 247.929 329.284 247.199 332.631 249.64C335.979 252.081 336.708 256.74 338.166 266.056L340.07 278.217C341.529 287.533 342.258 292.191 339.817 295.538C337.376 298.885 332.718 299.614 323.402 301.073L229.911 315.709C220.595 317.168 215.937 317.897 212.59 315.456C209.243 313.015 208.514 308.357 207.055 299.041L203.723 277.759C202.938 272.742 202.545 270.234 200.743 268.92C198.941 267.605 196.433 267.998 191.416 268.783L182.295 270.211C172.979 271.67 168.321 272.399 164.974 269.958C161.627 267.517 160.898 262.859 159.439 253.543L156.107 232.26L156.107 232.26C155.322 227.244 154.929 224.736 153.127 223.422C151.325 222.107 148.816 222.5 143.8 223.285L133.159 224.951C123.843 226.41 119.185 227.139 115.838 224.698C112.491 222.257 111.761 217.599 110.303 208.283L108.399 196.121C106.941 186.805 106.211 182.147 108.652 178.8Z" fill="#FFA435" fill-opacity="0.5"/>
<path d="M37.5806 193.423H36.4868C36.0252 193.423 35.7837 193.195 35.6132 192.755C35.109 191.427 33.8661 190.681 32.3391 190.681C29.9598 190.681 28.2837 192.507 28.2837 195.788C28.2837 199.126 29.974 200.894 32.332 200.894C33.8306 200.894 35.0735 200.184 35.599 198.892C35.7766 198.451 36.0252 198.238 36.4868 198.238L37.5735 198.245C38.1203 198.245 38.4257 198.572 38.2624 199.097C37.5522 201.47 35.3931 203.259 32.2965 203.259C28.4613 203.259 25.6346 200.482 25.6346 195.788C25.6346 191.086 28.4968 188.316 32.2965 188.316C35.2226 188.316 37.5451 189.865 38.2766 192.563C38.4257 193.096 38.1275 193.423 37.5806 193.423ZM45.292 203.274C42.096 203.274 40.0648 201.022 40.0648 197.649C40.0648 194.268 42.096 192.009 45.292 192.009C48.4881 192.009 50.5193 194.268 50.5193 197.649C50.5193 201.022 48.4881 203.274 45.292 203.274ZM45.3062 201.214C47.0463 201.214 47.9128 199.637 47.9128 197.642C47.9128 195.646 47.0463 194.048 45.3062 194.048C43.5378 194.048 42.6713 195.646 42.6713 197.642C42.6713 199.637 43.5378 201.214 45.3062 201.214ZM55.0525 196.669V202.279C55.0525 202.784 54.7755 203.061 54.2713 203.061H53.2627C52.7585 203.061 52.4815 202.784 52.4815 202.279V192.933C52.4815 192.428 52.7585 192.151 53.2627 192.151H54.1576C54.6619 192.151 54.9389 192.428 54.9389 192.933V194.005H55.0667C55.5639 192.791 56.686 192.009 58.3196 192.009C60.571 192.009 62.0624 193.501 62.0553 196.115V202.279C62.0553 202.784 61.7784 203.061 61.2741 203.061H60.2656C59.7613 203.061 59.4843 202.784 59.4843 202.279V196.512C59.4843 195.056 58.6889 194.183 57.3607 194.183C56.0042 194.183 55.0525 195.092 55.0525 196.669ZM69.9746 192.933V193.359C69.9746 193.863 69.6976 194.14 69.1933 194.14H67.7089V202.279C67.7089 202.784 67.4319 203.061 66.9277 203.061H65.9192C65.4149 203.061 65.1379 202.784 65.1379 202.279V194.14H64.3069C63.8027 194.14 63.5257 193.863 63.5257 193.359V192.933C63.5257 192.428 63.8027 192.151 64.3069 192.151H65.1379V191.122C65.1379 188.92 66.6507 187.833 68.547 187.833C68.9944 187.833 69.4064 187.883 69.7473 187.94C70.2444 188.032 70.4291 188.394 70.3013 188.892L70.1734 189.389C70.0527 189.865 69.8254 190.063 69.5129 190.007C69.3638 189.978 69.2004 189.964 69.0228 189.964C68.064 189.964 67.7089 190.44 67.7089 191.292V192.151H69.1933C69.6976 192.151 69.9746 192.428 69.9746 192.933ZM73.0607 190.603C72.2368 190.603 71.5692 189.978 71.5692 189.211C71.5692 188.437 72.2368 187.812 73.0607 187.812C73.8774 187.812 74.545 188.437 74.545 189.211C74.545 189.978 73.8774 190.603 73.0607 190.603ZM71.768 202.279V192.933C71.768 192.428 72.045 192.151 72.5493 192.151H73.5578C74.0621 192.151 74.3391 192.428 74.3391 192.933V202.279C74.3391 202.784 74.0621 203.061 73.5578 203.061H72.5493C72.045 203.061 71.768 202.784 71.768 202.279ZM81.5072 207.379C79.2203 207.379 77.7501 206.548 77.0399 205.397C76.7629 204.936 77.0044 204.545 77.5299 204.417L78.3609 204.218C78.8012 204.112 79.0711 204.268 79.3694 204.609C79.7743 205.056 80.4419 205.433 81.5498 205.433C83.0129 205.433 84.0782 204.772 84.0782 203.167V201.1H83.9504C83.5527 201.903 82.6791 202.904 80.8112 202.904C78.297 202.904 76.3154 201.129 76.3154 197.57C76.3154 193.984 78.297 192.009 80.8183 192.009C82.743 192.009 83.5598 193.167 83.9504 193.955H84.0924V192.933C84.0924 192.428 84.3694 192.151 84.8737 192.151H85.8467C86.351 192.151 86.6279 192.428 86.6279 192.933V203.238C86.6279 206.029 84.4547 207.379 81.5072 207.379ZM81.5285 200.887C83.1691 200.887 84.0924 199.637 84.0924 197.556C84.0924 195.49 83.1833 194.119 81.5285 194.119C79.8169 194.119 78.9362 195.575 78.9362 197.556C78.9362 199.566 79.8311 200.887 81.5285 200.887ZM95.996 198.472V192.933C95.996 192.428 96.273 192.151 96.7773 192.151H97.7858C98.29 192.151 98.567 192.428 98.567 192.933V202.279C98.567 202.784 98.29 203.061 97.7858 203.061H96.8554C96.3511 203.061 96.0741 202.784 96.0741 202.279V201.122H95.9605C95.4633 202.343 94.3128 203.203 92.6793 203.203C90.5344 203.203 89.0429 201.718 89.0429 199.097V192.933C89.0429 192.428 89.3199 192.151 89.8241 192.151H90.8327C91.3369 192.151 91.6139 192.428 91.6139 192.933V198.7C91.6139 200.085 92.4378 200.958 93.6736 200.958C94.8099 200.958 95.996 200.134 95.996 198.472ZM100.991 202.279V192.933C100.991 192.428 101.268 192.151 101.772 192.151H102.703C103.207 192.151 103.484 192.428 103.484 192.933V193.97H103.597C103.995 192.705 105.039 191.995 106.289 191.995H106.474C106.964 192.017 107.212 192.322 107.212 192.812V193.593C107.212 194.126 106.999 194.367 106.623 194.318C106.424 194.296 106.211 194.282 106.019 194.282C104.606 194.282 103.562 195.262 103.562 196.647V202.279C103.562 202.784 103.285 203.061 102.781 203.061H101.772C101.268 203.061 100.991 202.784 100.991 202.279ZM111.625 203.281C109.544 203.281 107.974 202.144 107.974 199.999C107.974 197.542 109.998 196.91 112.115 196.683C114.04 196.477 114.814 196.441 114.814 195.703V195.66C114.814 194.588 114.16 193.977 112.967 193.977C112.051 193.977 111.419 194.318 111.043 194.786C110.766 195.149 110.517 195.333 110.07 195.269L109.21 195.149C108.663 195.07 108.4 194.694 108.663 194.197C109.437 192.748 111 192.009 112.953 192.009C115.034 192.009 117.385 192.876 117.385 195.759V202.279C117.385 202.784 117.108 203.061 116.604 203.061H115.695C115.19 203.061 114.913 202.791 114.913 202.308V201.562H114.828C114.359 202.478 113.337 203.281 111.625 203.281ZM112.293 201.392C113.841 201.392 114.821 200.362 114.821 199.147V197.862C114.487 198.132 113.138 198.302 112.463 198.394C111.312 198.558 110.453 198.97 110.453 199.957C110.453 200.901 111.22 201.392 112.293 201.392ZM119.864 202.279V189.296C119.864 188.792 120.141 188.515 120.645 188.515H121.653C122.158 188.515 122.435 188.792 122.435 189.296V193.955H122.541C122.932 193.167 123.734 192.009 125.659 192.009C128.18 192.009 130.162 193.984 130.162 197.62C130.162 201.214 128.237 203.252 125.666 203.252C123.791 203.252 122.946 202.137 122.541 201.342H122.392V202.279C122.392 202.784 122.115 203.061 121.611 203.061H120.645C120.141 203.061 119.864 202.784 119.864 202.279ZM122.385 197.606C122.385 199.722 123.308 201.143 124.949 201.143C126.646 201.143 127.541 199.651 127.541 197.606C127.541 195.575 126.661 194.119 124.949 194.119C123.294 194.119 122.385 195.49 122.385 197.606ZM134.699 189.296V202.279C134.699 202.784 134.422 203.061 133.918 203.061H132.909C132.405 203.061 132.128 202.784 132.128 202.279V189.296C132.128 188.792 132.405 188.515 132.909 188.515H133.918C134.422 188.515 134.699 188.792 134.699 189.296ZM141.952 203.274C138.664 203.274 136.654 201.093 136.654 197.67C136.654 194.303 138.692 192.009 141.817 192.009C144.502 192.009 146.803 193.693 146.803 197.521V197.528C146.803 198.032 146.526 198.309 146.022 198.309H139.204C139.225 200.177 140.326 201.271 141.988 201.271C142.84 201.271 143.543 200.987 143.976 200.433C144.253 200.07 144.509 199.886 144.949 199.936L145.816 200.035C146.363 200.099 146.647 200.397 146.469 200.802C145.802 202.315 144.182 203.274 141.952 203.274ZM139.211 196.576H144.338C144.324 195.092 143.33 194.012 141.853 194.012C140.319 194.012 139.289 195.184 139.211 196.576ZM26.0039 232.279V219.296C26.0039 218.792 26.2809 218.515 26.7851 218.515H31.5721C34.7255 218.515 36.288 220.12 36.288 222.286C36.288 224.055 35.1658 225.049 33.7454 225.383V225.525C35.2936 225.603 36.8561 226.896 36.8561 229.097C36.8561 231.363 35.2226 233.061 31.8917 233.061H26.7851C26.2809 233.061 26.0039 232.784 26.0039 232.279ZM28.6388 224.701H31.2454C32.6161 224.701 33.653 223.906 33.653 222.627C33.653 221.505 32.8505 220.688 31.3022 220.688H28.6388V224.701ZM28.6388 230.859H31.4726C33.3831 230.859 34.1786 230.049 34.1786 228.892C34.1786 227.592 33.1701 226.597 31.5436 226.597H28.6388V230.859ZM43.5733 233.274C40.3773 233.274 38.346 231.022 38.346 227.649C38.346 224.268 40.3773 222.009 43.5733 222.009C46.7693 222.009 48.8006 224.268 48.8006 227.649C48.8006 231.022 46.7693 233.274 43.5733 233.274ZM43.5875 231.214C45.3276 231.214 46.194 229.637 46.194 227.642C46.194 225.646 45.3276 224.048 43.5875 224.048C41.819 224.048 40.9526 225.646 40.9526 227.642C40.9526 229.637 41.819 231.214 43.5875 231.214ZM53.3338 226.668V232.279C53.3338 232.784 53.0568 233.061 52.5525 233.061H51.544C51.0397 233.061 50.7627 232.784 50.7627 232.279V222.933C50.7627 222.428 51.0397 222.151 51.544 222.151H52.4389C52.9431 222.151 53.2201 222.428 53.2201 222.933V224.005H53.348C53.8451 222.791 54.9673 222.009 56.6008 222.009C58.8522 222.009 60.3437 223.501 60.3366 226.115V232.279C60.3366 232.784 60.0596 233.061 59.5553 233.061H58.5468C58.0426 233.061 57.7656 232.784 57.7656 232.279V226.512C57.7656 225.056 56.9701 224.183 55.642 224.183C54.2855 224.183 53.3338 225.092 53.3338 226.668ZM66.7785 233.252C64.2075 233.252 62.2828 231.214 62.2828 227.62C62.2828 223.984 64.2643 222.009 66.7856 222.009C68.7103 222.009 69.5129 223.167 69.9035 223.955H70.0101V219.296C70.0101 218.792 70.2871 218.515 70.7913 218.515H71.8069C72.3112 218.515 72.5882 218.792 72.5882 219.296V232.279C72.5882 232.784 72.3112 233.061 71.8069 233.061H70.841C70.3368 233.061 70.0598 232.784 70.0598 232.279V231.342H69.9035C69.4987 232.137 68.6535 233.252 66.7785 233.252ZM67.4959 231.143C69.1365 231.143 70.0598 229.722 70.0598 227.606C70.0598 225.49 69.1507 224.119 67.4959 224.119C65.7842 224.119 64.9035 225.575 64.9035 227.606C64.9035 229.651 65.7984 231.143 67.4959 231.143ZM76.4005 220.603C75.5766 220.603 74.909 219.978 74.909 219.211C74.909 218.437 75.5766 217.812 76.4005 217.812C77.2173 217.812 77.8849 218.437 77.8849 219.211C77.8849 219.978 77.2173 220.603 76.4005 220.603ZM75.1079 232.279V222.933C75.1079 222.428 75.3849 222.151 75.8891 222.151H76.8977C77.4019 222.151 77.6789 222.428 77.6789 222.933V232.279C77.6789 232.784 77.4019 233.061 76.8977 233.061H75.8891C75.3849 233.061 75.1079 232.784 75.1079 232.279ZM82.6738 226.668V232.279C82.6738 232.784 82.3968 233.061 81.8925 233.061H80.884C80.3797 233.061 80.1027 232.784 80.1027 232.279V222.933C80.1027 222.428 80.3797 222.151 80.884 222.151H81.7789C82.2831 222.151 82.5601 222.428 82.5601 222.933V224.005H82.688C83.1851 222.791 84.3073 222.009 85.9408 222.009C88.1922 222.009 89.6837 223.501 89.6766 226.115V232.279C89.6766 232.784 89.3996 233.061 88.8953 233.061H87.8868C87.3826 233.061 87.1056 232.784 87.1056 232.279V226.512C87.1056 225.056 86.3101 224.183 84.982 224.183C83.6255 224.183 82.6738 225.092 82.6738 226.668ZM96.8146 237.379C94.5276 237.379 93.0574 236.548 92.3472 235.397C92.0702 234.936 92.3117 234.545 92.8373 234.417L93.6682 234.218C94.1086 234.112 94.3785 234.268 94.6768 234.609C95.0816 235.056 95.7492 235.433 96.8572 235.433C98.3202 235.433 99.3856 234.772 99.3856 233.167V231.1H99.2577C98.86 231.903 97.9864 232.904 96.1185 232.904C93.6043 232.904 91.6228 231.129 91.6228 227.57C91.6228 223.984 93.6043 222.009 96.1256 222.009C98.0503 222.009 98.8671 223.167 99.2577 223.955H99.3998V222.933C99.3998 222.428 99.6768 222.151 100.181 222.151H101.154C101.658 222.151 101.935 222.428 101.935 222.933V233.238C101.935 236.029 99.762 237.379 96.8146 237.379ZM96.8359 230.887C98.4765 230.887 99.3998 229.637 99.3998 227.556C99.3998 225.49 98.4907 224.119 96.8359 224.119C95.1242 224.119 94.2435 225.575 94.2435 227.556C94.2435 229.566 95.1384 230.887 96.8359 230.887ZM120.782 223.423H119.688C119.226 223.423 118.985 223.195 118.814 222.755C118.31 221.427 117.067 220.681 115.54 220.681C113.161 220.681 111.485 222.507 111.485 225.788C111.485 229.126 113.175 230.894 115.533 230.894C117.032 230.894 118.274 230.184 118.8 228.892C118.978 228.451 119.226 228.238 119.688 228.238L120.774 228.245C121.321 228.245 121.627 228.572 121.463 229.097C120.753 231.47 118.594 233.259 115.497 233.259C111.662 233.259 108.835 230.482 108.835 225.788C108.835 221.086 111.698 218.316 115.497 218.316C118.424 218.316 120.746 219.865 121.478 222.563C121.627 223.096 121.328 223.423 120.782 223.423ZM130.688 228.472V222.933C130.688 222.428 130.965 222.151 131.469 222.151H132.477C132.982 222.151 133.259 222.428 133.259 222.933V232.279C133.259 232.784 132.982 233.061 132.477 233.061H131.547C131.043 233.061 130.766 232.784 130.766 232.279V231.122H130.652C130.155 232.343 129.004 233.203 127.371 233.203C125.226 233.203 123.734 231.718 123.734 229.097V222.933C123.734 222.428 124.011 222.151 124.516 222.151H125.524C126.028 222.151 126.305 222.428 126.305 222.933V228.7C126.305 230.085 127.129 230.958 128.365 230.958C129.501 230.958 130.688 230.134 130.688 228.472ZM135.682 232.279V222.933C135.682 222.428 135.959 222.151 136.464 222.151H137.394C137.898 222.151 138.175 222.428 138.175 222.933V223.97H138.289C138.687 222.705 139.731 221.995 140.981 221.995H141.165C141.655 222.017 141.904 222.322 141.904 222.812V223.593C141.904 224.126 141.691 224.367 141.315 224.318C141.116 224.296 140.903 224.282 140.711 224.282C139.297 224.282 138.253 225.262 138.253 226.647V232.279C138.253 232.784 137.976 233.061 137.472 233.061H136.464C135.959 233.061 135.682 232.784 135.682 232.279ZM153.149 223.046L149.811 232.428C149.662 232.855 149.37 233.061 148.916 233.061H147.41C146.956 233.061 146.664 232.855 146.515 232.428L143.177 223.046C142.986 222.507 143.234 222.151 143.809 222.151H144.917C145.372 222.151 145.663 222.357 145.798 222.798L148.106 230.255H148.22L150.535 222.798C150.67 222.357 150.961 222.151 151.416 222.151H152.517C153.092 222.151 153.341 222.507 153.149 223.046ZM159.486 233.274C156.198 233.274 154.188 231.093 154.188 227.67C154.188 224.303 156.226 222.009 159.351 222.009C162.036 222.009 164.337 223.693 164.337 227.521V227.528C164.337 228.032 164.06 228.309 163.556 228.309H156.737C156.759 230.177 157.86 231.271 159.522 231.271C160.374 231.271 161.077 230.987 161.51 230.433C161.787 230.07 162.043 229.886 162.483 229.936L163.35 230.035C163.897 230.099 164.181 230.397 164.003 230.802C163.335 232.315 161.716 233.274 159.486 233.274ZM156.745 226.576H161.872C161.858 225.092 160.864 224.012 159.387 224.012C157.853 224.012 156.823 225.184 156.745 226.576ZM174.055 225.127L173.238 225.22C172.791 225.269 172.549 225.07 172.286 224.694C171.96 224.254 171.398 223.927 170.56 223.927C169.488 223.927 168.671 224.438 168.678 225.177C168.671 225.809 169.112 226.193 170.22 226.441L172.08 226.839C174.14 227.286 175.141 228.238 175.148 229.793C175.141 231.86 173.217 233.274 170.489 233.274C168.202 233.274 166.64 232.407 166.036 230.901C165.83 230.397 166.129 230.049 166.661 229.999L167.634 229.907C168.089 229.865 168.323 230.07 168.572 230.468C168.934 231.043 169.587 231.335 170.482 231.335C171.704 231.335 172.514 230.774 172.514 230.028C172.514 229.41 172.045 229.005 171.043 228.785L169.183 228.394C167.087 227.961 166.107 226.91 166.114 225.319C166.107 223.302 167.897 222.009 170.525 222.009C172.677 222.009 174.069 222.847 174.666 224.211C174.879 224.715 174.595 225.07 174.055 225.127Z" fill="white"/>
<path fill-rule="evenodd" clip-rule="evenodd" d="M348.318 30.7776C320.097 30.7776 297.219 53.6556 297.219 81.877C297.219 100.776 307.479 117.279 322.733 126.12C320.147 137.849 316.531 149.357 311.912 160.507C301.586 185.436 286.452 208.086 267.372 227.166C248.292 246.246 225.641 261.38 200.713 271.706C175.784 282.032 149.066 287.347 122.083 287.347L122.083 320.778C153.456 320.778 184.521 314.598 213.506 302.592C242.491 290.586 268.827 272.989 291.011 250.805C313.195 228.621 330.792 202.285 342.798 173.3C348.28 160.067 352.547 146.399 355.566 132.466C380.355 128.947 399.418 107.638 399.418 81.877C399.418 53.6556 376.54 30.7776 348.318 30.7776Z" fill="url(#paint1_linear_140_121)"/>
</g>
<rect x="1.56921" y="1.42041" width="427.715" height="280.64" rx="23" stroke="url(#paint2_linear_140_121)" stroke-opacity="0.5" stroke-width="2"/>
<defs>
<linearGradient id="paint0_linear_140_121" x1="215.427" y1="0.42041" x2="215.427" y2="283.06" gradientUnits="userSpaceOnUse">
<stop stop-color="#FFBF44"/>
<stop offset="1" stop-color="#FFA844"/>
</linearGradient>
<linearGradient id="paint1_linear_140_121" x1="260.75" y1="30.7776" x2="260.75" y2="320.778" gradientUnits="userSpaceOnUse">
<stop stop-color="#FFE2AE"/>
<stop offset="1" stop-color="#FFBF45"/>
</linearGradient>
<linearGradient id="paint2_linear_140_121" x1="-19.215" y1="-89.5787" x2="430.28" y2="393.421" gradientUnits="userSpaceOnUse">
<stop stop-color="white"/>
<stop offset="0.5" stop-color="white" stop-opacity="0"/>
<stop offset="1" stop-color="white"/>
</linearGradient>
<clipPath id="clip0_140_121">
<rect x="0.569214" y="0.42041" width="429.715" height="282.64" rx="24" fill="white"/>
</clipPath>
</defs>
</svg>
