<svg width="430" height="284" viewBox="0 0 430 284" fill="none" xmlns="http://www.w3.org/2000/svg">
<g clip-path="url(#clip0_140_140)">
<rect x="0.284668" y="0.777344" width="429.715" height="282.643" rx="24" fill="url(#paint0_linear_140_140)"/>
<path fill-rule="evenodd" clip-rule="evenodd" d="M-329.537 21.4019C-323.755 11.0071 -310.641 7.2676 -300.246 13.0496L-261.154 34.7942C-250.759 40.5762 -247.02 53.6902 -252.802 64.0851L-277.653 108.762C-283.435 119.157 -296.549 122.896 -306.944 117.114C-313.046 113.72 -316.854 107.799 -317.79 101.386C-323.921 107.873 -328.542 115.466 -330.928 124.338C-337.338 148.181 -328.424 169.156 -319.123 179.314C-311.09 188.086 -311.69 201.71 -320.462 209.743C-329.234 217.776 -342.858 217.176 -350.891 208.404C-368.876 188.764 -383.22 152.935 -372.525 113.155C-364.971 85.0565 -346.107 66.0702 -327.441 53.8733C-325.558 52.6426 -323.663 51.4716 -321.766 50.3581C-331.717 44.4174 -335.21 31.6009 -329.537 21.4019ZM-234.768 104.809C-242.801 96.0364 -242.201 82.4128 -233.429 74.3798C-224.656 66.3469 -211.033 66.9463 -203 75.7188C-185.015 95.359 -170.67 131.187 -181.365 170.968C-188.92 199.066 -207.783 218.052 -226.449 230.249C-228.333 231.48 -230.228 232.651 -232.125 233.764C-222.173 239.705 -218.681 252.522 -224.354 262.721C-230.136 273.116 -243.25 276.855 -253.644 271.073L-292.737 249.328C-303.131 243.546 -306.871 230.432 -301.089 220.038L-276.238 175.361C-270.456 164.966 -257.342 161.226 -246.947 167.008C-240.845 170.403 -237.037 176.323 -236.101 182.737C-229.97 176.25 -225.349 168.657 -222.963 159.784C-216.553 135.942 -225.466 114.966 -234.768 104.809ZM-69.7766 -150.156C-81.8282 -146.413 -87.8539 -144.542 -92.3309 -140.65C-93.8807 -139.302 -95.2788 -137.79 -96.5003 -136.139C-100.029 -131.37 -101.413 -125.248 -104.183 -113.006C-106.952 -100.764 -108.336 -94.6429 -111.865 -89.8738C-113.086 -88.2229 -114.484 -86.7103 -116.034 -85.3628C-120.511 -81.4705 -126.505 -79.6091 -138.491 -75.8862C-150.478 -72.1634 -156.471 -70.3019 -160.948 -66.4096C-162.498 -65.0622 -163.896 -63.5495 -165.118 -61.8986C-168.646 -57.1295 -170.038 -50.9753 -172.822 -38.6668C-175.651 -26.1619 -177.065 -19.9095 -175.876 -13.9988C-175.495 -12.107 -174.921 -10.2593 -174.163 -8.48461C-171.795 -2.9399 -167.094 1.40534 -157.691 10.0958C-148.356 18.7236 -143.689 23.0374 -141.322 28.5369C-140.549 30.3324 -139.965 32.2033 -139.579 34.1196C-138.396 39.989 -139.774 46.1674 -142.53 58.5241C-145.286 70.8808 -146.664 77.0591 -145.481 82.9285C-145.095 84.8448 -144.511 86.7158 -143.738 88.5113C-141.371 94.0107 -136.684 98.342 -127.312 107.004C-117.94 115.667 -113.254 119.998 -107.585 121.926C-105.734 122.555 -103.823 122.991 -101.883 123.225C-95.9384 123.943 -89.8874 122.083 -77.7855 118.365C-65.6836 114.646 -59.6327 112.787 -53.6885 113.505C-51.7478 113.739 -49.8367 114.174 -47.9861 114.804C-42.3175 116.731 -37.6502 121.045 -28.3155 129.673C-18.9129 138.364 -14.2116 142.709 -8.49789 144.634C-6.66915 145.25 -4.78208 145.677 -2.86618 145.908C3.11972 146.629 9.24165 144.728 21.4856 140.925C33.5372 137.182 39.5629 135.311 44.0399 131.418C45.5897 130.071 46.9878 128.558 48.2093 126.907C51.7377 122.138 53.1223 116.017 55.8916 103.775C58.6608 91.5326 60.0455 85.4115 63.5739 80.6425C64.7953 78.9915 66.1934 77.4789 67.7433 76.1314C72.2202 72.2391 78.2136 70.3777 90.2003 66.6548C102.187 62.932 108.18 61.0705 112.657 57.1782C114.207 55.8308 115.605 54.3181 116.827 52.6672C120.355 47.8982 121.747 41.7439 124.531 29.4355C127.36 16.9305 128.774 10.6781 127.585 4.76739C127.204 2.87561 126.63 1.02788 125.872 -0.746731C123.504 -6.29148 118.821 -10.6194 109.456 -19.2752C100.091 -27.9308 95.409 -32.2587 93.0409 -37.8033C92.2829 -39.578 91.709 -41.4257 91.3282 -43.3175C90.1385 -49.2282 91.5453 -55.4472 94.3587 -67.8853C97.1722 -80.3233 98.579 -86.5423 97.3893 -92.453C97.0085 -94.3448 96.4346 -96.1926 95.6766 -97.9672C93.3085 -103.512 88.626 -107.84 79.261 -116.495C69.8961 -125.151 65.2136 -129.479 59.5 -131.404C57.6712 -132.02 55.7839 -132.447 53.8679 -132.678C47.8821 -133.399 41.7929 -131.508 29.6146 -127.726C17.4362 -123.943 11.347 -122.052 5.36109 -122.774C3.44508 -123.005 1.55784 -123.432 -0.271037 -124.048C-5.98462 -125.973 -10.667 -130.301 -20.0319 -138.956C-29.3969 -147.612 -34.0794 -151.94 -39.793 -153.865C-41.6218 -154.481 -43.509 -154.908 -45.4249 -155.139C-51.4108 -155.861 -57.5328 -153.959 -69.7766 -150.156ZM25.3058 6.67505C22.5531 18.8443 21.1768 24.9289 17.6988 29.6667C16.4247 31.4023 14.9562 32.9863 13.3219 34.3879C8.86063 38.2137 2.914 40.0409 -8.97876 43.6949L-8.97959 43.6951L-8.98042 43.6953C-20.7947 47.3252 -26.7018 49.1401 -32.5085 48.497C-34.636 48.2613 -36.7297 47.7844 -38.7493 47.0753C-44.2616 45.1398 -48.7998 40.9454 -57.876 32.5565L-58.5516 31.9321C-67.6279 23.5432 -72.1661 19.3487 -74.5288 14.0055C-75.3944 12.048 -76.0344 9.99821 -76.4365 7.89592C-77.5341 2.15771 -76.189 -3.87385 -73.499 -15.9369C-70.7908 -28.0812 -69.4367 -34.1534 -65.9731 -38.9018C-64.7044 -40.6412 -63.2407 -42.2296 -61.6107 -43.6361C-57.1609 -47.4757 -51.2033 -49.3261 -39.2881 -53.0267C-27.3172 -56.7447 -21.3318 -58.6036 -15.4606 -57.945C-13.3887 -57.7125 -11.3489 -57.2511 -9.37854 -56.5691C-3.79549 -54.6368 0.857343 -50.3363 10.163 -41.7353C19.4686 -33.1344 24.1214 -28.834 26.4865 -23.4201C27.3211 -21.5095 27.9414 -19.5124 28.336 -17.4651C29.4541 -11.664 28.0713 -5.55096 25.3058 6.67505ZM77.7201 174.711C89.2255 174.258 98.8488 183.153 118.095 200.942L128.903 210.931C148.149 228.72 157.773 237.614 158.226 249.12C158.678 260.625 149.784 270.248 131.995 289.495L122.006 300.302C104.217 319.549 95.3227 329.172 83.8172 329.625C72.3118 330.078 62.6885 321.183 43.4419 303.395L32.6345 293.406C13.3879 275.617 3.76459 266.722 3.31173 255.217C2.85892 243.711 11.7534 234.088 29.5423 214.841L39.5313 204.034C57.3201 184.787 66.2146 175.164 77.7201 174.711ZM120.878 165.274C122.37 174.834 130.542 182.388 146.887 197.495C163.232 212.602 171.405 220.155 181.052 220.891C183.189 221.054 185.337 220.97 187.454 220.639C197.014 219.147 204.568 210.975 219.675 194.63C234.782 178.285 242.335 170.112 243.071 160.465C243.235 158.328 243.15 156.18 242.819 154.063C241.327 144.503 233.155 136.949 216.81 121.842C200.465 106.735 192.292 99.1818 182.645 98.4456C180.508 98.2826 178.36 98.3671 176.243 98.6976C166.683 100.19 159.13 108.362 144.023 124.707C128.915 141.052 121.362 149.225 120.626 158.872C120.463 161.009 120.547 163.157 120.878 165.274ZM210.63 245.322C211.083 256.827 220.706 265.722 239.953 283.511L250.76 293.5C270.007 311.289 279.63 320.183 291.136 319.73C302.641 319.277 311.536 309.654 329.325 290.407L339.313 279.6C357.102 260.353 365.997 250.73 365.544 239.225C365.091 227.719 355.468 218.825 336.221 201.036L325.414 191.047C306.167 173.258 296.544 164.363 285.039 164.816C273.533 165.269 264.639 174.892 246.85 194.139L236.861 204.947C219.072 224.193 210.177 233.816 210.63 245.322ZM149.351 329.823C151.322 332.972 154.532 335.939 160.954 341.875C167.375 347.81 170.586 350.777 173.88 352.494C182.619 357.048 193.117 356.635 201.471 351.408C204.62 349.438 207.587 346.227 213.523 339.806L213.523 339.805C219.458 333.384 222.425 330.173 224.142 326.879C228.696 318.14 228.283 307.643 223.056 299.288C221.086 296.14 217.875 293.172 211.453 287.237C205.032 281.302 201.821 278.334 198.527 276.618C189.788 272.063 179.291 272.476 170.936 277.704C167.788 279.674 164.82 282.884 158.885 289.306C152.95 295.727 149.982 298.938 148.266 302.232C143.711 310.971 144.124 321.469 149.351 329.823ZM-38.3812 210.031C-32.2637 178.424 -71.4143 158.605 -93.2656 182.247L-162.313 256.952C-174.302 269.923 -173.506 290.157 -160.535 302.146L-84.4814 372.439C-60.9468 394.191 -23.6036 371.658 -31.8771 340.697L-48.4162 278.803C-49.6663 274.125 -49.8378 269.224 -48.9176 264.47L-38.3812 210.031ZM193.288 39.2215C197.539 43.9113 204.734 44.2642 219.124 44.97L363.538 52.0531C377.929 52.7589 385.124 53.1118 389.814 48.8605C394.503 44.6093 394.856 37.4141 395.562 23.0238L397.174 -9.85089C397.555 -17.5995 397.745 -21.4739 400.27 -23.763C402.795 -26.0521 406.669 -25.8621 414.418 -25.482L430.855 -24.6758C445.246 -23.97 452.441 -23.6171 457.131 -27.8684C461.82 -32.1196 462.173 -39.3148 462.879 -53.7051L464.492 -86.5798C464.872 -94.3285 465.062 -98.2028 467.587 -100.492C470.112 -102.781 473.986 -102.591 481.735 -102.211L495.824 -101.52C510.215 -100.814 517.41 -100.461 522.1 -104.712C526.789 -108.964 527.142 -116.159 527.848 -130.549L528.769 -149.335C529.475 -163.725 529.828 -170.92 525.577 -175.61C521.326 -180.3 514.13 -180.653 499.74 -181.359L355.326 -188.442C340.936 -189.147 333.741 -189.5 329.051 -185.249C324.361 -180.998 324.008 -173.803 323.302 -159.412L321.69 -126.538C321.31 -118.789 321.12 -114.915 318.595 -112.626C316.069 -110.336 312.195 -110.526 304.446 -110.906L290.357 -111.597C275.967 -112.303 268.772 -112.656 264.082 -108.405C259.392 -104.154 259.039 -96.9585 258.334 -82.5682L256.721 -49.6935L256.721 -49.6932C256.341 -41.9448 256.151 -38.0705 253.626 -35.7814C251.101 -33.4923 247.226 -33.6823 239.478 -34.0624L223.04 -34.8686C208.65 -35.5744 201.455 -35.9273 196.765 -31.676C192.075 -27.4248 191.722 -20.2296 191.017 -5.83929L190.095 12.9463C189.389 27.3366 189.036 34.5318 193.288 39.2215Z" fill="#1F242C" fill-opacity="0.5"/>
<path d="M356.651 178.637C357.768 180.784 357.428 183.387 355.949 185.274L323.229 226.203C320.447 229.75 314.868 229.121 312.932 225.086L224.428 45.5468C222.273 41.2573 225.628 36.3185 230.357 36.6492L284.108 40.4078C286.315 40.5621 288.208 41.8088 289.178 43.7868L356.651 178.637Z" fill="url(#paint1_linear_140_140)"/>
<path d="M254.302 227.671C259.031 228.002 262.392 222.984 260.236 218.695L227.716 153.703C224.94 148.096 216.509 149.735 216.066 156.072L211.702 218.484C211.464 221.89 214.028 224.855 217.417 225.092L254.302 227.671Z" fill="url(#paint2_linear_140_140)"/>
<path d="M491.181 245.907C495.909 246.238 499.185 241.293 497.109 237.01L406.133 52.0447C405.163 50.0666 403.275 48.7408 401.068 48.5865L347.396 44.8333C342.668 44.5027 339.391 49.447 341.468 53.731L432.68 238.712C433.65 240.69 435.538 242.017 437.745 242.171L491.181 245.907Z" fill="url(#paint3_linear_140_140)"/>
<path d="M26.5006 188.875H28.2903C28.7378 188.875 29.0219 189.06 29.1923 189.479L33.2619 199.415H33.4324L37.502 189.479C37.6725 189.06 37.9565 188.875 38.404 188.875H40.1938C40.698 188.875 40.975 189.152 40.975 189.656V202.639C40.975 203.143 40.698 203.42 40.1938 203.42H39.2278C38.7236 203.42 38.4466 203.143 38.4466 202.639V193.428H38.3117L34.5403 202.767C34.3699 203.179 34.0858 203.378 33.6384 203.378H33.056C32.6085 203.378 32.3173 203.179 32.154 202.767L28.3827 193.406H28.2477V202.639C28.2477 203.143 27.9707 203.42 27.4665 203.42H26.5006C25.9963 203.42 25.7193 203.143 25.7193 202.639V189.656C25.7193 189.152 25.9963 188.875 26.5006 188.875ZM44.8033 190.963C43.9794 190.963 43.3118 190.338 43.3118 189.571C43.3118 188.797 43.9794 188.172 44.8033 188.172C45.6201 188.172 46.2877 188.797 46.2877 189.571C46.2877 190.338 45.6201 190.963 44.8033 190.963ZM43.5107 202.639V193.293C43.5107 192.788 43.7877 192.511 44.2919 192.511H45.3005C45.8047 192.511 46.0817 192.788 46.0817 193.293V202.639C46.0817 203.143 45.8047 203.42 45.3005 203.42H44.2919C43.7877 203.42 43.5107 203.143 43.5107 202.639ZM51.0766 197.028V202.639C51.0766 203.143 50.7996 203.42 50.2953 203.42H49.2868C48.7825 203.42 48.5055 203.143 48.5055 202.639V193.293C48.5055 192.788 48.7825 192.511 49.2868 192.511H50.1817C50.6859 192.511 50.9629 192.788 50.9629 193.293V194.365H51.0908C51.5879 193.151 52.7101 192.369 54.3436 192.369C56.595 192.369 58.0865 193.861 58.0794 196.474V202.639C58.0794 203.143 57.8024 203.42 57.2981 203.42H56.2896C55.7854 203.42 55.5084 203.143 55.5084 202.639V196.872C55.5084 195.416 54.7129 194.543 53.3848 194.543C52.0283 194.543 51.0766 195.452 51.0766 197.028ZM65.9205 193.293V193.719C65.9205 194.223 65.6435 194.5 65.1392 194.5H63.7685V200.139C63.7685 201.176 64.287 201.403 64.9333 201.403H64.9475C65.196 201.403 65.7358 201.553 65.8424 202.035L65.956 202.561C66.0625 203.051 65.8708 203.413 65.3736 203.499C65.1534 203.534 64.8977 203.562 64.6066 203.57C62.6747 203.626 61.1833 202.618 61.1975 200.565V194.5H60.4304C59.9262 194.5 59.6492 194.223 59.6492 193.719V193.293C59.6492 192.788 59.9262 192.511 60.4233 192.511H61.1975V190.679C61.1975 190.175 61.4745 189.898 61.9787 189.898H62.9872C63.4915 189.898 63.7685 190.175 63.7685 190.679V192.511H65.1392C65.6435 192.511 65.9205 192.788 65.9205 193.293ZM75.7308 203.641C73.6499 203.641 72.0803 202.504 72.0803 200.359C72.0803 197.902 74.1044 197.27 76.2209 197.043C78.1456 196.837 78.9198 196.801 78.9198 196.062V196.02C78.9198 194.947 78.2663 194.337 77.0732 194.337C76.157 194.337 75.5249 194.678 75.1484 195.146C74.8715 195.508 74.6229 195.693 74.1754 195.629L73.3161 195.508C72.7692 195.43 72.5064 195.054 72.7692 194.557C73.5433 193.108 75.1058 192.369 77.059 192.369C79.1399 192.369 81.4908 193.236 81.4908 196.119V202.639C81.4908 203.143 81.2138 203.42 80.7095 203.42H79.8004C79.2962 203.42 79.0192 203.151 79.0192 202.668V201.922H78.934C78.4652 202.838 77.4425 203.641 75.7308 203.641ZM76.3984 201.751C77.9467 201.751 78.9269 200.722 78.9269 199.507V198.222C78.593 198.491 77.2436 198.662 76.5689 198.754C75.4183 198.918 74.559 199.329 74.559 200.317C74.559 201.261 75.326 201.751 76.3984 201.751ZM86.427 197.028V202.639C86.427 203.143 86.15 203.42 85.6458 203.42H84.6372C84.133 203.42 83.856 203.143 83.856 202.639V193.293C83.856 192.788 84.133 192.511 84.6372 192.511H85.5321C86.0364 192.511 86.3134 192.788 86.3134 193.293V194.365H86.4412C86.9384 193.151 88.0605 192.369 89.6941 192.369C91.9455 192.369 93.437 193.861 93.4299 196.474V202.639C93.4299 203.143 93.1529 203.42 92.6486 203.42H91.6401C91.1358 203.42 90.8588 203.143 90.8588 202.639V196.872C90.8588 195.416 90.0634 194.543 88.7353 194.543C87.3787 194.543 86.427 195.452 86.427 197.028ZM99.8718 203.612C97.3008 203.612 95.3761 201.574 95.3761 197.98C95.3761 194.344 97.3576 192.369 99.8789 192.369C101.804 192.369 102.606 193.527 102.997 194.315H103.103V189.656C103.103 189.152 103.38 188.875 103.885 188.875H104.9C105.404 188.875 105.681 189.152 105.681 189.656V202.639C105.681 203.143 105.404 203.42 104.9 203.42H103.934C103.43 203.42 103.153 203.143 103.153 202.639V201.702H102.997C102.592 202.497 101.747 203.612 99.8718 203.612ZM100.589 201.503C102.23 201.503 103.153 200.082 103.153 197.966C103.153 195.849 102.244 194.479 100.589 194.479C98.8775 194.479 97.9968 195.935 97.9968 197.966C97.9968 200.011 98.8917 201.503 100.589 201.503ZM25.0801 220.303V219.656C25.0801 219.152 25.3571 218.875 25.8614 218.875H35.904C36.4082 218.875 36.6852 219.152 36.6852 219.656V220.303C36.6852 220.807 36.4082 221.084 35.904 221.084H32.1895V232.639C32.1895 233.143 31.9125 233.42 31.4082 233.42H30.3571C29.8528 233.42 29.5759 233.143 29.5759 232.639V221.084H25.8614C25.3571 221.084 25.0801 220.807 25.0801 220.303ZM37.456 232.639V223.293C37.456 222.788 37.733 222.511 38.2373 222.511H39.1676C39.6719 222.511 39.9489 222.788 39.9489 223.293V224.329H40.0625C40.4603 223.065 41.5043 222.355 42.7543 222.355H42.939C43.429 222.376 43.6776 222.682 43.6776 223.172V223.953C43.6776 224.486 43.4645 224.727 43.0881 224.678C42.8892 224.656 42.6762 224.642 42.4844 224.642C41.0711 224.642 40.027 225.622 40.027 227.007V232.639C40.027 233.143 39.75 233.42 39.2458 233.42H38.2373C37.733 233.42 37.456 233.143 37.456 232.639ZM48.09 233.641C46.0091 233.641 44.4395 232.504 44.4395 230.359C44.4395 227.902 46.4636 227.27 48.5801 227.043C50.5048 226.837 51.279 226.801 51.279 226.062V226.02C51.279 224.947 50.6256 224.337 49.4324 224.337C48.5162 224.337 47.8841 224.678 47.5077 225.146C47.2307 225.508 46.9821 225.693 46.5347 225.629L45.6753 225.508C45.1284 225.43 44.8656 225.054 45.1284 224.557C45.9025 223.108 47.465 222.369 49.4182 222.369C51.4991 222.369 53.85 223.236 53.85 226.119V232.639C53.85 233.143 53.573 233.42 53.0687 233.42H52.1597C51.6554 233.42 51.3784 233.151 51.3784 232.668V231.922H51.2932C50.8244 232.838 49.8017 233.641 48.09 233.641ZM48.7577 231.751C50.306 231.751 51.2861 230.722 51.2861 229.507V228.222C50.9523 228.491 49.6028 228.662 48.9281 228.754C47.7775 228.918 46.9182 229.329 46.9182 230.317C46.9182 231.261 47.6852 231.751 48.7577 231.751ZM60.2635 233.612C57.6925 233.612 55.7678 231.574 55.7678 227.98C55.7678 224.344 57.7493 222.369 60.2706 222.369C62.1953 222.369 62.9979 223.527 63.3885 224.315H63.495V219.656C63.495 219.152 63.772 218.875 64.2763 218.875H65.2919C65.7962 218.875 66.0732 219.152 66.0732 219.656V232.639C66.0732 233.143 65.7962 233.42 65.2919 233.42H64.326C63.8218 233.42 63.5448 233.143 63.5448 232.639V231.702H63.3885C62.9837 232.497 62.1385 233.612 60.2635 233.612ZM60.9808 231.503C62.6215 231.503 63.5448 230.082 63.5448 227.966C63.5448 225.849 62.6357 224.479 60.9808 224.479C59.2692 224.479 58.3885 225.935 58.3885 227.966C58.3885 230.011 59.2834 231.503 60.9808 231.503ZM73.4224 233.633C70.1341 233.633 68.1241 231.453 68.1241 228.03C68.1241 224.663 70.1625 222.369 73.2875 222.369C75.9721 222.369 78.2733 224.053 78.2733 227.881V227.888C78.2733 228.392 77.9963 228.669 77.492 228.669H70.6738C70.6951 230.537 71.796 231.631 73.4579 231.631C74.3102 231.631 75.0133 231.347 75.4466 230.793C75.7236 230.43 75.9792 230.246 76.4196 230.295L77.2861 230.395C77.8329 230.459 78.117 230.757 77.9395 231.162C77.2719 232.675 75.6525 233.633 73.4224 233.633ZM70.6809 226.936H75.8088C75.7946 225.452 74.8003 224.372 73.323 224.372C71.7889 224.372 70.7591 225.544 70.6809 226.936ZM97.036 219.656V232.639C97.036 233.143 96.7591 233.42 96.2548 233.42H95.296C94.877 233.42 94.5929 233.264 94.3514 232.923L87.8386 223.513H87.7179V232.639C87.7179 233.143 87.4409 233.42 86.9366 233.42H85.8642C85.3599 233.42 85.0829 233.143 85.0829 232.639V219.656C85.0829 219.152 85.3599 218.875 85.8642 218.875H86.8372C87.2562 218.875 87.5474 219.031 87.7818 219.372L94.2875 228.79H94.4153V219.656C94.4153 219.152 94.6923 218.875 95.1966 218.875H96.2548C96.7591 218.875 97.036 219.152 97.036 219.656ZM99.6871 232.639V219.656C99.6871 219.152 99.9641 218.875 100.468 218.875H108.224C108.728 218.875 109.005 219.152 109.005 219.656V220.303C109.005 220.807 108.728 221.084 108.224 221.084H102.322V225.033H107.585C108.089 225.033 108.366 225.31 108.366 225.814V226.46C108.366 226.964 108.089 227.241 107.585 227.241H102.322V232.639C102.322 233.143 102.045 233.42 101.541 233.42H100.468C99.9641 233.42 99.6871 233.143 99.6871 232.639ZM110.547 220.303V219.656C110.547 219.152 110.824 218.875 111.328 218.875H121.371C121.875 218.875 122.152 219.152 122.152 219.656V220.303C122.152 220.807 121.875 221.084 121.371 221.084H117.656V232.639C117.656 233.143 117.379 233.42 116.875 233.42H115.824C115.319 233.42 115.042 233.143 115.042 232.639V221.084H111.328C110.824 221.084 110.547 220.807 110.547 220.303ZM130.334 225.487L129.517 225.579C129.07 225.629 128.828 225.43 128.565 225.054C128.239 224.614 127.678 224.287 126.839 224.287C125.767 224.287 124.95 224.798 124.957 225.537C124.95 226.169 125.391 226.553 126.499 226.801L128.359 227.199C130.419 227.646 131.42 228.598 131.428 230.153C131.42 232.22 129.496 233.633 126.768 233.633C124.482 233.633 122.919 232.767 122.315 231.261C122.109 230.757 122.408 230.409 122.94 230.359L123.913 230.267C124.368 230.224 124.602 230.43 124.851 230.828C125.213 231.403 125.866 231.695 126.761 231.695C127.983 231.695 128.793 231.133 128.793 230.388C128.793 229.77 128.324 229.365 127.322 229.145L125.462 228.754C123.366 228.321 122.386 227.27 122.393 225.679C122.386 223.662 124.176 222.369 126.804 222.369C128.956 222.369 130.348 223.207 130.945 224.571C131.158 225.075 130.874 225.43 130.334 225.487Z" fill="white"/>
</g>
<rect x="1.28467" y="1.77734" width="427.715" height="280.643" rx="23" stroke="url(#paint4_linear_140_140)" stroke-opacity="0.2" stroke-width="2"/>
<defs>
<linearGradient id="paint0_linear_140_140" x1="215.142" y1="0.777344" x2="215.142" y2="283.42" gradientUnits="userSpaceOnUse">
<stop stop-color="#1C2027"/>
<stop offset="1" stop-color="#2C333F"/>
</linearGradient>
<linearGradient id="paint1_linear_140_140" x1="371.263" y1="-4.96998" x2="350.329" y2="294.394" gradientUnits="userSpaceOnUse">
<stop stop-color="#646F83"/>
<stop offset="1" stop-color="#252A34"/>
</linearGradient>
<linearGradient id="paint2_linear_140_140" x1="371.263" y1="-4.96998" x2="350.329" y2="294.394" gradientUnits="userSpaceOnUse">
<stop stop-color="#646F83"/>
<stop offset="1" stop-color="#252A34"/>
</linearGradient>
<linearGradient id="paint3_linear_140_140" x1="371.263" y1="-4.96998" x2="350.329" y2="294.394" gradientUnits="userSpaceOnUse">
<stop stop-color="#646F83"/>
<stop offset="1" stop-color="#252A34"/>
</linearGradient>
<linearGradient id="paint4_linear_140_140" x1="-19.4995" y1="-89.2227" x2="430" y2="393.777" gradientUnits="userSpaceOnUse">
<stop stop-color="white"/>
<stop offset="0.5" stop-color="white" stop-opacity="0"/>
<stop offset="1" stop-color="white"/>
</linearGradient>
<clipPath id="clip0_140_140">
<rect x="0.284668" y="0.777344" width="429.715" height="282.643" rx="24" fill="white"/>
</clipPath>
</defs>
</svg>
