<svg width="220" height="211" viewBox="0 0 220 211" fill="none" xmlns="http://www.w3.org/2000/svg">
<path d="M146.651 142.637C147.768 144.784 147.428 147.387 145.949 149.274L113.229 190.203C110.447 193.75 104.868 193.121 102.932 189.086L14.4283 9.54678C12.2731 5.25732 15.628 0.318477 20.3569 0.649151L74.1081 4.4078C76.3148 4.56211 78.2077 5.80875 79.1781 7.78681L146.651 142.637Z" fill="url(#paint0_linear_140_151)"/>
<path d="M44.3022 191.671C49.0311 192.002 52.3916 186.984 50.2363 182.695L17.7156 117.703C14.9397 112.096 6.50914 113.735 6.06605 120.072L1.70177 182.484C1.46357 185.89 4.02822 188.855 7.41723 189.092L44.3022 191.671Z" fill="url(#paint1_linear_140_151)"/>
<path d="M281.181 209.907C285.909 210.238 289.185 205.293 287.109 201.01L196.133 16.0447C195.163 14.0666 193.275 12.7408 191.068 12.5865L137.396 8.83335C132.668 8.50268 129.391 13.447 131.468 17.731L222.68 202.712C223.65 204.69 225.538 206.017 227.745 206.171L281.181 209.907Z" fill="url(#paint2_linear_140_151)"/>
<defs>
<linearGradient id="paint0_linear_140_151" x1="161.263" y1="-40.97" x2="140.329" y2="258.394" gradientUnits="userSpaceOnUse">
<stop stop-color="#646F83"/>
<stop offset="1" stop-color="#252A34"/>
</linearGradient>
<linearGradient id="paint1_linear_140_151" x1="161.263" y1="-40.97" x2="140.329" y2="258.394" gradientUnits="userSpaceOnUse">
<stop stop-color="#646F83"/>
<stop offset="1" stop-color="#252A34"/>
</linearGradient>
<linearGradient id="paint2_linear_140_151" x1="161.263" y1="-40.97" x2="140.329" y2="258.394" gradientUnits="userSpaceOnUse">
<stop stop-color="#646F83"/>
<stop offset="1" stop-color="#252A34"/>
</linearGradient>
</defs>
</svg>
