<svg width="430" height="284" viewBox="0 0 430 284" fill="none" xmlns="http://www.w3.org/2000/svg">
<path fill-rule="evenodd" clip-rule="evenodd" d="M-329.537 21.4019C-323.755 11.0071 -310.641 7.2676 -300.246 13.0496L-261.154 34.7942C-250.759 40.5762 -247.02 53.6902 -252.802 64.0851L-277.653 108.762C-283.435 119.157 -296.549 122.896 -306.944 117.114C-313.046 113.72 -316.854 107.799 -317.79 101.386C-323.921 107.873 -328.542 115.466 -330.928 124.338C-337.338 148.181 -328.424 169.156 -319.123 179.314C-311.09 188.086 -311.69 201.71 -320.462 209.743C-329.234 217.776 -342.858 217.176 -350.891 208.404C-368.876 188.764 -383.22 152.935 -372.525 113.155C-364.971 85.0565 -346.107 66.0702 -327.441 53.8733C-325.558 52.6426 -323.663 51.4716 -321.766 50.3581C-331.717 44.4174 -335.21 31.6009 -329.537 21.4019ZM-234.768 104.809C-242.801 96.0364 -242.201 82.4128 -233.429 74.3798C-224.656 66.3469 -211.033 66.9463 -203 75.7188C-185.015 95.359 -170.67 131.187 -181.365 170.968C-188.92 199.066 -207.783 218.052 -226.449 230.249C-228.333 231.48 -230.228 232.651 -232.125 233.764C-222.173 239.705 -218.681 252.522 -224.354 262.721C-230.136 273.116 -243.25 276.855 -253.644 271.073L-292.737 249.328C-303.131 243.546 -306.871 230.432 -301.089 220.038L-276.238 175.361C-270.456 164.966 -257.342 161.226 -246.947 167.008C-240.845 170.403 -237.037 176.323 -236.101 182.737C-229.97 176.25 -225.349 168.657 -222.963 159.784C-216.553 135.942 -225.466 114.966 -234.768 104.809ZM-69.7766 -150.156C-81.8282 -146.413 -87.8539 -144.542 -92.3309 -140.65C-93.8807 -139.302 -95.2788 -137.79 -96.5003 -136.139C-100.029 -131.37 -101.413 -125.248 -104.183 -113.006C-106.952 -100.764 -108.336 -94.6429 -111.865 -89.8738C-113.086 -88.2229 -114.484 -86.7103 -116.034 -85.3628C-120.511 -81.4705 -126.505 -79.6091 -138.491 -75.8862C-150.478 -72.1634 -156.471 -70.3019 -160.948 -66.4096C-162.498 -65.0622 -163.896 -63.5495 -165.118 -61.8986C-168.646 -57.1295 -170.038 -50.9753 -172.822 -38.6668C-175.651 -26.1619 -177.065 -19.9095 -175.876 -13.9988C-175.495 -12.107 -174.921 -10.2593 -174.163 -8.48461C-171.795 -2.9399 -167.094 1.40534 -157.691 10.0958C-148.356 18.7236 -143.689 23.0374 -141.322 28.5369C-140.549 30.3324 -139.965 32.2033 -139.579 34.1196C-138.396 39.989 -139.774 46.1674 -142.53 58.5241C-145.286 70.8808 -146.664 77.0591 -145.481 82.9285C-145.095 84.8448 -144.511 86.7158 -143.738 88.5113C-141.371 94.0107 -136.684 98.342 -127.312 107.004C-117.94 115.667 -113.254 119.998 -107.585 121.926C-105.734 122.555 -103.823 122.991 -101.883 123.225C-95.9384 123.943 -89.8874 122.083 -77.7855 118.365C-65.6836 114.646 -59.6327 112.787 -53.6885 113.505C-51.7478 113.739 -49.8367 114.174 -47.9861 114.804C-42.3175 116.731 -37.6502 121.045 -28.3155 129.673C-18.9129 138.364 -14.2116 142.709 -8.49789 144.634C-6.66915 145.25 -4.78208 145.677 -2.86618 145.908C3.11972 146.629 9.24165 144.728 21.4856 140.925C33.5372 137.182 39.5629 135.311 44.0399 131.418C45.5897 130.071 46.9878 128.558 48.2093 126.907C51.7377 122.138 53.1223 116.017 55.8916 103.775C58.6608 91.5326 60.0455 85.4115 63.5739 80.6425C64.7953 78.9915 66.1934 77.4789 67.7433 76.1314C72.2202 72.2391 78.2136 70.3777 90.2003 66.6548C102.187 62.932 108.18 61.0705 112.657 57.1782C114.207 55.8308 115.605 54.3181 116.827 52.6672C120.355 47.8982 121.747 41.7439 124.531 29.4355C127.36 16.9305 128.774 10.6781 127.585 4.76739C127.204 2.87561 126.63 1.02788 125.872 -0.746731C123.504 -6.29148 118.821 -10.6194 109.456 -19.2752C100.091 -27.9308 95.409 -32.2587 93.0409 -37.8033C92.2829 -39.578 91.709 -41.4257 91.3282 -43.3175C90.1385 -49.2282 91.5453 -55.4472 94.3587 -67.8853C97.1722 -80.3233 98.579 -86.5423 97.3893 -92.453C97.0085 -94.3448 96.4346 -96.1926 95.6766 -97.9672C93.3085 -103.512 88.626 -107.84 79.261 -116.495C69.8961 -125.151 65.2136 -129.479 59.5 -131.404C57.6712 -132.02 55.7839 -132.447 53.8679 -132.678C47.8821 -133.399 41.7929 -131.508 29.6146 -127.726C17.4362 -123.943 11.347 -122.052 5.36109 -122.774C3.44508 -123.005 1.55784 -123.432 -0.271037 -124.048C-5.98462 -125.973 -10.667 -130.301 -20.0319 -138.956C-29.3969 -147.612 -34.0794 -151.94 -39.793 -153.865C-41.6218 -154.481 -43.509 -154.908 -45.4249 -155.139C-51.4108 -155.861 -57.5328 -153.959 -69.7766 -150.156ZM25.3058 6.67505C22.5531 18.8443 21.1768 24.9289 17.6988 29.6667C16.4247 31.4023 14.9562 32.9863 13.3219 34.3879C8.86063 38.2137 2.914 40.0409 -8.97876 43.6949L-8.97959 43.6951L-8.98042 43.6953C-20.7947 47.3252 -26.7018 49.1401 -32.5085 48.497C-34.636 48.2613 -36.7297 47.7844 -38.7493 47.0753C-44.2616 45.1398 -48.7998 40.9454 -57.876 32.5565L-58.5516 31.9321C-67.6279 23.5432 -72.1661 19.3487 -74.5288 14.0055C-75.3944 12.048 -76.0344 9.99821 -76.4365 7.89592C-77.5341 2.15771 -76.189 -3.87385 -73.499 -15.9369C-70.7908 -28.0812 -69.4367 -34.1534 -65.9731 -38.9018C-64.7044 -40.6412 -63.2407 -42.2296 -61.6107 -43.6361C-57.1609 -47.4757 -51.2033 -49.3261 -39.2881 -53.0267C-27.3172 -56.7447 -21.3318 -58.6036 -15.4606 -57.945C-13.3887 -57.7125 -11.3489 -57.2511 -9.37854 -56.5691C-3.79549 -54.6368 0.857343 -50.3363 10.163 -41.7353C19.4686 -33.1344 24.1214 -28.834 26.4865 -23.4201C27.3211 -21.5095 27.9414 -19.5124 28.336 -17.4651C29.4541 -11.664 28.0713 -5.55096 25.3058 6.67505ZM77.7201 174.711C89.2255 174.258 98.8488 183.153 118.095 200.942L128.903 210.931C148.149 228.72 157.773 237.614 158.226 249.12C158.678 260.625 149.784 270.248 131.995 289.495L122.006 300.302C104.217 319.549 95.3227 329.172 83.8172 329.625C72.3118 330.078 62.6885 321.183 43.4419 303.395L32.6345 293.406C13.3879 275.617 3.76459 266.722 3.31173 255.217C2.85892 243.711 11.7534 234.088 29.5423 214.841L39.5313 204.034C57.3201 184.787 66.2146 175.164 77.7201 174.711ZM120.878 165.274C122.37 174.834 130.542 182.388 146.887 197.495C163.232 212.602 171.405 220.155 181.052 220.891C183.189 221.054 185.337 220.97 187.454 220.639C197.014 219.147 204.568 210.975 219.675 194.63C234.782 178.285 242.335 170.112 243.071 160.465C243.235 158.328 243.15 156.18 242.819 154.063C241.327 144.503 233.155 136.949 216.81 121.842C200.465 106.735 192.292 99.1818 182.645 98.4456C180.508 98.2826 178.36 98.3671 176.243 98.6976C166.683 100.19 159.13 108.362 144.023 124.707C128.915 141.052 121.362 149.225 120.626 158.872C120.463 161.009 120.547 163.157 120.878 165.274ZM210.63 245.322C211.083 256.827 220.706 265.722 239.953 283.511L250.76 293.5C270.007 311.289 279.63 320.183 291.136 319.73C302.641 319.277 311.536 309.654 329.325 290.407L339.313 279.6C357.102 260.353 365.997 250.73 365.544 239.225C365.091 227.719 355.468 218.825 336.221 201.036L325.414 191.047C306.167 173.258 296.544 164.363 285.039 164.816C273.533 165.269 264.639 174.892 246.85 194.139L236.861 204.947C219.072 224.193 210.177 233.816 210.63 245.322ZM149.351 329.823C151.322 332.972 154.532 335.939 160.954 341.875C167.375 347.81 170.586 350.777 173.88 352.494C182.619 357.048 193.117 356.635 201.471 351.408C204.62 349.438 207.587 346.227 213.523 339.806L213.523 339.805C219.458 333.384 222.425 330.173 224.142 326.879C228.696 318.14 228.283 307.643 223.056 299.288C221.086 296.14 217.875 293.172 211.453 287.237C205.032 281.302 201.821 278.334 198.527 276.618C189.788 272.063 179.291 272.476 170.936 277.704C167.788 279.674 164.82 282.884 158.885 289.306C152.95 295.727 149.982 298.938 148.266 302.232C143.711 310.971 144.124 321.469 149.351 329.823ZM-38.3812 210.031C-32.2637 178.424 -71.4143 158.605 -93.2656 182.247L-162.313 256.952C-174.302 269.923 -173.506 290.157 -160.535 302.146L-84.4814 372.439C-60.9468 394.191 -23.6036 371.658 -31.8771 340.697L-48.4162 278.803C-49.6663 274.125 -49.8378 269.224 -48.9176 264.47L-38.3812 210.031ZM193.288 39.2215C197.539 43.9113 204.734 44.2642 219.124 44.97L363.538 52.0531C377.929 52.7589 385.124 53.1118 389.814 48.8605C394.503 44.6093 394.856 37.4141 395.562 23.0238L397.174 -9.85089C397.555 -17.5995 397.745 -21.4739 400.27 -23.763C402.795 -26.0521 406.669 -25.8621 414.418 -25.482L430.855 -24.6758C445.246 -23.97 452.441 -23.6171 457.131 -27.8684C461.82 -32.1196 462.173 -39.3148 462.879 -53.7051L464.492 -86.5798C464.872 -94.3285 465.062 -98.2028 467.587 -100.492C470.112 -102.781 473.986 -102.591 481.735 -102.211L495.824 -101.52C510.215 -100.814 517.41 -100.461 522.1 -104.712C526.789 -108.964 527.142 -116.159 527.848 -130.549L528.769 -149.335C529.475 -163.725 529.828 -170.92 525.577 -175.61C521.326 -180.3 514.13 -180.653 499.74 -181.359L355.326 -188.442C340.936 -189.147 333.741 -189.5 329.051 -185.249C324.361 -180.998 324.008 -173.803 323.302 -159.412L321.69 -126.538C321.31 -118.789 321.12 -114.915 318.595 -112.626C316.069 -110.336 312.195 -110.526 304.446 -110.906L290.357 -111.597C275.967 -112.303 268.772 -112.656 264.082 -108.405C259.392 -104.154 259.039 -96.9585 258.334 -82.5682L256.721 -49.6935L256.721 -49.6932C256.341 -41.9448 256.151 -38.0705 253.626 -35.7814C251.101 -33.4923 247.226 -33.6823 239.478 -34.0624L223.04 -34.8686C208.65 -35.5744 201.455 -35.9273 196.765 -31.676C192.075 -27.4248 191.722 -20.2296 191.017 -5.83929L190.095 12.9463C189.389 27.3366 189.036 34.5318 193.288 39.2215Z" fill="#1F242C" fill-opacity="0.5"/>
</svg>
