<svg width="505" height="599" viewBox="0 0 505 599" fill="none" xmlns="http://www.w3.org/2000/svg">
<g clip-path="url(#clip0_140_90)">
<rect y="0.777344" width="504.569" height="597.286" rx="26.6342" fill="url(#paint0_linear_140_90)"/>
<path fill-rule="evenodd" clip-rule="evenodd" d="M-332.165 131.8C-326.383 121.405 -313.269 117.666 -302.874 123.448L-263.782 145.192C-253.387 150.974 -249.647 164.088 -255.429 174.483L-280.28 219.16C-286.062 229.555 -299.176 233.294 -309.571 227.512C-315.673 224.118 -319.482 218.198 -320.417 211.784C-326.548 218.271 -331.17 225.864 -333.555 234.737C-339.965 258.579 -331.052 279.554 -321.751 289.712C-313.718 298.484 -314.317 312.108 -323.089 320.141C-331.862 328.174 -345.485 327.575 -353.518 318.802C-371.503 299.162 -385.848 263.334 -375.153 223.553C-367.599 195.455 -348.735 176.468 -330.069 164.272C-328.185 163.041 -326.29 161.87 -324.393 160.756C-334.345 154.816 -337.838 141.999 -332.165 131.8ZM-237.395 215.207C-245.428 206.435 -244.829 192.811 -236.056 184.778C-227.284 176.745 -213.66 177.345 -205.627 186.117C-187.642 205.757 -173.298 241.585 -183.993 281.366C-191.547 309.464 -210.411 328.451 -229.077 340.648C-230.961 341.878 -232.855 343.049 -234.753 344.163C-224.801 350.103 -221.308 362.92 -226.981 373.119C-232.763 383.514 -245.877 387.253 -256.272 381.471L-295.364 359.727C-305.759 353.945 -309.498 340.831 -303.716 330.436L-278.865 285.759C-273.083 275.364 -259.969 271.625 -249.575 277.407C-243.473 280.801 -239.664 286.721 -238.729 293.135C-232.597 286.648 -227.976 279.055 -225.591 270.183C-219.18 246.34 -228.094 225.365 -237.395 215.207ZM-72.404 -39.7583C-84.4556 -36.0152 -90.4814 -34.1438 -94.9583 -30.2515C-96.5082 -28.904 -97.9063 -27.3914 -99.1277 -25.7404C-102.656 -20.9714 -104.041 -14.8503 -106.81 -2.60802C-109.579 9.6342 -110.964 15.7553 -114.492 20.5244C-115.714 22.1753 -117.112 23.688 -118.662 25.0354C-123.139 28.9277 -129.132 30.7892 -141.119 34.512C-153.105 38.2349 -159.099 40.0963 -163.576 43.9886C-165.126 45.3361 -166.524 46.8487 -167.745 48.4997C-171.274 53.2687 -172.666 59.4229 -175.45 71.7314C-178.279 84.2363 -179.693 90.4887 -178.503 96.3995C-178.122 98.2912 -177.549 100.139 -176.791 101.914C-174.422 107.458 -169.721 111.804 -160.319 120.494C-150.984 129.122 -146.316 133.436 -143.949 138.935C-143.176 140.731 -142.592 142.602 -142.206 144.518C-141.023 150.387 -142.401 156.566 -145.157 168.922C-147.913 181.279 -149.291 187.457 -148.108 193.327C-147.722 195.243 -147.138 197.114 -146.365 198.909C-143.998 204.409 -139.312 208.74 -129.939 217.403C-120.567 226.065 -115.881 230.396 -110.212 232.324C-108.362 232.954 -106.451 233.389 -104.51 233.623C-98.5658 234.341 -92.5149 232.482 -80.413 228.763C-68.3111 225.045 -62.2601 223.185 -56.316 223.903C-54.3753 224.137 -52.4642 224.573 -50.6135 225.202C-44.945 227.13 -40.2776 231.444 -30.9429 240.071C-21.5403 248.762 -16.839 253.107 -11.1253 255.032C-9.29661 255.648 -7.4095 256.075 -5.49364 256.306C0.492305 257.027 6.61424 255.126 18.8581 251.323C30.9097 247.58 36.9355 245.709 41.4125 241.817C42.9623 240.469 44.3604 238.956 45.5819 237.305C49.1102 232.536 50.4949 226.415 53.2641 214.173C56.0334 201.931 57.418 195.81 60.9464 191.041C62.1679 189.39 63.566 187.877 65.1158 186.53C69.5927 182.637 75.586 180.776 87.5725 177.053L87.5728 177.053L87.5734 177.053L87.5741 177.053C99.56 173.33 105.553 171.469 110.03 167.576C111.58 166.229 112.978 164.716 114.199 163.065C117.728 158.296 119.12 152.142 121.904 139.834C124.733 127.329 126.147 121.076 124.957 115.166C124.577 113.274 124.003 111.426 123.245 109.651C120.877 104.107 116.194 99.7789 106.829 91.1231C97.464 82.4674 92.7816 78.1396 90.4134 72.5949C89.6555 70.8202 89.0816 68.9725 88.7008 67.0807C87.5111 61.17 88.9178 54.951 91.7313 42.5129C94.5448 30.0749 95.9516 23.8559 94.7618 17.9452C94.3811 16.0534 93.8072 14.2056 93.0492 12.431C90.6811 6.88632 85.9986 2.55844 76.6336 -6.09729C67.2686 -14.753 62.5861 -19.0808 56.8726 -21.0059C55.0437 -21.622 53.1565 -22.0489 51.2405 -22.2799C45.2546 -23.0013 39.1655 -21.1101 26.9871 -17.3277C14.8087 -13.5453 8.71953 -11.6541 2.73366 -12.3755C0.817642 -12.6064 -1.0696 -13.0334 -2.89847 -13.6495C-8.61206 -15.5746 -13.2945 -19.9025 -22.6594 -28.5582C-32.0243 -37.2139 -36.7068 -41.5418 -42.4205 -43.4669C-44.2492 -44.0831 -46.1364 -44.5099 -48.0523 -44.7409C-54.0383 -45.4623 -60.1602 -43.561 -72.404 -39.7583ZM22.6784 117.073C19.9257 129.242 18.5493 135.327 15.0714 140.065C13.7973 141.801 12.3288 143.385 10.6945 144.786C6.23304 148.612 0.286247 150.439 -11.6071 154.093L-11.6079 154.094C-23.4221 157.723 -29.3293 159.538 -35.136 158.895C-37.2634 158.66 -39.3572 158.183 -41.3767 157.474C-46.889 155.538 -51.4272 151.344 -60.5035 142.955L-61.179 142.33C-70.2554 133.941 -74.7935 129.747 -77.1562 124.404C-78.0218 122.446 -78.6619 120.396 -79.064 118.294C-80.1615 112.556 -78.8165 106.524 -76.1264 94.4613C-73.4182 82.317 -72.0641 76.2448 -68.6006 71.4964C-67.3318 69.757 -65.8682 68.1686 -64.2382 66.7621C-59.7883 62.9225 -53.8307 61.0721 -41.9156 57.3715C-29.9447 53.6535 -23.9592 51.7946 -18.0881 52.4533C-16.0161 52.6857 -13.9763 53.1471 -12.006 53.8291C-6.42293 55.7614 -1.77009 60.0619 7.53558 68.6629C16.8412 77.2638 21.4939 81.5642 23.8591 86.9781C24.6937 88.8887 25.314 90.8858 25.7086 92.9331C26.8266 98.7342 25.4439 104.847 22.6784 117.073ZM75.0926 285.109C86.5981 284.657 96.2214 293.551 115.468 311.34L126.275 321.329C145.522 339.118 155.145 348.012 155.598 359.518C156.051 371.023 147.157 380.647 129.368 399.893L119.379 410.701C101.59 429.947 92.6953 439.57 81.1898 440.023C69.6843 440.476 60.0611 431.582 40.8145 413.793L30.007 403.804C10.7604 386.015 1.13713 377.12 0.684318 365.615C0.231461 354.11 9.12594 344.486 26.9148 325.24L36.9038 314.432C54.6927 295.186 63.5872 285.562 75.0926 285.109ZM118.25 275.672C119.742 285.232 127.915 292.786 144.26 307.893C160.605 323 168.777 330.553 178.425 331.29C180.561 331.453 182.71 331.368 184.827 331.038C194.387 329.545 201.94 321.373 217.047 305.028C232.154 288.683 239.708 280.511 240.444 270.863C240.607 268.726 240.523 266.578 240.192 264.461C238.7 254.901 230.527 247.348 214.182 232.241C197.838 217.134 189.665 209.58 180.018 208.844C177.881 208.681 175.733 208.765 173.615 209.096C164.056 210.588 156.502 218.76 141.395 235.105C126.288 251.45 118.735 259.623 117.998 269.27C117.835 271.407 117.92 273.555 118.25 275.672ZM208.003 355.72C208.456 367.226 218.079 376.12 237.325 393.909L248.133 403.898C267.38 421.687 277.003 430.581 288.508 430.128C300.014 429.676 308.908 420.052 326.697 400.806L336.686 389.998C354.475 370.752 363.369 361.128 362.917 349.623C362.464 338.117 352.841 329.223 333.594 311.434L322.786 301.445C303.54 283.656 293.917 274.762 282.411 275.215C270.906 275.667 262.011 285.291 244.222 304.537L234.233 315.345C216.444 334.591 207.55 344.215 208.003 355.72ZM146.724 440.221C148.694 443.37 151.905 446.338 158.326 452.273C164.748 458.208 167.959 461.176 171.252 462.892C179.992 467.447 190.489 467.033 198.844 461.806C201.992 459.836 204.96 456.625 210.895 450.204C216.83 443.782 219.798 440.572 221.514 437.278C226.069 428.538 225.656 418.041 220.428 409.687C218.458 406.538 215.248 403.57 208.826 397.635C202.405 391.7 199.194 388.732 195.9 387.016C187.161 382.461 176.663 382.875 168.309 388.102C165.16 390.072 162.193 393.283 156.257 399.704C150.322 406.126 147.355 409.337 145.638 412.63C141.084 421.37 141.497 431.867 146.724 440.221ZM-41.0095 320.429C-34.8921 288.822 -74.0427 269.003 -95.894 292.645L-164.942 367.351C-176.93 380.321 -176.134 400.555 -163.163 412.544L-87.1098 482.837C-63.5752 504.589 -26.232 482.056 -34.5054 451.095L-51.0446 389.201C-52.2947 384.523 -52.4662 379.622 -51.546 374.868L-41.0095 320.429ZM190.66 149.62C194.911 154.31 202.107 154.662 216.497 155.368L360.911 162.451C375.301 163.157 382.496 163.51 387.186 159.259C391.876 155.008 392.229 147.812 392.935 133.422L394.547 100.547L394.547 100.547C394.927 92.7986 395.117 88.9243 397.642 86.6352C400.168 84.3461 404.042 84.5361 411.791 84.9162L428.228 85.7224C442.618 86.4282 449.814 86.7811 454.503 82.5299C459.193 78.2786 459.546 71.0835 460.252 56.6932L461.864 23.8184C462.244 16.0698 462.434 12.1954 464.959 9.90631C467.485 7.61718 471.359 7.80719 479.108 8.18727L493.197 8.8783C507.587 9.5841 514.782 9.937 519.472 5.68575C524.162 1.43454 524.515 -5.76063 525.221 -20.151L526.142 -38.9365C526.848 -53.3269 527.201 -60.5221 522.949 -65.2118C518.698 -69.9016 511.503 -70.2545 497.113 -70.9603L352.699 -78.0434C338.308 -78.7492 331.113 -79.1021 326.424 -74.8508C321.734 -70.5996 321.381 -63.4044 320.675 -49.0141L319.063 -16.1394C318.683 -8.39073 318.493 -4.51642 315.967 -2.22729C313.442 0.0618407 309.568 -0.128172 301.819 -0.50823L287.73 -1.19926C273.34 -1.90506 266.144 -2.25797 261.455 1.99326C256.765 6.24451 256.412 13.4397 255.706 27.83L254.094 60.7047C253.714 68.4533 253.524 72.3277 250.998 74.6168C248.473 76.9059 244.599 76.7159 236.85 76.3359L220.413 75.5297C206.023 74.8239 198.827 74.471 194.138 78.7222C189.448 82.9734 189.095 90.1685 188.389 104.559L188.389 104.559L187.468 123.344C186.762 137.735 186.409 144.93 190.66 149.62Z" fill="#1582DC" fill-opacity="0.4"/>
<path fill-rule="evenodd" clip-rule="evenodd" d="M240.157 69.4884C245.813 70.8631 249.284 76.5623 247.909 82.2181L244.853 94.7908C250.155 92.516 255.961 90.462 262.111 88.9182C278.84 84.7185 298.941 84.1146 318.127 94.1865C345.748 108.687 358.208 135.064 359.857 154.804C360.341 160.604 356.032 165.699 350.231 166.183C344.431 166.668 339.337 162.358 338.852 156.558C337.727 143.087 328.8 123.595 308.33 112.849C295.141 105.925 280.74 105.973 267.243 109.361C264.314 110.097 261.468 110.981 258.735 111.963L272.408 115.287C278.064 116.662 281.534 122.361 280.159 128.017C278.785 133.672 273.085 137.143 267.43 135.768L226.467 125.812C220.812 124.437 217.341 118.738 218.716 113.082L227.428 77.2398C228.802 71.5841 234.502 68.1136 240.157 69.4884ZM330.828 254.211C325.172 252.837 321.702 247.137 323.076 241.482L326.132 228.909C320.831 231.184 315.024 233.238 308.875 234.781C292.146 238.981 272.044 239.585 252.859 229.513C225.237 215.013 212.777 188.635 211.129 168.896C210.644 163.095 214.954 158.001 220.754 157.516C226.554 157.032 231.649 161.341 232.133 167.142C233.258 180.613 242.185 200.105 262.656 210.851C275.844 217.774 290.246 217.727 303.743 214.338C306.671 213.603 309.518 212.719 312.25 211.736L298.577 208.413C292.922 207.038 289.451 201.339 290.826 195.683C292.201 190.027 297.9 186.557 303.556 187.931L344.518 197.888C350.174 199.263 353.644 204.962 352.27 210.618L343.558 246.46C342.183 252.116 336.484 255.586 330.828 254.211ZM141.023 306.963C163.833 296.844 174.121 270.15 164.003 247.34C153.884 224.53 127.19 214.241 104.38 224.36C81.57 234.478 71.2814 261.172 81.3998 283.982C91.5183 306.793 118.212 317.081 141.023 306.963ZM151.057 330.315L151.599 330.075C160.722 326.027 177.006 318.802 194.5 316.909C212.516 314.959 232.906 318.601 247.974 337.681C252.857 343.865 253.49 351.364 251.278 357.754C249.117 363.999 244.259 369.293 237.89 372.118L124.311 422.501C117.941 425.327 110.756 425.375 104.677 422.786C98.4554 420.137 93.3208 414.635 92.014 406.864C87.9822 382.889 98.9672 365.328 112.504 353.282C125.649 341.584 141.934 334.361 151.057 330.315ZM385.013 289.541C339.037 277.751 292.209 305.465 280.42 351.441C276.377 367.206 276.544 383.257 283.189 402.471L281.013 403.759C267.141 411.969 270.12 432.851 285.733 436.855L343.444 451.653C386.867 462.788 434.917 440.918 446.914 394.134C458.703 348.158 430.99 301.33 385.013 289.541ZM336.152 376.212C335.127 372.607 331.375 370.516 327.77 371.541C324.166 372.566 322.075 376.319 323.1 379.923C324.712 385.59 327.414 391.887 332.381 397.436C337.406 403.05 344.437 407.548 354.117 410.03C363.797 412.512 372.125 411.953 379.231 409.45C386.255 406.976 391.654 402.756 395.794 398.564C398.427 395.897 398.4 391.602 395.733 388.969C393.067 386.336 388.771 386.363 386.139 389.029C382.919 392.289 379.206 395.072 374.723 396.651C370.321 398.201 364.746 398.747 357.488 396.886C350.229 395.024 345.604 391.863 342.492 388.386C339.322 384.845 337.405 380.618 336.152 376.212Z" fill="url(#paint1_linear_140_90)"/>
<path d="M28.0688 512.672V499.689C28.0688 499.185 28.3458 498.908 28.8501 498.908H33.5234C36.8685 498.908 38.6512 500.946 38.6512 503.723C38.6512 506.522 36.8472 508.539 33.4878 508.539H30.7038V512.672C30.7038 513.176 30.4268 513.453 29.9225 513.453H28.8501C28.3458 513.453 28.0688 513.176 28.0688 512.672ZM30.7038 506.372H33.1327C35.093 506.372 35.9665 505.272 35.9665 503.723C35.9665 502.175 35.093 501.11 33.1185 501.11H30.7038V506.372ZM40.6063 512.672V503.326C40.6063 502.821 40.8833 502.544 41.3875 502.544H42.3179C42.8222 502.544 43.0992 502.821 43.0992 503.326V504.362H43.2128C43.6105 503.098 44.6546 502.388 45.9046 502.388H46.0892C46.5793 502.409 46.8279 502.715 46.8279 503.205V503.986C46.8279 504.519 46.6148 504.76 46.2384 504.71C46.0395 504.689 45.8264 504.675 45.6347 504.675C44.2213 504.675 43.1773 505.655 43.1773 507.04V512.672C43.1773 513.176 42.9003 513.453 42.396 513.453H41.3875C40.8833 513.453 40.6063 513.176 40.6063 512.672ZM52.6253 513.666C49.4292 513.666 47.398 511.415 47.398 508.041C47.398 504.661 49.4292 502.402 52.6253 502.402C55.8213 502.402 57.8525 504.661 57.8525 508.041C57.8525 511.415 55.8213 513.666 52.6253 513.666ZM52.6395 511.607C54.3795 511.607 55.246 510.03 55.246 508.034C55.246 506.039 54.3795 504.441 52.6395 504.441C50.871 504.441 50.0045 506.039 50.0045 508.034C50.0045 510.03 50.871 511.607 52.6395 511.607ZM65.3403 503.326V503.752C65.3403 504.256 65.0633 504.533 64.559 504.533H63.0747V512.672C63.0747 513.176 62.7977 513.453 62.2934 513.453H61.2849C60.7806 513.453 60.5036 513.176 60.5036 512.672V504.533H59.6727C59.1684 504.533 58.8914 504.256 58.8914 503.752V503.326C58.8914 502.821 59.1684 502.544 59.6727 502.544H60.5036V501.514C60.5036 499.313 62.0164 498.226 63.9127 498.226C64.3602 498.226 64.7721 498.276 65.113 498.333C65.6102 498.425 65.7948 498.787 65.667 499.284L65.5391 499.781C65.4184 500.257 65.1911 500.456 64.8786 500.399C64.7295 500.371 64.5661 500.357 64.3886 500.357C63.4298 500.357 63.0747 500.833 63.0747 501.685V502.544H64.559C65.0633 502.544 65.3403 502.821 65.3403 503.326ZM68.4264 500.996C67.6025 500.996 66.9349 500.371 66.9349 499.604C66.9349 498.83 67.6025 498.205 68.4264 498.205C69.2431 498.205 69.9108 498.83 69.9108 499.604C69.9108 500.371 69.2431 500.996 68.4264 500.996ZM67.1338 512.672V503.326C67.1338 502.821 67.4108 502.544 67.915 502.544H68.9235C69.4278 502.544 69.7048 502.821 69.7048 503.326V512.672C69.7048 513.176 69.4278 513.453 68.9235 513.453H67.915C67.4108 513.453 67.1338 513.176 67.1338 512.672ZM74.6996 499.689V512.672C74.6996 513.176 74.4227 513.453 73.9184 513.453H72.9099C72.4056 513.453 72.1286 513.176 72.1286 512.672V499.689C72.1286 499.185 72.4056 498.908 72.9099 498.908H73.9184C74.4227 498.908 74.6996 499.185 74.6996 499.689ZM81.953 513.666C78.6647 513.666 76.6547 511.486 76.6547 508.063C76.6547 504.696 78.6931 502.402 81.8181 502.402C84.5027 502.402 86.8039 504.085 86.8039 507.914V507.921C86.8039 508.425 86.5269 508.702 86.0226 508.702H79.2044C79.2257 510.57 80.3266 511.664 81.9885 511.664C82.8408 511.664 83.5439 511.38 83.9772 510.826C84.2541 510.463 84.5098 510.279 84.9502 510.328L85.8166 510.428C86.3635 510.492 86.6476 510.79 86.4701 511.195C85.8024 512.708 84.1831 513.666 81.953 513.666ZM79.2115 506.969H84.3394C84.3252 505.485 83.3308 504.405 81.8536 504.405C80.3195 504.405 79.2897 505.577 79.2115 506.969ZM96.5217 505.52L95.7049 505.612C95.2575 505.662 95.016 505.463 94.7532 505.087C94.4265 504.647 93.8655 504.32 93.0274 504.32C91.9549 504.32 91.1382 504.831 91.1453 505.57C91.1382 506.202 91.5785 506.585 92.6865 506.834L94.5473 507.232C96.6069 507.679 97.6084 508.631 97.6155 510.186C97.6084 512.253 95.6836 513.666 92.9564 513.666C90.6694 513.666 89.1069 512.8 88.5032 511.294C88.2973 510.79 88.5956 510.442 89.1282 510.392L90.1013 510.3C90.5558 510.257 90.7902 510.463 91.0388 510.861C91.401 511.436 92.0544 511.728 92.9493 511.728C94.1709 511.728 94.9805 511.166 94.9805 510.421C94.9805 509.803 94.5118 509.398 93.5103 509.178L91.6496 508.787C89.5544 508.354 88.5743 507.303 88.5814 505.712C88.5743 503.695 90.364 502.402 92.9919 502.402C95.1439 502.402 96.5359 503.24 97.1325 504.604C97.3456 505.108 97.0615 505.463 96.5217 505.52ZM102.442 512.246C102.278 513.702 101.724 515.35 101.341 516.394C101.192 516.813 100.9 517.005 100.453 517.005H100.268C99.7144 517.005 99.4587 516.685 99.5865 516.145C99.8209 515.144 100.119 513.695 100.212 512.26V512.218C100.24 511.728 100.524 511.465 101.021 511.465H101.703C102.229 511.465 102.498 511.749 102.442 512.246ZM114.244 513.666C110.984 513.666 109.017 511.344 109.017 508.041C109.017 504.71 111.034 502.402 114.23 502.402C116.56 502.402 118.271 503.595 118.775 505.478C118.917 506.003 118.598 506.323 118.065 506.323H117.135C116.68 506.323 116.453 506.103 116.254 505.683C115.906 504.966 115.231 504.476 114.265 504.476C112.682 504.476 111.623 505.797 111.623 507.999C111.623 510.229 112.66 511.571 114.265 511.571C115.167 511.571 115.885 511.145 116.254 510.371C116.453 509.945 116.687 509.725 117.142 509.725H118.065C118.605 509.725 118.91 510.002 118.804 510.456C118.342 512.374 116.687 513.666 114.244 513.666ZM123.38 507.061V512.672C123.38 513.176 123.103 513.453 122.598 513.453H121.59C121.086 513.453 120.809 513.176 120.809 512.672V499.689C120.809 499.185 121.086 498.908 121.59 498.908H122.542C123.046 498.908 123.323 499.185 123.323 499.689V504.398H123.451C123.955 503.162 125.02 502.402 126.696 502.402C128.962 502.402 130.454 503.872 130.454 506.507V512.672C130.454 513.176 130.177 513.453 129.672 513.453H128.664C128.159 513.453 127.882 513.176 127.882 512.672V506.905C127.882 505.435 127.087 504.576 125.738 504.576C124.36 504.576 123.38 505.485 123.38 507.061ZM135.993 513.674C133.912 513.674 132.343 512.537 132.343 510.392C132.343 507.935 134.367 507.303 136.484 507.076C138.408 506.87 139.182 506.834 139.182 506.095V506.053C139.182 504.98 138.529 504.37 137.336 504.37C136.42 504.37 135.787 504.71 135.411 505.179C135.134 505.541 134.885 505.726 134.438 505.662L133.579 505.541C133.032 505.463 132.769 505.087 133.032 504.59C133.806 503.141 135.368 502.402 137.322 502.402C139.403 502.402 141.753 503.269 141.753 506.152V512.672C141.753 513.176 141.476 513.453 140.972 513.453H140.063C139.559 513.453 139.282 513.183 139.282 512.701V511.955H139.197C138.728 512.871 137.705 513.674 135.993 513.674ZM136.661 511.784C138.209 511.784 139.189 510.755 139.189 509.54V508.255C138.856 508.524 137.506 508.695 136.832 508.787C135.681 508.951 134.822 509.362 134.822 510.35C134.822 511.294 135.589 511.784 136.661 511.784ZM149.566 503.326V503.752C149.566 504.256 149.289 504.533 148.785 504.533H147.414V510.172C147.414 511.209 147.933 511.436 148.579 511.436H148.593C148.842 511.436 149.381 511.585 149.488 512.068L149.602 512.594C149.708 513.084 149.516 513.446 149.019 513.531C148.799 513.567 148.543 513.595 148.252 513.603C146.32 513.659 144.829 512.651 144.843 510.598V504.533H144.076C143.572 504.533 143.295 504.256 143.295 503.752V503.326C143.295 502.821 143.572 502.544 144.069 502.544H144.843V500.712C144.843 500.208 145.12 499.931 145.624 499.931H146.633C147.137 499.931 147.414 500.208 147.414 500.712V502.544H148.785C149.289 502.544 149.566 502.821 149.566 503.326ZM159.103 505.52L158.286 505.612C157.839 505.662 157.597 505.463 157.334 505.087C157.008 504.647 156.447 504.32 155.608 504.32C154.536 504.32 153.719 504.831 153.726 505.57C153.719 506.202 154.16 506.585 155.268 506.834L157.128 507.232C159.188 507.679 160.189 508.631 160.197 510.186C160.189 512.253 158.265 513.666 155.537 513.666C153.251 513.666 151.688 512.8 151.084 511.294C150.878 510.79 151.177 510.442 151.709 510.392L152.682 510.3C153.137 510.257 153.371 510.463 153.62 510.861C153.982 511.436 154.635 511.728 155.53 511.728C156.752 511.728 157.562 511.166 157.562 510.421C157.562 509.803 157.093 509.398 156.091 509.178L154.231 508.787C152.135 508.354 151.155 507.303 151.162 505.712C151.155 503.695 152.945 502.402 155.573 502.402C157.725 502.402 159.117 503.24 159.714 504.604C159.927 505.108 159.643 505.463 159.103 505.52ZM165.023 512.246C164.859 513.702 164.305 515.35 163.922 516.394C163.773 516.813 163.482 517.005 163.034 517.005H162.849C162.295 517.005 162.04 516.685 162.168 516.145C162.402 515.144 162.7 513.695 162.793 512.26V512.218C162.821 511.728 163.105 511.465 163.602 511.465H164.284C164.81 511.465 165.08 511.749 165.023 512.246ZM174.815 499.689V512.672C174.815 513.176 174.538 513.453 174.034 513.453H172.962C172.457 513.453 172.18 513.176 172.18 512.672V499.689C172.18 499.185 172.457 498.908 172.962 498.908H174.034C174.538 498.908 174.815 499.185 174.815 499.689ZM179.906 507.061V512.672C179.906 513.176 179.629 513.453 179.125 513.453H178.116C177.612 513.453 177.335 513.176 177.335 512.672V503.326C177.335 502.821 177.612 502.544 178.116 502.544H179.011C179.515 502.544 179.792 502.821 179.792 503.326V504.398H179.92C180.417 503.183 181.54 502.402 183.173 502.402C185.425 502.402 186.916 503.894 186.909 506.507V512.672C186.909 513.176 186.632 513.453 186.128 513.453H185.119C184.615 513.453 184.338 513.176 184.338 512.672V506.905C184.338 505.449 183.542 504.576 182.214 504.576C180.858 504.576 179.906 505.485 179.906 507.061ZM194.75 503.326V503.752C194.75 504.256 194.473 504.533 193.969 504.533H192.598V510.172C192.598 511.209 193.116 511.436 193.763 511.436H193.777C194.026 511.436 194.565 511.585 194.672 512.068L194.785 512.594C194.892 513.084 194.7 513.446 194.203 513.531C193.983 513.567 193.727 513.595 193.436 513.603C191.504 513.659 190.013 512.651 190.027 510.598V504.533H189.26C188.756 504.533 188.479 504.256 188.479 503.752V503.326C188.479 502.821 188.756 502.544 189.253 502.544H190.027V500.712C190.027 500.208 190.304 499.931 190.808 499.931H191.817C192.321 499.931 192.598 500.208 192.598 500.712V502.544H193.969C194.473 502.544 194.75 502.821 194.75 503.326ZM201.393 513.666C198.104 513.666 196.094 511.486 196.094 508.063C196.094 504.696 198.133 502.402 201.258 502.402C203.942 502.402 206.243 504.085 206.243 507.914V507.921C206.243 508.425 205.966 508.702 205.462 508.702H198.644C198.665 510.57 199.766 511.664 201.428 511.664C202.28 511.664 202.983 511.38 203.417 510.826C203.694 510.463 203.949 510.279 204.39 510.328L205.256 510.428C205.803 510.492 206.087 510.79 205.91 511.195C205.242 512.708 203.623 513.666 201.393 513.666ZM198.651 506.969H203.779C203.765 505.485 202.77 504.405 201.293 504.405C199.759 504.405 198.729 505.577 198.651 506.969ZM208.198 512.672V503.326C208.198 502.821 208.475 502.544 208.98 502.544H209.91C210.414 502.544 210.691 502.821 210.691 503.326V504.362H210.805C211.203 503.098 212.247 502.388 213.497 502.388H213.681C214.171 502.409 214.42 502.715 214.42 503.205V503.986C214.42 504.519 214.207 504.76 213.831 504.71C213.632 504.689 213.419 504.675 213.227 504.675C211.814 504.675 210.769 505.655 210.769 507.04V512.672C210.769 513.176 210.492 513.453 209.988 513.453H208.98C208.475 513.453 208.198 513.176 208.198 512.672ZM218.833 513.674C216.752 513.674 215.182 512.537 215.182 510.392C215.182 507.935 217.206 507.303 219.323 507.076C221.247 506.87 222.021 506.834 222.021 506.095V506.053C222.021 504.98 221.368 504.37 220.175 504.37C219.259 504.37 218.627 504.71 218.25 505.179C217.973 505.541 217.725 505.726 217.277 505.662L216.418 505.541C215.871 505.463 215.608 505.087 215.871 504.59C216.645 503.141 218.208 502.402 220.161 502.402C222.242 502.402 224.592 503.269 224.592 506.152V512.672C224.592 513.176 224.315 513.453 223.811 513.453H222.902C222.398 513.453 222.121 513.183 222.121 512.701V511.955H222.036C221.567 512.871 220.544 513.674 218.833 513.674ZM219.5 511.784C221.048 511.784 222.029 510.755 222.029 509.54V508.255C221.695 508.524 220.345 508.695 219.671 508.787C218.52 508.951 217.661 509.362 217.661 510.35C217.661 511.294 218.428 511.784 219.5 511.784ZM231.716 513.666C228.456 513.666 226.489 511.344 226.489 508.041C226.489 504.71 228.506 502.402 231.702 502.402C234.032 502.402 235.743 503.595 236.247 505.478C236.389 506.003 236.07 506.323 235.537 506.323H234.607C234.152 506.323 233.925 506.103 233.726 505.683C233.378 504.966 232.703 504.476 231.738 504.476C230.154 504.476 229.095 505.797 229.095 507.999C229.095 510.229 230.132 511.571 231.738 511.571C232.639 511.571 233.357 511.145 233.726 510.371C233.925 509.945 234.159 509.725 234.614 509.725H235.537C236.077 509.725 236.382 510.002 236.276 510.456C235.814 512.374 234.159 513.666 231.716 513.666ZM243.728 503.326V503.752C243.728 504.256 243.451 504.533 242.947 504.533H241.576V510.172C241.576 511.209 242.095 511.436 242.741 511.436H242.755C243.004 511.436 243.543 511.585 243.65 512.068L243.764 512.594C243.87 513.084 243.678 513.446 243.181 513.531C242.961 513.567 242.705 513.595 242.414 513.603C240.482 513.659 238.991 512.651 239.005 510.598V504.533H238.238C237.734 504.533 237.457 504.256 237.457 503.752V503.326C237.457 502.821 237.734 502.544 238.231 502.544H239.005V500.712C239.005 500.208 239.282 499.931 239.786 499.931H240.795C241.299 499.931 241.576 500.208 241.576 500.712V502.544H242.947C243.451 502.544 243.728 502.821 243.728 503.326ZM246.951 500.996C246.127 500.996 245.459 500.371 245.459 499.604C245.459 498.83 246.127 498.205 246.951 498.205C247.768 498.205 248.435 498.83 248.435 499.604C248.435 500.371 247.768 500.996 246.951 500.996ZM245.658 512.672V503.326C245.658 502.821 245.935 502.544 246.44 502.544H247.448C247.952 502.544 248.229 502.821 248.229 503.326V512.672C248.229 513.176 247.952 513.453 247.448 513.453H246.44C245.935 513.453 245.658 513.176 245.658 512.672ZM260.078 503.439L256.74 512.821C256.591 513.247 256.299 513.453 255.845 513.453H254.339C253.885 513.453 253.593 513.247 253.444 512.821L250.106 503.439C249.915 502.899 250.163 502.544 250.738 502.544H251.846C252.301 502.544 252.592 502.75 252.727 503.191L255.035 510.648H255.149L257.464 503.191C257.599 502.75 257.89 502.544 258.345 502.544H259.446C260.021 502.544 260.27 502.899 260.078 503.439ZM266.415 513.666C263.127 513.666 261.117 511.486 261.117 508.063C261.117 504.696 263.155 502.402 266.28 502.402C268.965 502.402 271.266 504.085 271.266 507.914V507.921C271.266 508.425 270.989 508.702 270.485 508.702H263.666C263.688 510.57 264.789 511.664 266.451 511.664C267.303 511.664 268.006 511.38 268.439 510.826C268.716 510.463 268.972 510.279 269.412 510.328L270.279 510.428C270.826 510.492 271.11 510.79 270.932 511.195C270.264 512.708 268.645 513.666 266.415 513.666ZM263.674 506.969H268.801C268.787 505.485 267.793 504.405 266.316 504.405C264.782 504.405 263.752 505.577 263.674 506.969ZM31.0944 543.674C29.0134 543.674 27.4438 542.537 27.4438 540.392C27.4438 537.935 29.468 537.303 31.5844 537.076C33.5092 536.87 34.2833 536.834 34.2833 536.095V536.053C34.2833 534.98 33.6299 534.37 32.4367 534.37C31.5205 534.37 30.8884 534.71 30.512 535.179C30.235 535.541 29.9864 535.726 29.539 535.662L28.6796 535.541C28.1327 535.463 27.87 535.087 28.1327 534.59C28.9069 533.141 30.4694 532.402 32.4225 532.402C34.5035 532.402 36.8543 533.269 36.8543 536.152V542.672C36.8543 543.176 36.5773 543.453 36.0731 543.453H35.164C34.6597 543.453 34.3827 543.183 34.3827 542.701V541.955H34.2975C33.8288 542.871 32.806 543.674 31.0944 543.674ZM31.762 541.784C33.3103 541.784 34.2904 540.755 34.2904 539.54V538.255C33.9566 538.524 32.6072 538.695 31.9325 538.787C30.7819 538.951 29.9225 539.362 29.9225 540.35C29.9225 541.294 30.6896 541.784 31.762 541.784ZM41.7906 537.061V542.672C41.7906 543.176 41.5136 543.453 41.0093 543.453H40.0008C39.4965 543.453 39.2196 543.176 39.2196 542.672V533.326C39.2196 532.821 39.4965 532.544 40.0008 532.544H40.8957C41.4 532.544 41.6769 532.821 41.6769 533.326V534.398H41.8048C42.3019 533.183 43.4241 532.402 45.0576 532.402C47.309 532.402 48.8005 533.894 48.7934 536.507V542.672C48.7934 543.176 48.5164 543.453 48.0122 543.453H47.0036C46.4994 543.453 46.2224 543.176 46.2224 542.672V536.905C46.2224 535.449 45.4269 534.576 44.0988 534.576C42.7423 534.576 41.7906 535.485 41.7906 537.061ZM55.2353 543.645C52.6643 543.645 50.7396 541.607 50.7396 538.013C50.7396 534.377 52.7211 532.402 55.2425 532.402C57.1672 532.402 57.9697 533.56 58.3603 534.348H58.4669V529.689C58.4669 529.185 58.7439 528.908 59.2481 528.908H60.2638C60.768 528.908 61.045 529.185 61.045 529.689V542.672C61.045 543.176 60.768 543.453 60.2638 543.453H59.2978C58.7936 543.453 58.5166 543.176 58.5166 542.672V541.735H58.3603C57.9555 542.53 57.1103 543.645 55.2353 543.645ZM55.9527 541.536C57.5933 541.536 58.5166 540.115 58.5166 537.999C58.5166 535.882 57.6075 534.512 55.9527 534.512C54.241 534.512 53.3603 535.968 53.3603 537.999C53.3603 540.044 54.2552 541.536 55.9527 541.536ZM67.7801 530.335V529.689C67.7801 529.185 68.0571 528.908 68.5613 528.908H78.6039C79.1082 528.908 79.3852 529.185 79.3852 529.689V530.335C79.3852 530.84 79.1082 531.117 78.6039 531.117H74.8895V542.672C74.8895 543.176 74.6125 543.453 74.1082 543.453H73.0571C72.5528 543.453 72.2758 543.176 72.2758 542.672V531.117H68.5613C68.0571 531.117 67.7801 530.84 67.7801 530.335ZM80.156 542.672V533.326C80.156 532.821 80.4329 532.544 80.9372 532.544H81.8676C82.3719 532.544 82.6489 532.821 82.6489 533.326V534.362H82.7625C83.1602 533.098 84.2043 532.388 85.4543 532.388H85.6389C86.129 532.409 86.3776 532.715 86.3776 533.205V533.986C86.3776 534.519 86.1645 534.76 85.7881 534.71C85.5892 534.689 85.3761 534.675 85.1844 534.675C83.771 534.675 82.727 535.655 82.727 537.04V542.672C82.727 543.176 82.45 543.453 81.9457 543.453H80.9372C80.4329 543.453 80.156 543.176 80.156 542.672ZM90.79 543.674C88.709 543.674 87.1394 542.537 87.1394 540.392C87.1394 537.935 89.1636 537.303 91.2801 537.076C93.2048 536.87 93.9789 536.834 93.9789 536.095V536.053C93.9789 534.98 93.3255 534.37 92.1323 534.37C91.2161 534.37 90.584 534.71 90.2076 535.179C89.9306 535.541 89.6821 535.726 89.2346 535.662L88.3752 535.541C87.8284 535.463 87.5656 535.087 87.8284 534.59C88.6025 533.141 90.165 532.402 92.1181 532.402C94.1991 532.402 96.55 533.269 96.55 536.152V542.672C96.55 543.176 96.273 543.453 95.7687 543.453H94.8596C94.3553 543.453 94.0784 543.183 94.0784 542.701V541.955H93.9931C93.5244 542.871 92.5017 543.674 90.79 543.674ZM91.4576 541.784C93.0059 541.784 93.986 540.755 93.986 539.54V538.255C93.6522 538.524 92.3028 538.695 91.6281 538.787C90.4775 538.951 89.6181 539.362 89.6181 540.35C89.6181 541.294 90.3852 541.784 91.4576 541.784ZM102.963 543.645C100.392 543.645 98.4677 541.607 98.4677 538.013C98.4677 534.377 100.449 532.402 102.971 532.402C104.895 532.402 105.698 533.56 106.088 534.348H106.195V529.689C106.195 529.185 106.472 528.908 106.976 528.908H107.992C108.496 528.908 108.773 529.185 108.773 529.689V542.672C108.773 543.176 108.496 543.453 107.992 543.453H107.026C106.522 543.453 106.245 543.176 106.245 542.672V541.735H106.088C105.684 542.53 104.838 543.645 102.963 543.645ZM103.681 541.536C105.321 541.536 106.245 540.115 106.245 537.999C106.245 535.882 105.336 534.512 103.681 534.512C101.969 534.512 101.088 535.968 101.088 537.999C101.088 540.044 101.983 541.536 103.681 541.536ZM116.122 543.666C112.834 543.666 110.824 541.486 110.824 538.063C110.824 534.696 112.862 532.402 115.987 532.402C118.672 532.402 120.973 534.085 120.973 537.914V537.921C120.973 538.425 120.696 538.702 120.192 538.702H113.374C113.395 540.57 114.496 541.664 116.158 541.664C117.01 541.664 117.713 541.38 118.147 540.826C118.424 540.463 118.679 540.279 119.12 540.328L119.986 540.428C120.533 540.492 120.817 540.79 120.639 541.195C119.972 542.708 118.352 543.666 116.122 543.666ZM113.381 536.969H118.509C118.495 535.485 117.5 534.405 116.023 534.405C114.489 534.405 113.459 535.577 113.381 536.969ZM126.068 543.674C123.987 543.674 122.417 542.537 122.417 540.392C122.417 537.935 124.441 537.303 126.558 537.076C128.482 536.87 129.256 536.834 129.256 536.095V536.053C129.256 534.98 128.603 534.37 127.41 534.37C126.494 534.37 125.862 534.71 125.485 535.179C125.208 535.541 124.96 535.726 124.512 535.662L123.653 535.541C123.106 535.463 122.843 535.087 123.106 534.59C123.88 533.141 125.443 532.402 127.396 532.402C129.477 532.402 131.827 533.269 131.827 536.152V542.672C131.827 543.176 131.55 543.453 131.046 543.453H130.137C129.633 543.453 129.356 543.183 129.356 542.701V541.955H129.271C128.802 542.871 127.779 543.674 126.068 543.674ZM126.735 541.784C128.283 541.784 129.264 540.755 129.264 539.54V538.255C128.93 538.524 127.58 538.695 126.906 538.787C125.755 538.951 124.896 539.362 124.896 540.35C124.896 541.294 125.663 541.784 126.735 541.784ZM134.306 542.672V529.689C134.306 529.185 134.583 528.908 135.088 528.908H136.096C136.6 528.908 136.877 529.185 136.877 529.689V534.348H136.984C137.374 533.56 138.177 532.402 140.102 532.402C142.623 532.402 144.605 534.377 144.605 538.013C144.605 541.607 142.68 543.645 140.109 543.645C138.234 543.645 137.389 542.53 136.984 541.735H136.835V542.672C136.835 543.176 136.558 543.453 136.053 543.453H135.088C134.583 543.453 134.306 543.176 134.306 542.672ZM136.828 537.999C136.828 540.115 137.751 541.536 139.392 541.536C141.089 541.536 141.984 540.044 141.984 537.999C141.984 535.968 141.103 534.512 139.392 534.512C137.737 534.512 136.828 535.882 136.828 537.999ZM149.141 529.689V542.672C149.141 543.176 148.864 543.453 148.36 543.453H147.352C146.847 543.453 146.57 543.176 146.57 542.672V529.689C146.57 529.185 146.847 528.908 147.352 528.908H148.36C148.864 528.908 149.141 529.185 149.141 529.689ZM156.395 543.666C153.106 543.666 151.096 541.486 151.096 538.063C151.096 534.696 153.135 532.402 156.26 532.402C158.944 532.402 161.246 534.085 161.246 537.914V537.921C161.246 538.425 160.969 538.702 160.464 538.702H153.646C153.667 540.57 154.768 541.664 156.43 541.664C157.283 541.664 157.986 541.38 158.419 540.826C158.696 540.463 158.952 540.279 159.392 540.328L160.258 540.428C160.805 540.492 161.089 540.79 160.912 541.195C160.244 542.708 158.625 543.666 156.395 543.666ZM153.653 536.969H158.781C158.767 535.485 157.773 534.405 156.295 534.405C154.761 534.405 153.731 535.577 153.653 536.969ZM168.055 542.672V529.689C168.055 529.185 168.332 528.908 168.836 528.908H176.592C177.096 528.908 177.373 529.185 177.373 529.689V530.335C177.373 530.84 177.096 531.117 176.592 531.117H170.69V535.066H175.953C176.457 535.066 176.734 535.343 176.734 535.847V536.493C176.734 536.997 176.457 537.274 175.953 537.274H170.69V542.672C170.69 543.176 170.413 543.453 169.909 543.453H168.836C168.332 543.453 168.055 543.176 168.055 542.672ZM183.469 543.666C180.181 543.666 178.171 541.486 178.171 538.063C178.171 534.696 180.209 532.402 183.334 532.402C186.019 532.402 188.32 534.085 188.32 537.914V537.921C188.32 538.425 188.043 538.702 187.539 538.702H180.721C180.742 540.57 181.843 541.664 183.505 541.664C184.357 541.664 185.06 541.38 185.493 540.826C185.77 540.463 186.026 540.279 186.466 540.328L187.333 540.428C187.88 540.492 188.164 540.79 187.986 541.195C187.319 542.708 185.699 543.666 183.469 543.666ZM180.728 536.969H185.855C185.841 535.485 184.847 534.405 183.37 534.405C181.836 534.405 180.806 535.577 180.728 536.969ZM195.105 543.666C191.816 543.666 189.806 541.486 189.806 538.063C189.806 534.696 191.845 532.402 194.97 532.402C197.654 532.402 199.955 534.085 199.955 537.914V537.921C199.955 538.425 199.678 538.702 199.174 538.702H192.356C192.377 540.57 193.478 541.664 195.14 541.664C195.992 541.664 196.695 541.38 197.129 540.826C197.406 540.463 197.661 540.279 198.102 540.328L198.968 540.428C199.515 540.492 199.799 540.79 199.622 541.195C198.954 542.708 197.335 543.666 195.105 543.666ZM192.363 536.969H197.491C197.477 535.485 196.482 534.405 195.005 534.405C193.471 534.405 192.441 535.577 192.363 536.969ZM205.959 543.645C203.388 543.645 201.463 541.607 201.463 538.013C201.463 534.377 203.445 532.402 205.966 532.402C207.891 532.402 208.693 533.56 209.084 534.348H209.19V529.689C209.19 529.185 209.467 528.908 209.972 528.908H210.987C211.491 528.908 211.768 529.185 211.768 529.689V542.672C211.768 543.176 211.491 543.453 210.987 543.453H210.021C209.517 543.453 209.24 543.176 209.24 542.672V541.735H209.084C208.679 542.53 207.834 543.645 205.959 543.645ZM206.676 541.536C208.317 541.536 209.24 540.115 209.24 537.999C209.24 535.882 208.331 534.512 206.676 534.512C204.964 534.512 204.084 535.968 204.084 537.999C204.084 540.044 204.979 541.536 206.676 541.536Z" fill="white"/>
</g>
<rect x="1" y="1.77734" width="502.569" height="595.286" rx="25.6342" stroke="url(#paint2_linear_140_90)" stroke-opacity="0.5" stroke-width="2"/>
<defs>
<linearGradient id="paint0_linear_140_90" x1="252.285" y1="0.777344" x2="252.285" y2="598.063" gradientUnits="userSpaceOnUse">
<stop stop-color="#0B88F0"/>
<stop offset="1" stop-color="#0BB3F0"/>
</linearGradient>
<linearGradient id="paint1_linear_140_90" x1="245.914" y1="67.1616" x2="245.914" y2="422.497" gradientUnits="userSpaceOnUse">
<stop stop-color="#B5E5FF"/>
<stop offset="1" stop-color="#85C9FF"/>
</linearGradient>
<linearGradient id="paint2_linear_140_90" x1="-23.2305" y1="-189.412" x2="815.122" y2="311.129" gradientUnits="userSpaceOnUse">
<stop stop-color="white"/>
<stop offset="0.5" stop-color="white" stop-opacity="0"/>
<stop offset="1" stop-color="white"/>
</linearGradient>
<clipPath id="clip0_140_90">
<rect y="0.777344" width="504.569" height="597.286" rx="26.6342" fill="white"/>
</clipPath>
</defs>
</svg>
