<svg width="373" height="386" viewBox="0 0 373 386" fill="none" xmlns="http://www.w3.org/2000/svg">
<path fill-rule="evenodd" clip-rule="evenodd" d="M163.157 0.48835C168.813 1.86305 172.284 7.56234 170.909 13.2181L167.853 25.7908C173.155 23.516 178.961 21.462 185.111 19.9182C201.84 15.7185 221.941 15.1146 241.127 25.1865C268.748 39.6868 281.208 66.0642 282.857 85.8041C283.341 91.6043 279.032 96.6989 273.231 97.1833C267.431 97.6676 262.337 93.3583 261.852 87.558C260.727 74.087 251.8 54.5949 231.33 43.8488C218.141 36.9253 203.74 36.9731 190.243 40.3614C187.314 41.0966 184.468 41.9806 181.735 42.9635L195.408 46.2869C201.064 47.6616 204.534 53.3609 203.159 59.0166C201.785 64.6724 196.085 68.1428 190.43 66.7681L149.467 56.8116C143.812 55.4369 140.341 49.7376 141.716 44.0819L150.428 8.23983C151.802 2.5841 157.502 -0.886353 163.157 0.48835ZM253.828 185.211C248.172 183.837 244.702 178.137 246.076 172.482L249.132 159.909C243.831 162.184 238.024 164.238 231.875 165.781C215.146 169.981 195.044 170.585 175.859 160.513C148.237 146.013 135.777 119.635 134.129 99.8955C133.644 94.0953 137.954 89.0007 143.754 88.5163C149.554 88.032 154.649 92.3413 155.133 98.1416C156.258 111.613 165.185 131.105 185.656 141.851C198.844 148.774 213.246 148.727 226.743 145.338C229.671 144.603 232.518 143.719 235.25 142.736L221.577 139.413C215.922 138.038 212.451 132.339 213.826 126.683C215.201 121.027 220.9 117.557 226.556 118.931L267.518 128.888C273.174 130.263 276.644 135.962 275.27 141.618L266.558 177.46C265.183 183.116 259.484 186.586 253.828 185.211ZM64.0225 237.963C86.8327 227.844 97.1214 201.15 87.0029 178.34C76.8844 155.53 50.1904 145.241 27.3802 155.36C4.57002 165.478 -5.71865 192.172 4.39985 214.982C14.5183 237.793 41.2123 248.081 64.0225 237.963ZM74.0574 261.315L74.599 261.075C83.7216 257.027 100.006 249.802 117.5 247.909C135.516 245.959 155.906 249.601 170.974 268.681C175.857 274.865 176.49 282.364 174.278 288.754C172.117 294.999 167.259 300.293 160.89 303.118L47.3105 353.501C40.9414 356.327 33.7561 356.375 27.6768 353.786C21.4554 351.137 16.3208 345.635 15.014 337.864C10.9822 313.889 21.9672 296.328 35.5043 284.282C48.6489 272.584 64.9344 265.361 74.0574 261.315ZM308.013 220.541C262.037 208.751 215.209 236.465 203.42 282.441C199.377 298.206 199.544 314.257 206.189 333.471L204.013 334.759C190.141 342.969 193.12 363.851 208.733 367.855L266.444 382.653C309.867 393.788 357.917 371.918 369.914 325.134C381.703 279.158 353.99 232.33 308.013 220.541ZM259.152 307.212C258.127 303.607 254.375 301.516 250.77 302.541C247.166 303.566 245.075 307.319 246.1 310.923C247.712 316.59 250.414 322.887 255.381 328.436C260.406 334.05 267.437 338.548 277.117 341.03C286.797 343.512 295.125 342.953 302.231 340.45C309.255 337.976 314.654 333.756 318.794 329.564C321.427 326.897 321.4 322.602 318.733 319.969C316.067 317.336 311.771 317.363 309.139 320.029C305.919 323.289 302.206 326.072 297.723 327.651C293.321 329.201 287.746 329.747 280.488 327.886C273.229 326.024 268.604 322.863 265.492 319.386C262.322 315.845 260.405 311.618 259.152 307.212Z" fill="url(#paint0_linear_140_101)"/>
<defs>
<linearGradient id="paint0_linear_140_101" x1="168.914" y1="-1.83838" x2="168.914" y2="353.497" gradientUnits="userSpaceOnUse">
<stop stop-color="#B5E5FF"/>
<stop offset="1" stop-color="#85C9FF"/>
</linearGradient>
</defs>
</svg>
