<svg width="505" height="492" viewBox="0 0 505 492" fill="none" xmlns="http://www.w3.org/2000/svg">
<path fill-rule="evenodd" clip-rule="evenodd" d="M-332.165 131.8C-326.383 121.405 -313.269 117.666 -302.874 123.448L-263.782 145.192C-253.387 150.974 -249.647 164.088 -255.429 174.483L-280.28 219.16C-286.062 229.555 -299.176 233.294 -309.571 227.512C-315.673 224.118 -319.482 218.198 -320.417 211.784C-326.548 218.271 -331.17 225.864 -333.555 234.737C-339.965 258.579 -331.052 279.554 -321.751 289.712C-313.718 298.484 -314.317 312.108 -323.089 320.141C-331.862 328.174 -345.485 327.575 -353.518 318.802C-371.503 299.162 -385.848 263.334 -375.153 223.553C-367.599 195.455 -348.735 176.468 -330.069 164.272C-328.185 163.041 -326.29 161.87 -324.393 160.756C-334.345 154.816 -337.838 141.999 -332.165 131.8ZM-237.395 215.207C-245.428 206.435 -244.829 192.811 -236.056 184.778C-227.284 176.745 -213.66 177.345 -205.627 186.117C-187.642 205.757 -173.298 241.585 -183.993 281.366C-191.547 309.464 -210.411 328.451 -229.077 340.648C-230.961 341.878 -232.855 343.049 -234.753 344.163C-224.801 350.103 -221.308 362.92 -226.981 373.119C-232.763 383.514 -245.877 387.253 -256.272 381.471L-295.364 359.727C-305.759 353.945 -309.498 340.831 -303.716 330.436L-278.865 285.759C-273.083 275.364 -259.969 271.625 -249.575 277.407C-243.473 280.801 -239.664 286.721 -238.729 293.135C-232.597 286.648 -227.976 279.055 -225.591 270.183C-219.18 246.34 -228.094 225.365 -237.395 215.207ZM-72.404 -39.7583C-84.4556 -36.0152 -90.4814 -34.1438 -94.9583 -30.2515C-96.5082 -28.904 -97.9063 -27.3914 -99.1277 -25.7404C-102.656 -20.9714 -104.041 -14.8503 -106.81 -2.60802C-109.579 9.6342 -110.964 15.7553 -114.492 20.5244C-115.714 22.1753 -117.112 23.688 -118.662 25.0354C-123.139 28.9277 -129.132 30.7892 -141.119 34.512C-153.105 38.2349 -159.099 40.0963 -163.576 43.9886C-165.126 45.3361 -166.524 46.8487 -167.745 48.4997C-171.274 53.2687 -172.666 59.4229 -175.45 71.7314C-178.279 84.2363 -179.693 90.4887 -178.503 96.3995C-178.122 98.2912 -177.549 100.139 -176.791 101.914C-174.422 107.458 -169.721 111.804 -160.319 120.494C-150.984 129.122 -146.316 133.436 -143.949 138.935C-143.176 140.731 -142.592 142.602 -142.206 144.518C-141.023 150.387 -142.401 156.566 -145.157 168.922C-147.913 181.279 -149.291 187.457 -148.108 193.327C-147.722 195.243 -147.138 197.114 -146.365 198.909C-143.998 204.409 -139.312 208.74 -129.939 217.403C-120.567 226.065 -115.881 230.396 -110.212 232.324C-108.362 232.954 -106.451 233.389 -104.51 233.623C-98.5658 234.341 -92.5149 232.482 -80.413 228.763C-68.3111 225.045 -62.2601 223.185 -56.316 223.903C-54.3753 224.137 -52.4642 224.573 -50.6135 225.202C-44.945 227.13 -40.2776 231.444 -30.9429 240.071C-21.5403 248.762 -16.839 253.107 -11.1253 255.032C-9.29661 255.648 -7.4095 256.075 -5.49364 256.306C0.492305 257.027 6.61424 255.126 18.8581 251.323C30.9097 247.58 36.9355 245.709 41.4125 241.817C42.9623 240.469 44.3604 238.956 45.5819 237.305C49.1102 232.536 50.4949 226.415 53.2641 214.173C56.0334 201.931 57.418 195.81 60.9464 191.041C62.1679 189.39 63.566 187.877 65.1158 186.53C69.5927 182.637 75.586 180.776 87.5725 177.053L87.5728 177.053L87.5734 177.053L87.5741 177.053C99.56 173.33 105.553 171.469 110.03 167.576C111.58 166.229 112.978 164.716 114.199 163.065C117.728 158.296 119.12 152.142 121.904 139.834C124.733 127.329 126.147 121.076 124.957 115.166C124.577 113.274 124.003 111.426 123.245 109.651C120.877 104.107 116.194 99.7789 106.829 91.1231C97.464 82.4674 92.7816 78.1396 90.4134 72.5949C89.6555 70.8202 89.0816 68.9725 88.7008 67.0807C87.5111 61.17 88.9178 54.951 91.7313 42.5129C94.5448 30.0749 95.9516 23.8559 94.7618 17.9452C94.3811 16.0534 93.8072 14.2056 93.0492 12.431C90.6811 6.88632 85.9986 2.55844 76.6336 -6.09729C67.2686 -14.753 62.5861 -19.0808 56.8726 -21.0059C55.0437 -21.622 53.1565 -22.0489 51.2405 -22.2799C45.2546 -23.0013 39.1655 -21.1101 26.9871 -17.3277C14.8087 -13.5453 8.71953 -11.6541 2.73366 -12.3755C0.817642 -12.6064 -1.0696 -13.0334 -2.89847 -13.6495C-8.61206 -15.5746 -13.2945 -19.9025 -22.6594 -28.5582C-32.0243 -37.2139 -36.7068 -41.5418 -42.4205 -43.4669C-44.2492 -44.0831 -46.1364 -44.5099 -48.0523 -44.7409C-54.0383 -45.4623 -60.1602 -43.561 -72.404 -39.7583ZM22.6784 117.073C19.9257 129.242 18.5493 135.327 15.0714 140.065C13.7973 141.801 12.3288 143.385 10.6945 144.786C6.23304 148.612 0.286247 150.439 -11.6071 154.093L-11.6079 154.094C-23.4221 157.723 -29.3293 159.538 -35.136 158.895C-37.2634 158.66 -39.3572 158.183 -41.3767 157.474C-46.889 155.538 -51.4272 151.344 -60.5035 142.955L-61.179 142.33C-70.2554 133.941 -74.7935 129.747 -77.1562 124.404C-78.0218 122.446 -78.6619 120.396 -79.064 118.294C-80.1615 112.556 -78.8165 106.524 -76.1264 94.4613C-73.4182 82.317 -72.0641 76.2448 -68.6006 71.4964C-67.3318 69.757 -65.8682 68.1686 -64.2382 66.7621C-59.7883 62.9225 -53.8307 61.0721 -41.9156 57.3715C-29.9447 53.6535 -23.9592 51.7946 -18.0881 52.4533C-16.0161 52.6857 -13.9763 53.1471 -12.006 53.8291C-6.42293 55.7614 -1.77009 60.0619 7.53558 68.6629C16.8412 77.2638 21.4939 81.5642 23.8591 86.9781C24.6937 88.8887 25.314 90.8858 25.7086 92.9331C26.8266 98.7342 25.4439 104.847 22.6784 117.073ZM75.0926 285.109C86.5981 284.657 96.2214 293.551 115.468 311.34L126.275 321.329C145.522 339.118 155.145 348.012 155.598 359.518C156.051 371.023 147.157 380.647 129.368 399.893L119.379 410.701C101.59 429.947 92.6953 439.57 81.1898 440.023C69.6843 440.476 60.0611 431.582 40.8145 413.793L30.007 403.804C10.7604 386.015 1.13713 377.12 0.684318 365.615C0.231461 354.11 9.12594 344.486 26.9148 325.24L36.9038 314.432C54.6927 295.186 63.5872 285.562 75.0926 285.109ZM118.25 275.672C119.742 285.232 127.915 292.786 144.26 307.893C160.605 323 168.777 330.553 178.425 331.29C180.561 331.453 182.71 331.368 184.827 331.038C194.387 329.545 201.94 321.373 217.047 305.028C232.154 288.683 239.708 280.511 240.444 270.863C240.607 268.726 240.523 266.578 240.192 264.461C238.7 254.901 230.527 247.348 214.182 232.241C197.838 217.134 189.665 209.58 180.018 208.844C177.881 208.681 175.733 208.765 173.615 209.096C164.056 210.588 156.502 218.76 141.395 235.105C126.288 251.45 118.735 259.623 117.998 269.27C117.835 271.407 117.92 273.555 118.25 275.672ZM208.003 355.72C208.456 367.226 218.079 376.12 237.325 393.909L248.133 403.898C267.38 421.687 277.003 430.581 288.508 430.128C300.014 429.676 308.908 420.052 326.697 400.806L336.686 389.998C354.475 370.752 363.369 361.128 362.917 349.623C362.464 338.117 352.841 329.223 333.594 311.434L322.786 301.445C303.54 283.656 293.917 274.762 282.411 275.215C270.906 275.667 262.011 285.291 244.222 304.537L234.233 315.345C216.444 334.591 207.55 344.215 208.003 355.72ZM146.724 440.221C148.694 443.37 151.905 446.338 158.326 452.273C164.748 458.208 167.959 461.176 171.252 462.892C179.992 467.447 190.489 467.033 198.844 461.806C201.992 459.836 204.96 456.625 210.895 450.204C216.83 443.782 219.798 440.572 221.514 437.278C226.069 428.538 225.656 418.041 220.428 409.687C218.458 406.538 215.248 403.57 208.826 397.635C202.405 391.7 199.194 388.732 195.9 387.016C187.161 382.461 176.663 382.875 168.309 388.102C165.16 390.072 162.193 393.283 156.257 399.704C150.322 406.126 147.355 409.337 145.638 412.63C141.084 421.37 141.497 431.867 146.724 440.221ZM-41.0095 320.429C-34.8921 288.822 -74.0427 269.003 -95.894 292.645L-164.942 367.351C-176.93 380.321 -176.134 400.555 -163.163 412.544L-87.1098 482.837C-63.5752 504.589 -26.232 482.056 -34.5054 451.095L-51.0446 389.201C-52.2947 384.523 -52.4662 379.622 -51.546 374.868L-41.0095 320.429ZM190.66 149.62C194.911 154.31 202.107 154.662 216.497 155.368L360.911 162.451C375.301 163.157 382.496 163.51 387.186 159.259C391.876 155.008 392.229 147.812 392.935 133.422L394.547 100.547L394.547 100.547C394.927 92.7986 395.117 88.9243 397.642 86.6352C400.168 84.3461 404.042 84.5361 411.791 84.9162L428.228 85.7224C442.618 86.4282 449.814 86.7811 454.503 82.5299C459.193 78.2786 459.546 71.0835 460.252 56.6932L461.864 23.8184C462.244 16.0698 462.434 12.1954 464.959 9.90631C467.485 7.61718 471.359 7.80719 479.108 8.18727L493.197 8.8783C507.587 9.5841 514.782 9.937 519.472 5.68575C524.162 1.43454 524.515 -5.76063 525.221 -20.151L526.142 -38.9365C526.848 -53.3269 527.201 -60.5221 522.949 -65.2118C518.698 -69.9016 511.503 -70.2545 497.113 -70.9603L352.699 -78.0434C338.308 -78.7492 331.113 -79.1021 326.424 -74.8508C321.734 -70.5996 321.381 -63.4044 320.675 -49.0141L319.063 -16.1394C318.683 -8.39073 318.493 -4.51642 315.967 -2.22729C313.442 0.0618407 309.568 -0.128172 301.819 -0.50823L287.73 -1.19926C273.34 -1.90506 266.144 -2.25797 261.455 1.99326C256.765 6.24451 256.412 13.4397 255.706 27.83L254.094 60.7047C253.714 68.4533 253.524 72.3277 250.998 74.6168C248.473 76.9059 244.599 76.7159 236.85 76.3359L220.413 75.5297C206.023 74.8239 198.827 74.471 194.138 78.7222C189.448 82.9734 189.095 90.1685 188.389 104.559L188.389 104.559L187.468 123.344C186.762 137.735 186.409 144.93 190.66 149.62Z" fill="#1582DC" fill-opacity="0.4"/>
</svg>
