<svg width="244" height="284" viewBox="0 0 244 284" fill="none" xmlns="http://www.w3.org/2000/svg">
<path fill-rule="evenodd" clip-rule="evenodd" d="M213.199 103.639C209.414 96.8359 200.832 94.3885 194.028 98.1727L168.443 112.404C161.64 116.188 159.193 124.771 162.977 131.574L179.241 160.814C183.026 167.617 191.608 170.065 198.412 166.281C202.405 164.059 204.898 160.184 205.51 155.987C209.523 160.232 212.547 165.202 214.109 171.009C218.304 186.613 212.47 200.341 206.383 206.989C201.125 212.73 201.518 221.647 207.259 226.904C213.001 232.161 221.917 231.769 227.174 226.028C238.945 213.174 248.333 189.725 241.333 163.689C236.389 145.3 224.043 132.873 211.827 124.891C210.594 124.085 209.354 123.319 208.112 122.59C214.626 118.702 216.912 110.314 213.199 103.639ZM151.174 158.227C156.432 152.486 156.039 143.569 150.298 138.312C144.556 133.055 135.64 133.447 130.383 139.188C118.612 152.042 109.224 175.491 116.224 201.527C121.168 219.916 133.513 232.342 145.73 240.325C146.963 241.131 148.203 241.897 149.445 242.626C142.931 246.514 140.645 254.902 144.358 261.577C148.143 268.38 156.725 270.827 163.529 267.043L189.113 252.812C195.917 249.028 198.364 240.445 194.58 233.642L178.315 204.402C174.531 197.599 165.948 195.151 159.145 198.935C155.152 201.157 152.659 205.032 152.047 209.229C148.034 204.984 145.009 200.014 143.448 194.207C139.253 178.603 145.087 164.875 151.174 158.227ZM43.1915 -8.64209C51.079 -6.19238 55.0227 -4.96751 57.9528 -2.42009C58.9671 -1.53823 59.8821 -0.548238 60.6816 0.532288C62.9908 3.65351 63.897 7.65964 65.7094 15.6719C67.5219 23.6842 68.4281 27.6903 70.7373 30.8115C71.5367 31.892 72.4518 32.8821 73.4661 33.7639C76.3962 36.3113 80.3187 37.5296 88.1637 39.9662C96.0088 42.4027 99.9313 43.621 102.861 46.1684C103.876 47.0503 104.791 48.0402 105.59 49.1208C107.899 52.242 108.811 56.2698 110.633 64.3254C112.484 72.5096 113.41 76.6017 112.631 80.4701C112.382 81.7082 112.006 82.9175 111.51 84.079C109.96 87.7079 106.883 90.5518 100.73 96.2395C94.6202 101.886 91.5655 104.709 90.0162 108.309C89.5103 109.484 89.128 110.708 88.8753 111.963C88.1014 115.804 89.0032 119.848 90.8068 127.935C92.6104 136.022 93.5123 140.065 92.7383 143.907C92.4857 145.161 92.1033 146.386 91.5975 147.561C90.0481 151.16 86.9811 153.995 80.8471 159.664C74.7131 165.333 71.6462 168.168 67.9363 169.43C66.725 169.842 65.4742 170.127 64.2041 170.28C60.3138 170.75 56.3536 169.533 48.4332 167.099C40.5127 164.665 36.5525 163.449 32.6622 163.918C31.392 164.072 30.1413 164.357 28.9301 164.768C25.2202 166.03 22.1655 168.853 16.0561 174.5C9.9023 180.188 6.82541 183.032 3.08593 184.292C1.88905 184.695 0.654 184.974 -0.599898 185.125C-4.51756 185.598 -8.52422 184.353 -16.5376 181.864C-24.4251 179.415 -28.3688 178.19 -31.2989 175.642C-32.3132 174.76 -33.2282 173.771 -34.0277 172.69C-36.3369 169.569 -37.2431 165.563 -39.0555 157.55C-40.868 149.538 -41.7742 145.532 -44.0834 142.411C-44.8829 141.33 -45.7979 140.34 -46.8122 139.458C-49.7422 136.911 -53.6646 135.693 -61.5094 133.256L-61.5098 133.256C-69.3549 130.82 -73.2774 129.601 -76.2075 127.054C-77.2218 126.172 -78.1368 125.182 -78.9362 124.102C-81.2455 120.98 -82.1566 116.952 -83.9788 108.897C-85.8301 100.713 -86.7558 96.6206 -85.9772 92.7521C-85.7279 91.514 -85.3523 90.3047 -84.8563 89.1433C-83.3064 85.5144 -80.2418 82.6819 -74.1126 77.0168C-67.9834 71.3519 -64.9188 68.5194 -63.3689 64.8906C-62.8729 63.7291 -62.4973 62.5198 -62.2481 61.2816C-61.4694 57.4132 -62.3901 53.343 -64.2314 45.2026C-66.0728 37.0622 -66.9935 32.992 -66.2149 29.1236C-65.9657 27.8854 -65.59 26.6761 -65.094 25.5146C-63.5441 21.8858 -60.4795 19.0533 -54.3503 13.3883C-48.2212 7.72333 -45.1566 4.89085 -41.4172 3.63096C-40.2202 3.22768 -38.9851 2.94828 -37.7311 2.79715C-33.8135 2.32499 -29.8283 3.56274 -21.8578 6.03823C-13.8873 8.51372 -9.90208 9.75147 -5.98444 9.27932C-4.73046 9.12818 -3.4953 8.84877 -2.29836 8.44548C1.44106 7.18556 4.50562 4.3531 10.6347 -1.31188C16.7639 -6.97689 19.8285 -9.80941 23.5679 -11.0693C24.7648 -11.4726 25.9999 -11.752 27.2538 -11.9031C31.1715 -12.3753 35.1782 -11.1309 43.1915 -8.64209ZM-19.0378 94.0007C-17.2363 101.965 -16.3355 105.947 -14.0592 109.048C-13.2254 110.184 -12.2643 111.221 -11.1946 112.138C-8.27467 114.642 -4.38254 115.838 3.40175 118.23C11.1339 120.605 15 121.793 18.8004 121.372C20.1927 121.218 21.563 120.906 22.8848 120.442C26.4925 119.175 29.4626 116.43 35.4028 110.94L35.845 110.531C41.7852 105.04 44.7554 102.295 46.3017 98.7983C46.8682 97.5171 47.2871 96.1756 47.5503 94.7997C48.2686 91.0441 47.3883 87.0966 45.6277 79.2016C43.8552 71.2534 42.969 67.2794 40.7022 64.1716C39.8718 63.0332 38.9139 61.9936 37.8471 61.0731C34.9348 58.5602 31.0357 57.3492 23.2375 54.9272C15.4028 52.4939 11.4854 51.2772 7.64289 51.7083C6.28684 51.8604 4.95182 52.1624 3.66231 52.6088C0.00833685 53.8734 -3.03686 56.688 -9.1272 62.3172C-15.2175 67.9463 -18.2626 70.7608 -19.8106 74.3041C-20.3568 75.5545 -20.7628 76.8616 -21.021 78.2014C-21.7528 81.9982 -20.8478 85.999 -19.0378 94.0007ZM-53.343 203.977C-60.8731 203.68 -67.1713 209.502 -79.7678 221.144L-86.841 227.682C-99.4375 239.324 -105.736 245.145 -106.032 252.675C-106.328 260.205 -100.507 266.504 -88.8648 279.1L-82.3272 286.173C-70.6848 298.77 -64.8636 305.068 -57.3335 305.364C-49.8034 305.661 -43.5052 299.84 -30.9087 288.197L-23.8355 281.66C-11.239 270.017 -4.9408 264.196 -4.64442 256.666C-4.34805 249.136 -10.1693 242.837 -21.8117 230.241L-28.3493 223.168C-39.9917 210.571 -45.8129 204.273 -53.343 203.977ZM-81.5868 197.8C-82.5634 204.057 -87.9121 209.001 -98.6095 218.888C-109.307 228.775 -114.656 233.719 -120.97 234.201C-122.368 234.307 -123.774 234.252 -125.16 234.036C-131.416 233.059 -136.36 227.71 -146.247 217.013C-156.134 206.315 -161.078 200.967 -161.56 194.653C-161.667 193.254 -161.611 191.848 -161.395 190.463C-160.418 184.206 -155.07 179.262 -144.372 169.375C-133.675 159.488 -128.326 154.544 -122.012 154.062C-120.614 153.956 -119.208 154.011 -117.822 154.227C-111.565 155.204 -106.622 160.553 -96.7346 171.25C-86.8474 181.948 -81.9037 187.296 -81.4219 193.61C-81.3152 195.009 -81.3706 196.415 -81.5868 197.8ZM-140.33 250.19C-140.626 257.72 -146.924 263.541 -159.521 275.184L-166.594 281.721C-179.19 293.364 -185.489 299.185 -193.019 298.888C-200.549 298.592 -206.37 292.294 -218.012 279.697L-224.55 272.624C-236.193 260.028 -242.014 253.729 -241.717 246.199C-241.421 238.669 -235.123 232.848 -222.526 221.206L-215.453 214.668C-202.857 203.026 -196.558 197.204 -189.028 197.501C-181.498 197.797 -175.677 204.095 -164.035 216.692L-157.497 223.765C-145.855 236.361 -140.033 242.66 -140.33 250.19ZM-100.223 305.494C-101.513 307.555 -103.614 309.497 -107.817 313.381C-112.019 317.266 -114.121 319.208 -116.277 320.331C-121.996 323.312 -128.867 323.042 -134.334 319.621C-136.395 318.331 -138.337 316.23 -142.222 312.027C-146.106 307.824 -148.048 305.723 -149.172 303.567C-152.153 297.848 -151.882 290.977 -148.461 285.51C-147.172 283.449 -145.07 281.507 -140.868 277.622C-136.665 273.738 -134.563 271.795 -132.408 270.672C-126.688 267.691 -119.818 267.962 -114.35 271.383C-112.289 272.672 -110.347 274.774 -106.463 278.976C-102.578 283.179 -100.636 285.28 -99.5125 287.436C-96.5318 293.156 -96.8022 300.026 -100.223 305.494ZM22.6441 227.093C18.6404 206.407 44.2636 193.435 58.5648 208.908L103.755 257.801C111.601 266.291 111.08 279.533 102.591 287.379L52.8157 333.385C37.4128 347.621 12.9725 332.874 18.3873 312.61L29.2118 272.102C30.03 269.041 30.1422 265.833 29.54 262.721L22.6441 227.093ZM-128.978 115.302C-131.76 118.371 -136.469 118.602 -145.887 119.064L-240.403 123.7C-249.821 124.162 -254.53 124.393 -257.6 121.61C-260.669 118.828 -260.9 114.119 -261.362 104.701L-262.417 83.1848C-262.666 78.1135 -262.79 75.5778 -264.443 74.0797C-266.096 72.5815 -268.631 72.7059 -273.703 72.9546L-284.461 73.4822C-293.879 73.9442 -298.588 74.1751 -301.657 71.3928C-304.726 68.6104 -304.957 63.9014 -305.419 54.4832L-306.475 32.9675C-306.723 27.8961 -306.848 25.3605 -308.5 23.8623C-310.153 22.3641 -312.689 22.4885 -317.76 22.7372L-326.981 23.1895C-336.399 23.6514 -341.108 23.8824 -344.178 21.1C-347.247 18.3177 -347.478 13.6086 -347.94 4.19045L-348.543 -8.10428C-349.005 -17.5224 -349.236 -22.2315 -346.454 -25.3009C-343.671 -28.3702 -338.962 -28.6012 -329.544 -29.0631L-235.028 -33.6988C-225.61 -34.1608 -220.901 -34.3917 -217.832 -31.6094C-214.762 -28.827 -214.531 -24.118 -214.07 -14.6998L-213.014 6.81597C-212.765 11.8873 -212.641 14.4229 -210.988 15.9211C-209.336 17.4193 -206.8 17.2949 -201.729 17.0462L-192.508 16.5939C-183.09 16.132 -178.38 15.901 -175.311 18.6834C-172.242 21.4657 -172.011 26.1748 -171.549 35.593L-170.494 57.1087C-170.245 62.1801 -170.12 64.7157 -168.468 66.2139C-166.815 67.7121 -164.279 67.5877 -159.208 67.339L-148.45 66.8113C-139.032 66.3494 -134.323 66.1184 -131.254 68.9008C-128.184 71.6831 -127.953 76.3922 -127.491 85.8104L-126.888 98.1051C-126.426 107.523 -126.195 112.232 -128.978 115.302Z" fill="#13BD7B" fill-opacity="0.4"/>
</svg>
