<svg width="431" height="284" viewBox="0 0 431 284" fill="none" xmlns="http://www.w3.org/2000/svg">
<g opacity="0.9">
<g clip-path="url(#clip0_140_108)">
<rect x="0.569214" y="0.780273" width="429.715" height="282.64" rx="24" fill="url(#paint0_linear_140_108)"/>
<path fill-rule="evenodd" clip-rule="evenodd" d="M213.199 103.639C209.414 96.8359 200.832 94.3885 194.028 98.1727L168.443 112.404C161.64 116.188 159.193 124.771 162.977 131.574L179.241 160.814C183.026 167.617 191.608 170.065 198.412 166.281C202.405 164.059 204.898 160.184 205.51 155.987C209.523 160.232 212.547 165.202 214.109 171.009C218.304 186.613 212.47 200.341 206.383 206.989C201.125 212.73 201.518 221.647 207.259 226.904C213.001 232.161 221.917 231.769 227.174 226.028C238.945 213.174 248.333 189.725 241.333 163.689C236.389 145.3 224.043 132.873 211.827 124.891C210.594 124.085 209.354 123.319 208.112 122.59C214.626 118.702 216.912 110.314 213.199 103.639ZM151.174 158.227C156.432 152.486 156.039 143.569 150.298 138.312C144.556 133.055 135.64 133.447 130.383 139.188C118.612 152.042 109.224 175.491 116.224 201.527C121.168 219.916 133.513 232.342 145.73 240.325C146.963 241.131 148.203 241.897 149.445 242.626C142.931 246.514 140.645 254.902 144.358 261.577C148.143 268.38 156.725 270.827 163.529 267.043L189.113 252.812C195.917 249.028 198.364 240.445 194.58 233.642L178.315 204.402C174.531 197.599 165.948 195.151 159.145 198.935C155.152 201.157 152.659 205.032 152.047 209.229C148.034 204.984 145.009 200.014 143.448 194.207C139.253 178.603 145.087 164.875 151.174 158.227ZM43.1915 -8.64209C51.079 -6.19238 55.0227 -4.96751 57.9528 -2.42009C58.9671 -1.53823 59.8821 -0.548238 60.6816 0.532288C62.9908 3.65351 63.897 7.65964 65.7094 15.6719C67.5219 23.6842 68.4281 27.6903 70.7373 30.8115C71.5367 31.892 72.4518 32.8821 73.4661 33.7639C76.3962 36.3113 80.3187 37.5296 88.1637 39.9662C96.0088 42.4027 99.9313 43.621 102.861 46.1684C103.876 47.0503 104.791 48.0402 105.59 49.1208C107.899 52.242 108.811 56.2698 110.633 64.3254C112.484 72.5096 113.41 76.6017 112.631 80.4701C112.382 81.7082 112.006 82.9175 111.51 84.079C109.96 87.7079 106.883 90.5518 100.73 96.2395C94.6202 101.886 91.5655 104.709 90.0162 108.309C89.5103 109.484 89.128 110.708 88.8753 111.963C88.1014 115.804 89.0032 119.848 90.8068 127.935C92.6104 136.022 93.5123 140.065 92.7383 143.907C92.4857 145.161 92.1033 146.386 91.5975 147.561C90.0481 151.16 86.9811 153.995 80.8471 159.664C74.7131 165.333 71.6462 168.168 67.9363 169.43C66.725 169.842 65.4742 170.127 64.2041 170.28C60.3138 170.75 56.3536 169.533 48.4332 167.099C40.5127 164.665 36.5525 163.449 32.6622 163.918C31.392 164.072 30.1413 164.357 28.9301 164.768C25.2202 166.03 22.1655 168.853 16.0561 174.5C9.9023 180.188 6.82541 183.032 3.08593 184.292C1.88905 184.695 0.654 184.974 -0.599898 185.125C-4.51756 185.598 -8.52422 184.353 -16.5376 181.864C-24.4251 179.415 -28.3688 178.19 -31.2989 175.642C-32.3132 174.76 -33.2282 173.771 -34.0277 172.69C-36.3369 169.569 -37.2431 165.563 -39.0555 157.55C-40.868 149.538 -41.7742 145.532 -44.0834 142.411C-44.8829 141.33 -45.7979 140.34 -46.8122 139.458C-49.7422 136.911 -53.6646 135.693 -61.5094 133.256L-61.5098 133.256C-69.3549 130.82 -73.2774 129.601 -76.2075 127.054C-77.2218 126.172 -78.1368 125.182 -78.9362 124.102C-81.2455 120.98 -82.1566 116.952 -83.9788 108.897C-85.8301 100.713 -86.7558 96.6206 -85.9772 92.7521C-85.7279 91.514 -85.3523 90.3047 -84.8563 89.1433C-83.3064 85.5144 -80.2418 82.6819 -74.1126 77.0168C-67.9834 71.3519 -64.9188 68.5194 -63.3689 64.8906C-62.8729 63.7291 -62.4973 62.5198 -62.2481 61.2816C-61.4694 57.4132 -62.3901 53.343 -64.2314 45.2026C-66.0728 37.0622 -66.9935 32.992 -66.2149 29.1236C-65.9657 27.8854 -65.59 26.6761 -65.094 25.5146C-63.5441 21.8858 -60.4795 19.0533 -54.3503 13.3883C-48.2212 7.72333 -45.1566 4.89085 -41.4172 3.63096C-40.2202 3.22768 -38.9851 2.94828 -37.7311 2.79715C-33.8135 2.32499 -29.8283 3.56274 -21.8578 6.03823C-13.8873 8.51372 -9.90208 9.75147 -5.98444 9.27932C-4.73046 9.12818 -3.4953 8.84877 -2.29836 8.44548C1.44106 7.18556 4.50562 4.3531 10.6347 -1.31188C16.7639 -6.97689 19.8285 -9.80941 23.5679 -11.0693C24.7648 -11.4726 25.9999 -11.752 27.2538 -11.9031C31.1715 -12.3753 35.1782 -11.1309 43.1915 -8.64209ZM-19.0378 94.0007C-17.2363 101.965 -16.3355 105.947 -14.0592 109.048C-13.2254 110.184 -12.2643 111.221 -11.1946 112.138C-8.27467 114.642 -4.38254 115.838 3.40175 118.23C11.1339 120.605 15 121.793 18.8004 121.372C20.1927 121.218 21.563 120.906 22.8848 120.442C26.4925 119.175 29.4626 116.43 35.4028 110.94L35.845 110.531C41.7852 105.04 44.7554 102.295 46.3017 98.7983C46.8682 97.5171 47.2871 96.1756 47.5503 94.7997C48.2686 91.0441 47.3883 87.0966 45.6277 79.2016C43.8552 71.2534 42.969 67.2794 40.7022 64.1716C39.8718 63.0332 38.9139 61.9936 37.8471 61.0731C34.9348 58.5602 31.0357 57.3492 23.2375 54.9272C15.4028 52.4939 11.4854 51.2772 7.64289 51.7083C6.28684 51.8604 4.95182 52.1624 3.66231 52.6088C0.00833685 53.8734 -3.03686 56.688 -9.1272 62.3172C-15.2175 67.9463 -18.2626 70.7608 -19.8106 74.3041C-20.3568 75.5545 -20.7628 76.8616 -21.021 78.2014C-21.7528 81.9982 -20.8478 85.999 -19.0378 94.0007ZM-53.343 203.977C-60.8731 203.68 -67.1713 209.502 -79.7678 221.144L-86.841 227.682C-99.4375 239.324 -105.736 245.145 -106.032 252.675C-106.328 260.205 -100.507 266.504 -88.8648 279.1L-82.3272 286.173C-70.6848 298.77 -64.8636 305.068 -57.3335 305.364C-49.8034 305.661 -43.5052 299.84 -30.9087 288.197L-23.8355 281.66C-11.239 270.017 -4.9408 264.196 -4.64442 256.666C-4.34805 249.136 -10.1693 242.837 -21.8117 230.241L-28.3493 223.168C-39.9917 210.571 -45.8129 204.273 -53.343 203.977ZM-81.5868 197.8C-82.5634 204.057 -87.9121 209.001 -98.6095 218.888C-109.307 228.775 -114.656 233.719 -120.97 234.201C-122.368 234.307 -123.774 234.252 -125.16 234.036C-131.416 233.059 -136.36 227.71 -146.247 217.013C-156.134 206.315 -161.078 200.967 -161.56 194.653C-161.667 193.254 -161.611 191.848 -161.395 190.463C-160.418 184.206 -155.07 179.262 -144.372 169.375C-133.675 159.488 -128.326 154.544 -122.012 154.062C-120.614 153.956 -119.208 154.011 -117.822 154.227C-111.565 155.204 -106.622 160.553 -96.7346 171.25C-86.8474 181.948 -81.9037 187.296 -81.4219 193.61C-81.3152 195.009 -81.3706 196.415 -81.5868 197.8ZM-140.33 250.19C-140.626 257.72 -146.924 263.541 -159.521 275.184L-166.594 281.721C-179.19 293.364 -185.489 299.185 -193.019 298.888C-200.549 298.592 -206.37 292.294 -218.012 279.697L-224.55 272.624C-236.193 260.028 -242.014 253.729 -241.717 246.199C-241.421 238.669 -235.123 232.848 -222.526 221.206L-215.453 214.668C-202.857 203.026 -196.558 197.204 -189.028 197.501C-181.498 197.797 -175.677 204.095 -164.035 216.692L-157.497 223.765C-145.855 236.361 -140.033 242.66 -140.33 250.19ZM-100.223 305.494C-101.513 307.555 -103.614 309.497 -107.817 313.381C-112.019 317.266 -114.121 319.208 -116.277 320.331C-121.996 323.312 -128.867 323.042 -134.334 319.621C-136.395 318.331 -138.337 316.23 -142.222 312.027C-146.106 307.824 -148.048 305.723 -149.172 303.567C-152.153 297.848 -151.882 290.977 -148.461 285.51C-147.172 283.449 -145.07 281.507 -140.868 277.622C-136.665 273.738 -134.563 271.795 -132.408 270.672C-126.688 267.691 -119.818 267.962 -114.35 271.383C-112.289 272.672 -110.347 274.774 -106.463 278.976C-102.578 283.179 -100.636 285.28 -99.5125 287.436C-96.5318 293.156 -96.8022 300.026 -100.223 305.494ZM22.6441 227.093C18.6404 206.407 44.2636 193.435 58.5648 208.908L103.755 257.801C111.601 266.291 111.08 279.533 102.591 287.379L52.8157 333.385C37.4128 347.621 12.9725 332.874 18.3873 312.61L29.2118 272.102C30.03 269.041 30.1422 265.833 29.54 262.721L22.6441 227.093ZM-128.978 115.302C-131.76 118.371 -136.469 118.602 -145.887 119.064L-240.403 123.7C-249.821 124.162 -254.53 124.393 -257.6 121.61C-260.669 118.828 -260.9 114.119 -261.362 104.701L-262.417 83.1848C-262.666 78.1135 -262.79 75.5778 -264.443 74.0797C-266.096 72.5815 -268.631 72.7059 -273.703 72.9546L-284.461 73.4822C-293.879 73.9442 -298.588 74.1751 -301.657 71.3928C-304.726 68.6104 -304.957 63.9014 -305.419 54.4832L-306.475 32.9675C-306.723 27.8961 -306.848 25.3605 -308.5 23.8623C-310.153 22.3641 -312.689 22.4885 -317.76 22.7372L-326.981 23.1895C-336.399 23.6514 -341.108 23.8824 -344.178 21.1C-347.247 18.3177 -347.478 13.6086 -347.94 4.19045L-348.543 -8.10428C-349.005 -17.5224 -349.236 -22.2315 -346.454 -25.3009C-343.671 -28.3702 -338.962 -28.6012 -329.544 -29.0631L-235.028 -33.6988C-225.61 -34.1608 -220.901 -34.3917 -217.832 -31.6094C-214.762 -28.827 -214.531 -24.118 -214.07 -14.6998L-213.014 6.81597C-212.765 11.8873 -212.641 14.4229 -210.988 15.9211C-209.336 17.4193 -206.8 17.2949 -201.729 17.0462L-192.508 16.5939C-183.09 16.132 -178.38 15.901 -175.311 18.6834C-172.242 21.4657 -172.011 26.1748 -171.549 35.593L-170.494 57.1087C-170.245 62.1801 -170.12 64.7157 -168.468 66.2139C-166.815 67.7121 -164.279 67.5877 -159.208 67.339L-148.45 66.8113C-139.032 66.3494 -134.323 66.1184 -131.254 68.9008C-128.184 71.6831 -127.953 76.3922 -127.491 85.8104L-126.888 98.1051C-126.426 107.523 -126.195 112.232 -128.978 115.302Z" fill="#13BD7B" fill-opacity="0.4"/>
<path d="M493.316 125.96C490.72 110.944 485.123 96.6049 476.861 83.7993C468.6 70.9937 457.842 59.9843 445.231 51.4284C432.621 42.8724 418.415 36.9455 403.463 34.0014C388.511 31.0573 373.119 31.1564 358.206 34.2929C382.425 38.9906 408.898 50.057 434.41 67.3648C459.921 84.6726 480.008 105.18 493.316 125.96Z" fill="url(#paint1_linear_140_108)"/>
<path d="M271.962 164.718C294.592 158.797 325.193 165.184 352.579 183.765C379.959 202.348 397.23 228.427 400.098 251.639C392.794 252.774 385.397 253.2 378.011 252.911C370.06 235.363 356.229 218.676 337.507 205.978C318.786 193.279 298.179 186.596 278.941 185.698C275.94 178.947 273.603 171.921 271.962 164.718Z" fill="url(#paint2_linear_140_108)"/>
<path d="M318.893 233.432C305.654 224.451 294.463 212.774 286.054 199.166C300.696 201.2 316.058 206.998 330.273 216.64C344.488 226.283 355.567 238.416 362.873 251.274C347.119 248.492 332.132 242.412 318.893 233.432Z" fill="url(#paint3_linear_140_108)"/>
<path d="M397.595 117.42C422.91 134.594 442.939 155.976 453.991 177.616C463.697 196.639 465.049 213.767 457.696 224.616C457.675 224.649 457.657 224.683 457.639 224.716C457.618 224.755 457.597 224.793 457.572 224.829C455.92 226.279 454.224 227.666 452.5 229.003C451.789 219.141 448.988 208.674 444.078 197.899C433.118 173.979 412.748 151.079 386.739 133.431C360.728 115.785 331.936 105.334 305.65 103.991C293.83 103.39 283.072 104.662 273.656 107.638C274.269 105.54 274.925 103.454 275.664 101.376C275.684 101.347 275.707 101.319 275.73 101.291C275.758 101.257 275.785 101.223 275.809 101.187C283.16 90.3493 299.58 85.2751 320.845 87.2691C345.016 89.5413 372.281 100.246 397.595 117.42Z" fill="url(#paint4_linear_140_108)"/>
<path d="M375.104 150.567C336.338 124.266 291.943 117.466 269.325 132.348C269.009 137.478 269.043 142.625 269.427 147.751C275.877 146.278 282.472 145.527 289.088 145.514C313.209 145.386 339.195 153.922 362.225 169.553C385.255 185.186 402.803 206.188 411.605 228.632C414.042 234.782 415.781 241.187 416.789 247.725C421.695 246.187 426.492 244.318 431.146 242.131C436.612 215.611 413.88 176.872 375.104 150.567Z" fill="url(#paint5_linear_140_108)"/>
<path d="M420.303 83.9457C445.797 101.234 466.01 122.685 477.204 144.312C485.732 160.804 487.908 175.71 483.483 186.107C474.799 155.943 449.144 122.966 411.271 97.2721C373.398 71.5783 333.285 59.9374 302.041 63.0098C310.07 55.0508 324.726 51.5657 343.205 53.3949C367.445 55.8071 394.809 66.6579 420.303 83.9457Z" fill="url(#paint6_linear_140_108)"/>
<path d="M35.6132 192.874H34.5976C34.136 192.874 33.9229 192.646 33.7311 192.213C33.3547 191.382 32.4314 190.906 31.1672 190.906C29.5195 190.906 28.5394 191.709 28.5323 192.803C28.5181 194.017 29.8107 194.521 31.0039 194.805L32.3675 195.146C34.555 195.665 36.636 196.815 36.6431 199.337C36.636 201.901 34.6118 203.641 31.1246 203.641C28.0706 203.641 26.0252 202.32 25.5706 199.947C25.4712 199.422 25.7837 199.124 26.3093 199.124H27.3675C27.8363 199.124 28.0493 199.365 28.2127 199.812C28.6104 200.871 29.7255 201.389 31.1033 201.389C32.8221 201.389 34.001 200.558 34.0081 199.315C34.001 198.186 32.9641 197.696 31.3945 197.298L29.7397 196.872C27.3462 196.254 25.8618 195.054 25.8618 192.966C25.8547 190.395 28.1488 188.676 31.2027 188.676C33.9442 188.676 35.8973 190.04 36.3448 192.05C36.4584 192.568 36.1388 192.874 35.6132 192.874ZM40.7253 202.76L38.0761 193.392C37.927 192.852 38.1756 192.511 38.7366 192.511H39.7523C40.221 192.511 40.5051 192.731 40.6187 193.186L42.3659 200.182H42.4653L44.2551 193.186C44.3687 192.739 44.6599 192.511 45.1216 192.511H46.3219C46.7835 192.511 47.0747 192.739 47.1883 193.186L48.9781 200.139H49.0847L50.8034 193.186C50.917 192.731 51.2011 192.511 51.6699 192.511H52.6926C53.2537 192.511 53.5023 192.852 53.3531 193.392L50.6969 202.76C50.569 203.2 50.2849 203.42 49.8233 203.42H48.5236C48.0619 203.42 47.7707 203.207 47.65 202.76L45.7892 196.048H45.6401L43.7793 202.76C43.6585 203.207 43.3673 203.42 42.9057 203.42H41.5989C41.1372 203.42 40.8531 203.2 40.7253 202.76ZM58.316 203.641C56.235 203.641 54.6654 202.504 54.6654 200.359C54.6654 197.902 56.6896 197.27 58.8061 197.043C60.7308 196.837 61.5049 196.801 61.5049 196.062V196.02C61.5049 194.947 60.8515 194.337 59.6583 194.337C58.7421 194.337 58.11 194.678 57.7336 195.146C57.4566 195.508 57.208 195.693 56.7606 195.629L55.9012 195.508C55.3544 195.43 55.0916 195.054 55.3544 194.557C56.1285 193.108 57.691 192.369 59.6441 192.369C61.7251 192.369 64.0759 193.236 64.0759 196.119V202.639C64.0759 203.143 63.799 203.42 63.2947 203.42H62.3856C61.8813 203.42 61.6044 203.151 61.6044 202.668V201.922H61.5191C61.0504 202.838 60.0277 203.641 58.316 203.641ZM58.9836 201.751C60.5319 201.751 61.512 200.722 61.512 199.507V198.222C61.1782 198.491 59.8288 198.662 59.1541 198.754C58.0035 198.918 57.1441 199.33 57.1441 200.317C57.1441 201.261 57.9112 201.751 58.9836 201.751ZM66.4412 206.73V193.293C66.4412 192.788 66.7182 192.511 67.2224 192.511H68.1883C68.6926 192.511 68.9696 192.788 68.9696 193.293V194.315H69.1187C69.5094 193.527 70.3119 192.369 72.2366 192.369C74.7579 192.369 76.7395 194.344 76.7395 197.98C76.7395 201.574 74.8148 203.612 72.2437 203.612C70.3687 203.612 69.5236 202.497 69.1187 201.702H69.0122V206.73C69.0122 207.234 68.7352 207.511 68.2309 207.511H67.2224C66.7182 207.511 66.4412 207.234 66.4412 206.73ZM68.9625 197.966C68.9625 200.082 69.8858 201.503 71.5264 201.503C73.2238 201.503 74.1187 200.011 74.1187 197.966C74.1187 195.935 73.238 194.479 71.5264 194.479C69.8716 194.479 68.9625 195.849 68.9625 197.966ZM86.6013 203.641C84.5204 203.641 82.9507 202.504 82.9507 200.359C82.9507 197.902 84.9749 197.27 87.0914 197.043C89.0161 196.837 89.7902 196.801 89.7902 196.062V196.02C89.7902 194.947 89.1368 194.337 87.9436 194.337C87.0275 194.337 86.3954 194.678 86.0189 195.146C85.7419 195.508 85.4934 195.693 85.0459 195.629L84.1865 195.508C83.6397 195.43 83.3769 195.054 83.6397 194.557C84.4138 193.108 85.9763 192.369 87.9294 192.369C90.0104 192.369 92.3613 193.236 92.3613 196.119V202.639C92.3613 203.143 92.0843 203.42 91.58 203.42H90.6709C90.1667 203.42 89.8897 203.151 89.8897 202.668V201.922H89.8044C89.3357 202.838 88.313 203.641 86.6013 203.641ZM87.2689 201.751C88.8172 201.751 89.7973 200.722 89.7973 199.507V198.222C89.4635 198.491 88.1141 198.662 87.4394 198.754C86.2888 198.918 85.4294 199.33 85.4294 200.317C85.4294 201.261 86.1965 201.751 87.2689 201.751ZM97.2975 197.028V202.639C97.2975 203.143 97.0205 203.42 96.5163 203.42H95.5077C95.0035 203.42 94.7265 203.143 94.7265 202.639V193.293C94.7265 192.788 95.0035 192.511 95.5077 192.511H96.4026C96.9069 192.511 97.1839 192.788 97.1839 193.293V194.365H97.3117C97.8089 193.151 98.931 192.369 100.565 192.369C102.816 192.369 104.307 193.861 104.3 196.474V202.639C104.3 203.143 104.023 203.42 103.519 203.42H102.511C102.006 203.42 101.729 203.143 101.729 202.639V196.872C101.729 195.416 100.934 194.543 99.6057 194.543C98.2492 194.543 97.2975 195.452 97.2975 197.028ZM110.742 203.612C108.171 203.612 106.247 201.574 106.247 197.98C106.247 194.344 108.228 192.369 110.749 192.369C112.674 192.369 113.477 193.527 113.867 194.315H113.974V189.656C113.974 189.152 114.251 188.875 114.755 188.875H115.771C116.275 188.875 116.552 189.152 116.552 189.656V202.639C116.552 203.143 116.275 203.42 115.771 203.42H114.805C114.301 203.42 114.024 203.143 114.024 202.639V201.702H113.867C113.462 202.497 112.617 203.612 110.742 203.612ZM111.46 201.503C113.1 201.503 114.024 200.082 114.024 197.966C114.024 195.849 113.114 194.479 111.46 194.479C109.748 194.479 108.867 195.935 108.867 197.966C108.867 200.011 109.762 201.503 111.46 201.503ZM37.5806 223.783H36.4868C36.0252 223.783 35.7837 223.555 35.6132 223.115C35.109 221.787 33.8661 221.041 32.3391 221.041C29.9598 221.041 28.2837 222.866 28.2837 226.148C28.2837 229.486 29.974 231.254 32.332 231.254C33.8306 231.254 35.0735 230.544 35.599 229.251C35.7766 228.811 36.0252 228.598 36.4868 228.598L37.5735 228.605C38.1204 228.605 38.4257 228.932 38.2624 229.457C37.5522 231.83 35.3931 233.619 32.2965 233.619C28.4613 233.619 25.6346 230.842 25.6346 226.148C25.6346 221.446 28.4968 218.676 32.2965 218.676C35.2226 218.676 37.5451 220.224 38.2766 222.923C38.4257 223.456 38.1275 223.783 37.5806 223.783ZM45.292 233.633C42.096 233.633 40.0648 231.382 40.0648 228.008C40.0648 224.628 42.096 222.369 45.292 222.369C48.4881 222.369 50.5193 224.628 50.5193 228.008C50.5193 231.382 48.4881 233.633 45.292 233.633ZM45.3062 231.574C47.0463 231.574 47.9128 229.997 47.9128 228.001C47.9128 226.006 47.0463 224.408 45.3062 224.408C43.5378 224.408 42.6713 226.006 42.6713 228.001C42.6713 229.997 43.5378 231.574 45.3062 231.574ZM52.4815 236.73V223.293C52.4815 222.788 52.7585 222.511 53.2627 222.511H54.2286C54.7329 222.511 55.0099 222.788 55.0099 223.293V224.315H55.159C55.5497 223.527 56.3522 222.369 58.2769 222.369C60.7982 222.369 62.7798 224.344 62.7798 227.98C62.7798 231.574 60.8551 233.612 58.284 233.612C56.409 233.612 55.5639 232.497 55.159 231.702H55.0525V236.73C55.0525 237.234 54.7755 237.511 54.2713 237.511H53.2627C52.7585 237.511 52.4815 237.234 52.4815 236.73ZM55.0028 227.966C55.0028 230.082 55.9261 231.503 57.5667 231.503C59.2642 231.503 60.159 230.011 60.159 227.966C60.159 225.935 59.2784 224.479 57.5667 224.479C55.9119 224.479 55.0028 225.849 55.0028 227.966ZM65.9884 237.511C65.6617 237.511 65.3492 237.483 65.0722 237.44C64.5679 237.355 64.3975 236.972 64.5395 236.481L64.6958 235.956C64.8378 235.48 65.1503 235.345 65.6475 235.395C66.3719 235.459 66.8975 235.189 67.2597 234.237L67.4799 233.648L63.8435 223.406C63.6518 222.866 63.9003 222.511 64.4756 222.511H65.5694C66.0239 222.511 66.3151 222.724 66.4501 223.165L68.7654 230.75H68.879L71.2015 223.165C71.3364 222.724 71.6276 222.511 72.0822 222.511H73.183C73.7583 222.511 74.0069 222.866 73.8151 223.406L69.7668 234.741C69.1489 236.481 67.9912 237.511 65.9884 237.511ZM79.9092 220.303V219.656C79.9092 219.152 80.1862 218.875 80.6905 218.875H90.7331C91.2373 218.875 91.5143 219.152 91.5143 219.656V220.303C91.5143 220.807 91.2373 221.084 90.7331 221.084H87.0186V232.639C87.0186 233.143 86.7416 233.42 86.2373 233.42H85.1862C84.6819 233.42 84.4049 233.143 84.4049 232.639V221.084H80.6905C80.1862 221.084 79.9092 220.807 79.9092 220.303ZM92.2851 232.639V223.293C92.2851 222.788 92.5621 222.511 93.0663 222.511H93.9967C94.501 222.511 94.778 222.788 94.778 223.293V224.33H94.8916C95.2893 223.065 96.3334 222.355 97.5834 222.355H97.768C98.2581 222.376 98.5067 222.682 98.5067 223.172V223.953C98.5067 224.486 98.2936 224.727 97.9172 224.678C97.7183 224.656 97.5053 224.642 97.3135 224.642C95.9001 224.642 94.8561 225.622 94.8561 227.007V232.639C94.8561 233.143 94.5791 233.42 94.0749 233.42H93.0663C92.5621 233.42 92.2851 233.143 92.2851 232.639ZM102.919 233.641C100.838 233.641 99.2686 232.504 99.2686 230.359C99.2686 227.902 101.293 227.27 103.409 227.043C105.334 226.837 106.108 226.801 106.108 226.062V226.02C106.108 224.947 105.455 224.337 104.261 224.337C103.345 224.337 102.713 224.678 102.337 225.146C102.06 225.508 101.811 225.693 101.364 225.629L100.504 225.508C99.9575 225.43 99.6947 225.054 99.9575 224.557C100.732 223.108 102.294 222.369 104.247 222.369C106.328 222.369 108.679 223.236 108.679 226.119V232.639C108.679 233.143 108.402 233.42 107.898 233.42H106.989C106.484 233.42 106.207 233.151 106.207 232.668V231.922H106.122C105.654 232.838 104.631 233.641 102.919 233.641ZM103.587 231.751C105.135 231.751 106.115 230.722 106.115 229.507V228.222C105.781 228.491 104.432 228.662 103.757 228.754C102.607 228.918 101.747 229.33 101.747 230.317C101.747 231.261 102.514 231.751 103.587 231.751ZM115.093 233.612C112.522 233.612 110.597 231.574 110.597 227.98C110.597 224.344 112.578 222.369 115.1 222.369C117.024 222.369 117.827 223.527 118.218 224.315H118.324V219.656C118.324 219.152 118.601 218.875 119.105 218.875H120.121C120.625 218.875 120.902 219.152 120.902 219.656V232.639C120.902 233.143 120.625 233.42 120.121 233.42H119.155C118.651 233.42 118.374 233.143 118.374 232.639V231.702H118.218C117.813 232.497 116.968 233.612 115.093 233.612ZM115.81 231.503C117.451 231.503 118.374 230.082 118.374 227.966C118.374 225.849 117.465 224.479 115.81 224.479C114.098 224.479 113.218 225.935 113.218 227.966C113.218 230.011 114.112 231.503 115.81 231.503ZM128.251 233.633C124.963 233.633 122.953 231.453 122.953 228.03C122.953 224.663 124.992 222.369 128.117 222.369C130.801 222.369 133.102 224.053 133.102 227.881V227.888C133.102 228.392 132.825 228.669 132.321 228.669H125.503C125.524 230.537 126.625 231.631 128.287 231.631C129.139 231.631 129.842 231.347 130.276 230.793C130.553 230.43 130.808 230.246 131.249 230.295L132.115 230.395C132.662 230.459 132.946 230.757 132.769 231.162C132.101 232.675 130.482 233.633 128.251 233.633ZM125.51 226.936H130.638C130.624 225.452 129.629 224.372 128.152 224.372C126.618 224.372 125.588 225.544 125.51 226.936Z" fill="white"/>
</g>
<rect x="1.56921" y="1.78027" width="427.715" height="280.64" rx="23" stroke="url(#paint7_linear_140_108)" stroke-opacity="0.5" stroke-width="2"/>
</g>
<defs>
<linearGradient id="paint0_linear_140_108" x1="215.427" y1="0.780273" x2="215.427" y2="283.42" gradientUnits="userSpaceOnUse">
<stop stop-color="#00C978"/>
<stop offset="1" stop-color="#00C9A8"/>
</linearGradient>
<linearGradient id="paint1_linear_140_108" x1="388.111" y1="32.0464" x2="372.693" y2="252.539" gradientUnits="userSpaceOnUse">
<stop stop-color="#D2FFED"/>
<stop offset="1" stop-color="#31F5A9"/>
</linearGradient>
<linearGradient id="paint2_linear_140_108" x1="388.111" y1="32.0464" x2="372.693" y2="252.539" gradientUnits="userSpaceOnUse">
<stop stop-color="#D2FFED"/>
<stop offset="1" stop-color="#31F5A9"/>
</linearGradient>
<linearGradient id="paint3_linear_140_108" x1="388.111" y1="32.0464" x2="372.693" y2="252.539" gradientUnits="userSpaceOnUse">
<stop stop-color="#D2FFED"/>
<stop offset="1" stop-color="#31F5A9"/>
</linearGradient>
<linearGradient id="paint4_linear_140_108" x1="388.111" y1="32.0464" x2="372.693" y2="252.539" gradientUnits="userSpaceOnUse">
<stop stop-color="#D2FFED"/>
<stop offset="1" stop-color="#31F5A9"/>
</linearGradient>
<linearGradient id="paint5_linear_140_108" x1="388.111" y1="32.0464" x2="372.693" y2="252.539" gradientUnits="userSpaceOnUse">
<stop stop-color="#D2FFED"/>
<stop offset="1" stop-color="#31F5A9"/>
</linearGradient>
<linearGradient id="paint6_linear_140_108" x1="388.111" y1="32.0464" x2="372.693" y2="252.539" gradientUnits="userSpaceOnUse">
<stop stop-color="#D2FFED"/>
<stop offset="1" stop-color="#31F5A9"/>
</linearGradient>
<linearGradient id="paint7_linear_140_108" x1="-19.215" y1="-89.2188" x2="430.28" y2="393.781" gradientUnits="userSpaceOnUse">
<stop stop-color="white"/>
<stop offset="0.5" stop-color="white" stop-opacity="0"/>
<stop offset="1" stop-color="white"/>
</linearGradient>
<clipPath id="clip0_140_108">
<rect x="0.569214" y="0.780273" width="429.715" height="282.64" rx="24" fill="white"/>
</clipPath>
</defs>
</svg>
