<svg width="162" height="222" viewBox="0 0 162 222" fill="none" xmlns="http://www.w3.org/2000/svg">
<path d="M224.316 94.9603C221.72 79.9439 216.123 65.6049 207.861 52.7993C199.6 39.9937 188.842 28.9843 176.231 20.4284C163.621 11.8724 149.415 5.94549 134.463 3.00143C119.511 0.0573158 104.119 0.156445 89.2058 3.29291C113.425 7.99056 139.898 19.057 165.41 36.3648C190.921 53.6726 211.008 74.1798 224.316 94.9603Z" fill="url(#paint0_linear_140_119)"/>
<path d="M2.96227 133.718C25.5919 127.797 56.1931 134.184 83.5792 152.765C110.959 171.348 128.23 197.427 131.098 220.639C123.794 221.774 116.397 222.2 109.011 221.911C101.06 204.363 87.2291 187.676 68.5073 174.978C49.786 162.279 29.1794 155.596 9.9406 154.698C6.94032 147.947 4.60325 140.921 2.96227 133.718Z" fill="url(#paint1_linear_140_119)"/>
<path d="M49.8928 202.432C36.6541 193.451 25.4632 181.774 17.0539 168.166C31.6958 170.2 47.0583 175.998 61.2733 185.64C75.4883 195.283 86.5666 207.416 93.8725 220.274C78.1188 217.492 63.1317 211.412 49.8928 202.432Z" fill="url(#paint2_linear_140_119)"/>
<path d="M128.595 86.4205C153.91 103.594 173.939 124.976 184.991 146.616C194.697 165.639 196.049 182.767 188.696 193.616C188.675 193.649 188.657 193.683 188.639 193.716C188.618 193.755 188.597 193.793 188.572 193.829C186.92 195.279 185.224 196.666 183.5 198.003C182.789 188.141 179.988 177.674 175.078 166.899C164.118 142.979 143.748 120.079 117.739 102.431C91.7284 84.7849 62.9363 74.3338 36.6501 72.9908C24.8295 72.39 14.0722 73.6616 4.65632 76.6384C5.26867 74.5403 5.92529 72.4536 6.66389 70.376C6.68442 70.3471 6.70716 70.3191 6.72978 70.2912C6.75761 70.257 6.78532 70.2229 6.80851 70.1874C14.1605 59.3493 30.5799 54.2751 51.845 56.2691C76.0158 58.5413 103.281 69.2463 128.595 86.4205Z" fill="url(#paint3_linear_140_119)"/>
<path d="M106.104 119.567C67.3381 93.2662 22.943 86.4664 0.325194 101.348C0.0087967 106.478 0.0428843 111.625 0.427195 116.751C6.8775 115.278 13.4717 114.527 20.088 114.514C44.2089 114.386 70.1949 122.922 93.2253 138.553C116.255 154.186 133.803 175.188 142.605 197.632C145.042 203.782 146.781 210.187 147.789 216.725C152.695 215.187 157.492 213.318 162.146 211.131C167.612 184.611 144.88 145.872 106.104 119.567Z" fill="url(#paint4_linear_140_119)"/>
<path d="M151.303 52.9457C176.797 70.2336 197.01 91.6846 208.204 113.312C216.732 129.804 218.908 144.71 214.483 155.107C205.799 124.943 180.144 91.9663 142.271 66.2721C104.398 40.5783 64.2846 28.9374 33.0408 32.0098C41.0702 24.0508 55.7262 20.5657 74.2052 22.3949C98.4448 24.8071 125.809 35.6579 151.303 52.9457Z" fill="url(#paint5_linear_140_119)"/>
<defs>
<linearGradient id="paint0_linear_140_119" x1="119.111" y1="1.0464" x2="103.693" y2="221.539" gradientUnits="userSpaceOnUse">
<stop stop-color="#D2FFED"/>
<stop offset="1" stop-color="#31F5A9"/>
</linearGradient>
<linearGradient id="paint1_linear_140_119" x1="119.111" y1="1.0464" x2="103.693" y2="221.539" gradientUnits="userSpaceOnUse">
<stop stop-color="#D2FFED"/>
<stop offset="1" stop-color="#31F5A9"/>
</linearGradient>
<linearGradient id="paint2_linear_140_119" x1="119.111" y1="1.0464" x2="103.693" y2="221.539" gradientUnits="userSpaceOnUse">
<stop stop-color="#D2FFED"/>
<stop offset="1" stop-color="#31F5A9"/>
</linearGradient>
<linearGradient id="paint3_linear_140_119" x1="119.111" y1="1.0464" x2="103.693" y2="221.539" gradientUnits="userSpaceOnUse">
<stop stop-color="#D2FFED"/>
<stop offset="1" stop-color="#31F5A9"/>
</linearGradient>
<linearGradient id="paint4_linear_140_119" x1="119.111" y1="1.0464" x2="103.693" y2="221.539" gradientUnits="userSpaceOnUse">
<stop stop-color="#D2FFED"/>
<stop offset="1" stop-color="#31F5A9"/>
</linearGradient>
<linearGradient id="paint5_linear_140_119" x1="119.111" y1="1.0464" x2="103.693" y2="221.539" gradientUnits="userSpaceOnUse">
<stop stop-color="#D2FFED"/>
<stop offset="1" stop-color="#31F5A9"/>
</linearGradient>
</defs>
</svg>
