<svg width="198" height="204" viewBox="0 0 198 204" fill="none" xmlns="http://www.w3.org/2000/svg">
<path d="M2.14937e-05 28.0961C2.14937e-05 17.5479 2.35473e-05 12.2738 2.2829 8.35267C3.74682 5.83824 5.83826 3.7468 8.35269 2.28288C12.2738 2.00403e-06 17.5479 0 28.0961 0H46.1413C67.1582 0 77.6666 3.67405e-06 81.6175 2.32902C89.6943 7.09028 92.3154 17.5384 87.4424 25.5483C85.0588 29.4665 75.7947 34.4268 57.2666 44.3473C55.5236 45.2806 54.6521 45.7473 53.8545 46.3011C52.2707 47.401 50.8878 48.7651 49.7666 50.3339C49.202 51.1238 48.718 51.999 47.75 53.7494C35.0471 76.7189 28.6957 88.2036 23.3093 90.4612C16.3499 93.3781 8.29959 91.3003 3.6211 85.3798C2.10423e-05 80.7974 2.14937e-05 67.836 2.14937e-05 41.9133V28.0961Z" fill="white"/>
<path d="M198 28.0961C198 17.5479 198 12.2738 195.717 8.35267C194.253 5.83824 192.162 3.7468 189.647 2.28288C185.726 2.00403e-06 180.452 0 169.904 0H151.859C130.842 0 120.333 3.67405e-06 116.383 2.32902C108.306 7.09028 105.685 17.5384 110.558 25.5483C112.941 29.4665 122.205 34.4268 140.733 44.3473C142.476 45.2806 143.348 45.7473 144.145 46.3011C145.729 47.401 147.112 48.7651 148.233 50.3339C148.798 51.1238 149.282 51.999 150.25 53.7494C162.953 76.7189 169.304 88.2036 174.691 90.4612C181.65 93.3781 189.7 91.3003 194.379 85.3798C198 80.7974 198 67.836 198 41.9133V28.0961Z" fill="white"/>
<path d="M89.894 139.478C89.894 128.93 89.894 123.656 87.6111 119.735C86.1472 117.22 84.0558 115.129 81.5413 113.665C77.6202 111.382 72.3461 111.382 61.7979 111.382H43.7528C22.7359 111.382 12.2274 111.382 8.27658 113.711C0.199757 118.472 -2.42134 128.92 2.4516 136.93C4.83524 140.848 14.0993 145.809 32.6274 155.729C34.3705 156.663 35.242 157.129 36.0395 157.683C37.6234 158.783 39.0062 160.147 40.1275 161.716C40.6921 162.506 41.1761 163.381 42.1441 165.131C54.8469 188.101 61.1983 199.585 66.5847 201.843C73.5441 204.76 81.5944 202.682 86.2729 196.762C89.894 192.179 89.894 179.218 89.894 153.295V139.478Z" fill="white"/>
<path d="M198 175.055C198 185.603 198 190.877 195.717 194.798C194.253 197.313 192.162 199.404 189.647 200.868C185.726 203.151 180.452 203.151 169.904 203.151H151.859C130.842 203.151 120.333 203.151 116.383 200.822C108.306 196.061 105.685 185.612 110.558 177.603C112.941 173.684 122.205 168.724 140.733 158.804C142.476 157.87 143.348 157.404 144.145 156.85C145.729 155.75 147.112 154.386 148.233 152.817C148.798 152.027 149.282 151.152 150.25 149.401C162.953 126.432 169.304 114.947 174.691 112.69C181.65 109.773 189.7 111.851 194.379 117.771C198 122.354 198 135.315 198 161.238V175.055Z" fill="white"/>
</svg>
