<svg width="96" height="115" viewBox="0 0 96 115" fill="none" xmlns="http://www.w3.org/2000/svg">
<path d="M56.2588 14.5635C51.8894 -3.91606 26.0328 -5.08711 20.0109 12.9218L0.982253 69.828C-2.32164 79.7084 3.00974 90.3965 12.8902 93.7004L70.8229 113.072C88.7501 119.067 103.372 97.8999 91.4198 83.255L67.5274 53.9786C65.7215 51.7657 64.4416 49.1716 63.7844 46.392L56.2588 14.5635Z" fill="#64C6FF"/>
<path d="M56.2588 14.5635C51.8894 -3.91606 26.0328 -5.08711 20.0109 12.9218L0.982253 69.828C-2.32164 79.7084 3.00974 90.3965 12.8902 93.7004L70.8229 113.072C88.7501 119.067 103.372 97.8999 91.4198 83.255L67.5274 53.9786C65.7215 51.7657 64.4416 49.1716 63.7844 46.392L56.2588 14.5635Z" fill="url(#paint0_linear_140_45)"/>
<defs>
<linearGradient id="paint0_linear_140_45" x1="10.5018" y1="41.3591" x2="104.247" y2="72.7061" gradientUnits="userSpaceOnUse">
<stop stop-color="#B5E5FF"/>
<stop offset="1" stop-color="#85C9FF"/>
</linearGradient>
</defs>
</svg>
