<svg width="31" height="31" viewBox="0 0 31 31" fill="none" xmlns="http://www.w3.org/2000/svg">
<path d="M14.2121 5.73402C16.5085 2.54171 17.6567 0.945559 18.8065 0.910277C19.276 0.895871 19.7389 1.02357 20.1346 1.27667C21.1036 1.89649 21.2709 3.85559 21.6057 7.77378C21.752 9.48634 21.8251 10.3426 22.155 11.1017C22.2978 11.4302 22.4751 11.7426 22.6839 12.0337C23.1665 12.7061 23.8641 13.208 25.2594 14.2117C28.4517 16.5081 30.0479 17.6563 30.0832 18.806C30.0976 19.2755 29.9699 19.7384 29.7168 20.1341C29.097 21.1031 27.1379 21.2705 23.2197 21.6052C21.5071 21.7515 20.6508 21.8247 19.8918 22.1545C19.5632 22.2973 19.2508 22.4746 18.9598 22.6835C18.2873 23.166 17.7855 23.8637 16.7818 25.259C14.4854 28.4513 13.3372 30.0474 12.1874 30.0827C11.7179 30.0971 11.255 29.9694 10.8594 29.7163C9.89033 29.0965 9.72296 27.1374 9.38824 23.2192C9.24194 21.5066 9.16879 20.6504 8.83891 19.8913C8.69613 19.5628 8.51882 19.2503 8.30997 18.9593C7.82741 18.2869 7.12977 17.785 5.73449 16.7813C2.54218 14.4849 0.946024 13.3367 0.910743 12.1869C0.896337 11.7175 1.02404 11.2546 1.27713 10.8589C1.89696 9.88986 3.85606 9.7225 7.77425 9.38778C9.4868 9.24148 10.3431 9.16833 11.1022 8.83844C11.4307 8.69566 11.7431 8.51836 12.0341 8.3095C12.7066 7.82695 13.2084 7.1293 14.2121 5.73402Z" fill="#406DA2"/>
</svg>
