<svg width="57" height="57" viewBox="0 0 57 57" fill="none" xmlns="http://www.w3.org/2000/svg">
<path d="M18.8347 13.0506C20.244 5.79202 20.9487 2.1627 22.8844 1.19764C23.6747 0.803577 24.5657 0.657383 25.4406 0.778201C27.5832 1.07408 29.4107 4.2879 33.0657 10.7155C34.6633 13.5249 35.462 14.9296 36.6227 15.9663C37.1251 16.4149 37.6737 16.8089 38.2594 17.1416C39.6127 17.9101 41.1989 18.2181 44.3715 18.8341C51.6301 20.2434 55.2595 20.9481 56.2245 22.8838C56.6186 23.6742 56.7648 24.5651 56.644 25.44C56.3481 27.5826 53.1343 29.4101 46.7066 33.0651C43.8972 34.6627 42.4926 35.4614 41.4559 36.6221C41.0072 37.1245 40.6132 37.6731 40.2806 38.2588C39.512 39.6121 39.2041 41.1983 38.5881 44.3709C37.1787 51.6295 36.4741 55.2589 34.5384 56.2239C33.748 56.618 32.857 56.7642 31.9822 56.6434C29.8396 56.3475 28.0121 53.1337 24.357 46.706C22.7595 43.8967 21.9607 42.492 20.8 41.4553C20.2977 41.0066 19.749 40.6126 19.1633 40.28C17.8101 39.5115 16.2238 39.2035 13.0512 38.5875C5.79261 37.1781 2.16329 36.4735 1.19823 34.5378C0.804168 33.7474 0.657974 32.8564 0.778791 31.9816C1.07467 29.839 4.28849 28.0115 10.7161 24.3564C13.5255 22.7589 14.9302 21.9601 15.9669 20.7994C16.4155 20.2971 16.8095 19.7484 17.1421 19.1627C17.9107 17.8095 18.2187 16.2232 18.8347 13.0506Z" fill="#406DA2"/>
</svg>
