<svg width="107" height="139" viewBox="0 0 107 139" fill="none" xmlns="http://www.w3.org/2000/svg">
<path d="M34.0372 1.68093C28.1106 -0.650972 21.4158 2.26307 19.0839 8.18962L10.3143 30.4777C7.98243 36.4043 10.8965 43.0991 16.823 45.431L42.2951 55.4534C48.2217 57.7853 54.9165 54.8712 57.2484 48.9447C58.6172 45.4657 58.1784 41.7221 56.3837 38.7516C61.1255 39.3487 65.6192 40.9167 69.6234 43.7745C80.3836 51.4536 83.832 63.1591 83.4405 70.5231C83.1024 76.8829 87.984 82.3126 94.3438 82.6507C100.704 82.9888 106.133 78.1072 106.471 71.7474C107.228 57.5086 100.974 37.8139 83.0211 25.0014C70.3404 15.9516 56.0821 14.5163 44.2148 15.8215C43.0173 15.9532 41.8355 16.1134 40.6722 16.2982C42.7669 10.4568 39.852 3.96887 34.0372 1.68093Z" fill="url(#paint0_linear_140_44)"/>
<path d="M23.2167 68.405C23.5548 62.0452 18.6732 56.6154 12.3133 56.2773C5.95351 55.9393 0.523762 60.8208 0.185675 67.1807C-0.571271 81.4195 5.68293 101.114 23.636 113.927C36.3168 122.977 50.575 124.412 62.4423 123.107C63.6398 122.975 64.8217 122.815 65.985 122.63C63.8903 128.471 66.8051 134.959 72.6199 137.247C78.5465 139.579 85.2413 136.665 87.5732 130.738L96.3428 108.45C98.6747 102.524 95.7607 95.829 89.8341 93.4971L64.362 83.4747C58.4355 81.1428 51.7407 84.0569 49.4088 89.9834C48.0399 93.4624 48.4787 97.206 50.2734 100.177C45.5317 99.5794 41.038 98.0114 37.0337 95.1536C26.2736 87.4745 22.8252 75.769 23.2167 68.405Z" fill="url(#paint1_linear_140_44)"/>
<defs>
<linearGradient id="paint0_linear_140_44" x1="62.1493" y1="5.20796" x2="44.5079" y2="133.72" gradientUnits="userSpaceOnUse">
<stop stop-color="#827EFC"/>
<stop offset="1" stop-color="#AEAAFC"/>
</linearGradient>
<linearGradient id="paint1_linear_140_44" x1="62.1493" y1="5.20796" x2="44.5079" y2="133.72" gradientUnits="userSpaceOnUse">
<stop stop-color="#827EFC"/>
<stop offset="1" stop-color="#AEAAFC"/>
</linearGradient>
</defs>
</svg>
