<svg width="196" height="127" viewBox="0 0 196 127" fill="none" xmlns="http://www.w3.org/2000/svg">
<path d="M230.832 47.2233C236.579 40.3588 239.453 36.9265 239.106 33.0084C238.759 29.0904 235.327 26.2167 228.462 20.4693L219.501 12.9664C212.636 7.21897 209.204 4.34526 205.286 4.69231C201.368 5.03935 198.494 8.47162 192.747 15.3362L186.182 23.1772C183.087 26.8735 181.54 28.7217 179.43 28.9085C177.32 29.0954 175.472 27.548 171.776 24.4532L156.094 11.3232C149.229 5.57582 145.797 2.7021 141.879 3.04915C137.961 3.3962 135.087 6.82847 129.34 13.693L123.713 20.4139C120.618 24.1102 119.07 25.9584 116.961 26.1452C114.851 26.3321 113.003 24.7847 109.306 21.6899L93.6244 8.55995C86.7599 2.81252 83.3276 -0.0611978 79.4096 0.285847C75.4915 0.632892 72.6178 4.06517 66.8704 10.9297L9.19219 79.8188C3.44476 86.6833 0.571051 90.1156 0.918093 94.0337C1.26514 97.9517 4.69741 100.825 11.562 106.573L20.5231 114.076C27.3877 119.823 30.82 122.697 34.738 122.35C38.6561 122.003 41.5298 118.57 47.2772 111.706L52.9043 104.985C55.9991 101.289 57.5465 99.4406 59.6562 99.2537C61.7659 99.0668 63.6141 100.614 67.3104 103.709L82.9924 116.839C89.857 122.586 93.2893 125.46 97.2073 125.113C101.125 124.766 103.999 121.334 109.746 114.469L116.311 106.628C119.406 102.932 120.954 101.084 123.063 100.897C125.173 100.71 127.021 102.257 130.718 105.352L146.4 118.482C153.264 124.23 156.696 127.103 160.614 126.756C164.532 126.409 167.406 122.977 173.154 116.112L230.832 47.2233Z" fill="#63CEAD"/>
<path d="M230.832 47.2233C236.579 40.3588 239.453 36.9265 239.106 33.0084C238.759 29.0904 235.327 26.2167 228.462 20.4693L219.501 12.9664C212.636 7.21897 209.204 4.34526 205.286 4.69231C201.368 5.03935 198.494 8.47162 192.747 15.3362L186.182 23.1772C183.087 26.8735 181.54 28.7217 179.43 28.9085C177.32 29.0954 175.472 27.548 171.776 24.4532L156.094 11.3232C149.229 5.57582 145.797 2.7021 141.879 3.04915C137.961 3.3962 135.087 6.82847 129.34 13.693L123.713 20.4139C120.618 24.1102 119.07 25.9584 116.961 26.1452C114.851 26.3321 113.003 24.7847 109.306 21.6899L93.6244 8.55995C86.7599 2.81252 83.3276 -0.0611978 79.4096 0.285847C75.4915 0.632892 72.6178 4.06517 66.8704 10.9297L9.19219 79.8188C3.44476 86.6833 0.571051 90.1156 0.918093 94.0337C1.26514 97.9517 4.69741 100.825 11.562 106.573L20.5231 114.076C27.3877 119.823 30.82 122.697 34.738 122.35C38.6561 122.003 41.5298 118.57 47.2772 111.706L52.9043 104.985C55.9991 101.289 57.5465 99.4406 59.6562 99.2537C61.7659 99.0668 63.6141 100.614 67.3104 103.709L82.9924 116.839C89.857 122.586 93.2893 125.46 97.2073 125.113C101.125 124.766 103.999 121.334 109.746 114.469L116.311 106.628C119.406 102.932 120.954 101.084 123.063 100.897C125.173 100.71 127.021 102.257 130.718 105.352L146.4 118.482C153.264 124.23 156.696 127.103 160.614 126.756C164.532 126.409 167.406 122.977 173.154 116.112L230.832 47.2233Z" fill="url(#paint0_linear_140_42)"/>
<defs>
<linearGradient id="paint0_linear_140_42" x1="185.896" y1="-15.1693" x2="54.1276" y2="142.211" gradientUnits="userSpaceOnUse">
<stop stop-color="#00C978"/>
<stop offset="1" stop-color="#00C9A8"/>
</linearGradient>
</defs>
</svg>
