<svg width="112" height="131" viewBox="0 0 112 131" fill="none" xmlns="http://www.w3.org/2000/svg">
<path d="M55.0947 30.638C53.2638 19.4963 52.3484 13.9254 55.241 9.8953C58.1335 5.86523 63.7044 4.94982 74.8462 3.119L81.1026 2.09095C92.2444 0.260124 97.8152 -0.655287 101.845 2.23726C105.875 5.1298 106.791 10.7007 108.622 21.8425L109.65 28.0989C111.48 39.2406 112.396 44.8115 109.503 48.8416C106.611 52.8717 101.04 53.7871 89.8981 55.6179L83.6418 56.6459C72.5 58.4768 66.9291 59.3922 62.899 56.4996C58.869 53.6071 57.9535 48.0362 56.1227 36.8944L55.0947 30.638Z" fill="#FFBF44"/>
<path d="M55.0947 30.638C53.2638 19.4963 52.3484 13.9254 55.241 9.8953C58.1335 5.86523 63.7044 4.94982 74.8462 3.119L81.1026 2.09095C92.2444 0.260124 97.8152 -0.655287 101.845 2.23726C105.875 5.1298 106.791 10.7007 108.622 21.8425L109.65 28.0989C111.48 39.2406 112.396 44.8115 109.503 48.8416C106.611 52.8717 101.04 53.7871 89.8981 55.6179L83.6418 56.6459C72.5 58.4768 66.9291 59.3922 62.899 56.4996C58.869 53.6071 57.9535 48.0362 56.1227 36.8944L55.0947 30.638Z" fill="url(#paint0_linear_140_43)"/>
<path d="M47.0238 40.1744C45.469 30.7124 44.6916 25.9814 41.6078 23.1767C40.9248 22.5555 40.1723 22.0154 39.3653 21.5672C35.7213 19.543 30.9902 20.3204 21.5282 21.8752C12.0662 23.43 7.33517 24.2074 4.53049 27.2912C3.90934 27.9742 3.36924 28.7267 2.92096 29.5337C0.896812 33.1777 1.67421 37.9088 3.22902 47.3708C4.78383 56.8328 5.56123 61.5638 8.64503 64.3685C9.32799 64.9897 10.0805 65.5298 10.8875 65.978C14.5315 68.0022 19.2626 67.2248 28.7246 65.67C38.1866 64.1152 42.9176 63.3378 45.7223 60.254C46.3435 59.571 46.8836 58.8185 47.3319 58.0115C49.356 54.3675 48.5786 49.6364 47.0238 40.1744Z" fill="#FFBF44"/>
<path d="M47.0238 40.1744C45.469 30.7124 44.6916 25.9814 41.6078 23.1767C40.9248 22.5555 40.1723 22.0154 39.3653 21.5672C35.7213 19.543 30.9902 20.3204 21.5282 21.8752C12.0662 23.43 7.33517 24.2074 4.53049 27.2912C3.90934 27.9742 3.36924 28.7267 2.92096 29.5337C0.896812 33.1777 1.67421 37.9088 3.22902 47.3708C4.78383 56.8328 5.56123 61.5638 8.64503 64.3685C9.32799 64.9897 10.0805 65.5298 10.8875 65.978C14.5315 68.0022 19.2626 67.2248 28.7246 65.67C38.1866 64.1152 42.9176 63.3378 45.7223 60.254C46.3435 59.571 46.8836 58.8185 47.3319 58.0115C49.356 54.3675 48.5786 49.6364 47.0238 40.1744Z" fill="url(#paint1_linear_140_43)"/>
<path d="M55.8765 94.0488C54.0457 82.907 53.1303 77.3362 49.1002 74.4436C45.0701 71.5511 39.4992 72.4665 28.3575 74.2973L22.1011 75.3254C10.9593 77.1562 5.3884 78.0716 2.49586 82.1017C-0.396681 86.1317 0.51873 91.7026 2.34955 102.844L3.3776 109.101C5.20843 120.243 6.12384 125.813 10.1539 128.706C14.184 131.599 19.7549 130.683 30.8967 128.852L37.153 127.824C48.2948 125.993 53.8657 125.078 56.7582 121.048C59.6508 117.018 58.7354 111.447 56.9045 100.305L55.8765 94.0488Z" fill="#FFBF44"/>
<path d="M55.8765 94.0488C54.0457 82.907 53.1303 77.3362 49.1002 74.4436C45.0701 71.5511 39.4992 72.4665 28.3575 74.2973L22.1011 75.3254C10.9593 77.1562 5.3884 78.0716 2.49586 82.1017C-0.396681 86.1317 0.51873 91.7026 2.34955 102.844L3.3776 109.101C5.20843 120.243 6.12384 125.813 10.1539 128.706C14.184 131.599 19.7549 130.683 30.8967 128.852L37.153 127.824C48.2948 125.993 53.8657 125.078 56.7582 121.048C59.6508 117.018 58.7354 111.447 56.9045 100.305L55.8765 94.0488Z" fill="url(#paint2_linear_140_43)"/>
<path d="M95.6052 79.4891C94.9943 75.7716 94.6889 73.9129 94.024 72.4575C92.2598 68.5956 88.5828 65.9565 84.3595 65.5209C82.7678 65.3567 80.9091 65.6621 77.1917 66.273C73.4743 66.8838 71.6156 67.1892 70.1601 67.8541C66.2983 69.6183 63.6592 73.2953 63.2235 77.5186C63.0593 79.1103 63.3648 80.969 63.9756 84.6864C64.5865 88.4038 64.8919 90.2625 65.5568 91.718C67.321 95.5799 70.998 98.219 75.2213 98.6546C76.813 98.8188 78.6717 98.5134 82.3891 97.9025C86.1065 97.2917 87.9652 96.9863 89.4207 96.3214C93.2825 94.5572 95.9216 90.8802 96.3573 86.6569C96.5214 85.0652 96.216 83.2065 95.6052 79.4891Z" fill="#FFBF44"/>
<path d="M95.6052 79.4891C94.9943 75.7716 94.6889 73.9129 94.024 72.4575C92.2598 68.5956 88.5828 65.9565 84.3595 65.5209C82.7678 65.3567 80.9091 65.6621 77.1917 66.273C73.4743 66.8838 71.6156 67.1892 70.1601 67.8541C66.2983 69.6183 63.6592 73.2953 63.2235 77.5186C63.0593 79.1103 63.3648 80.969 63.9756 84.6864C64.5865 88.4038 64.8919 90.2625 65.5568 91.718C67.321 95.5799 70.998 98.219 75.2213 98.6546C76.813 98.8188 78.6717 98.5134 82.3891 97.9025C86.1065 97.2917 87.9652 96.9863 89.4207 96.3214C93.2825 94.5572 95.9216 90.8802 96.3573 86.6569C96.5214 85.0652 96.216 83.2065 95.6052 79.4891Z" fill="url(#paint3_linear_140_43)"/>
<defs>
<linearGradient id="paint0_linear_140_43" x1="55.9996" y1="0.381287" x2="55.9996" y2="130.562" gradientUnits="userSpaceOnUse">
<stop stop-color="#FFBF44"/>
<stop offset="1" stop-color="#FFA844"/>
</linearGradient>
<linearGradient id="paint1_linear_140_43" x1="55.9996" y1="0.381287" x2="55.9996" y2="130.562" gradientUnits="userSpaceOnUse">
<stop stop-color="#FFBF44"/>
<stop offset="1" stop-color="#FFA844"/>
</linearGradient>
<linearGradient id="paint2_linear_140_43" x1="55.9996" y1="0.381287" x2="55.9996" y2="130.562" gradientUnits="userSpaceOnUse">
<stop stop-color="#FFBF44"/>
<stop offset="1" stop-color="#FFA844"/>
</linearGradient>
<linearGradient id="paint3_linear_140_43" x1="55.9996" y1="0.381287" x2="55.9996" y2="130.562" gradientUnits="userSpaceOnUse">
<stop stop-color="#FFBF44"/>
<stop offset="1" stop-color="#FFA844"/>
</linearGradient>
</defs>
</svg>
